<?xml version="1.0" standalone="no"?>
<!DOCTYPE svg PUBLIC "-//W3C//DTD SVG 20010904//EN"
 "http://www.w3.org/TR/2001/REC-SVG-20010904/DTD/svg10.dtd">
<svg version="1.0" xmlns="http://www.w3.org/2000/svg"
 width="700.000000pt" height="700.000000pt" viewBox="0 0 700.000000 700.000000"
 preserveAspectRatio="xMidYMid meet">
<metadata>
Created by potrace 1.11, written by Peter Selinger 2001-2013
</metadata>
<g transform="translate(0.000000,700.000000) scale(0.100000,-0.100000)"
fill="#000000" stroke="none">
<path d="M3210 3500 l0 -2916 290 0 290 0 0 2916 0 2917 -290 -1 -290 0 0
-2916z"/>
<path d="M2042 3500 l-1 -1750 292 0 292 0 0 1750 0 1750 -292 0 -291 0 0
-1750z"/>
<path d="M4375 3500 l0 -1750 292 0 291 0 0 1750 0 1750 -292 0 -291 0 0
-1750z"/>
<path d="M879 4080 c-6 -22 -4 -1147 2 -1155 6 -8 526 -13 571 -6 4 1 7 262 7
581 0 446 -3 580 -12 581 -45 4 -567 3 -568 -1z"/>
<path d="M5550 4082 c-15 -5 -13 -1159 3 -1164 10 -3 512 -2 557 1 13 1 15 70
14 579 -1 317 -2 579 -3 582 -1 5 -555 7 -571 2z"/>
</g>
</svg>
