<svg xmlns="http://www.w3.org/2000/svg" viewBox="0 0 237.5 94.6"><title>birds</title><path d="M32.5 94.6h-1c0-.3-1-33.5-31.5-33.5v-1c24.8 0 30.7 21.3 32.1 30.4 1.8-9.1 8.5-30.1 33.6-30.1v1c-30.9.1-33.2 32.9-33.2 33.2zM203.5 72.3l-.2-4.3c0-.1-1.1-11.9-31.5-11.9v-1c24.9 0 30.7 7.7 32.1 11.2 1.7-3.4 8.4-10.8 33.6-10.8v1c-30.7 0-33.2 11.5-33.2 11.6l-.8 4.2zM141.9 17.7h-1c0-.2-1.1-16.7-31.5-16.7V0c16.4 0 24.3 4.8 28.1 8.7 1.858 1.914 3.23 4.246 4 6.8 1.8-4.6 8.6-15.2 33.6-15.2v1c-30.8 0-33.2 16.2-33.2 16.4z" opacity=".3" fill="#00B2CE"/></svg>