<svg id="Layer_1" data-name="Layer 1" xmlns="http://www.w3.org/2000/svg" viewBox="0 0 199.3 100.7"><defs><style>.cls-1 { fill: #00b2ce; opacity: 0.3; isolation: isolate; }</style></defs><title>cloud2</title><path class="cls-1" d="M181 100.7H0v-1h180.7c.1 0 8.3.2 13.4-4.7 2.7-2.6 4.1-6.3 4.1-10.8 0-16-18.7-16.8-19.5-16.8h-.6l.1-.6c0-.1 1.4-7.3-3-12.5-3-3.7-8.1-5.5-15.1-5.5h-.6l.1-.6c0-.1 1-9-4.6-15.3-3.7-4.2-9.4-6.3-17-6.3h-.6l.2-.6c0-.1 2.4-9.7-3.2-16.9-4.1-5.3-11.4-8-21.8-8S94.9 3.8 90.9 9c-5.2 6.9-2.6 16.1-2.6 16.2l.2.7-.8-.1c-.1 0-12.2-1.6-18.3 3.7a10.88 10.88 0 0 0-3.6 8.6v.5h-.5c-.1 0-9.3-.8-15.6 5-3.9 3.6-5.9 8.9-5.9 15.9 0 12.3-7.2 19-13.2 22.5a36.35 36.35 0 0 1-13.2 4.6l-.1-1c.3 0 25.6-3.6 25.6-26.2 0-7.2 2.1-12.8 6.2-16.6 5.8-5.3 13.7-5.3 15.8-5.3a11.38 11.38 0 0 1 3.9-8.8c5.7-4.9 15.6-4.3 18.4-4-.5-2.4-1.8-10.1 3-16.4C94.3 2.8 101.9 0 112.7 0c10.6 0 18.2 2.8 22.6 8.4 5.1 6.6 4 14.8 3.6 17.1 7.6.1 13.4 2.3 17.2 6.6 5.1 5.8 5 13.4 4.8 15.5 7 .1 12.1 2.1 15.3 5.9 3.9 4.8 3.5 10.9 3.2 12.8 3.3.3 19.9 2.4 19.9 17.8 0 4.8-1.5 8.7-4.4 11.5-5.1 4.8-12.3 5.1-13.9 5.1z"/><path class="cls-1" d="M160.6 76.9h-1c0-6.6-2-11.7-5.8-15.3-6.9-6.4-17.7-5.6-17.8-5.5h-.5v-.5c0-6.5-1.9-11.2-5.7-13.9-7.6-5.4-20.2-1-20.3-1l-.3-.9c.5-.2 13.3-4.5 21.2 1.1 3.9 2.8 6 7.6 6.1 14.2 2.3-.1 11.6-.1 18 5.8 4 3.7 6.1 9.1 6.1 16z"/></svg>