<svg id="Layer_1" data-name="Layer 1" xmlns="http://www.w3.org/2000/svg" viewBox="0 0 160.8 116.6"><defs><style>.cls-1 { fill: #e6795a; }</style></defs><title>easyEnergy</title><path class="cls-1" d="M160.8 88.5H0V0h160.8v88.5zM1 87.5h158.8V1H1v86.5z"/><path class="cls-1" d="M41.6 42.5H7.9V7.8h33.7v34.7zM8.5 42h32.7V8.3H8.5V42zM41.6 80.8H7.9V46.1h33.7v34.7zm-33.1-.5h32.7V46.6H8.5v33.7zM78.3 42.5H44.6V7.8h33.7v34.7zM45.1 42h32.7V8.3H45.1V42zM78.3 80.8H44.6V46.1h33.7v34.7zm-33.2-.5h32.7V46.6H45.1v33.7zM115.6 42.5H81.9V7.8h33.7v34.7zM82.5 42h32.7V8.3H82.5V42zM115.6 80.8H81.9V46.1h33.7v34.7zm-33.1-.5h32.7V46.6H82.5v33.7zM152.6 42.5h-33.7V7.8h33.7v34.7zm-33.1-.5h32.7V8.3h-32.7V42zM152.6 80.8h-33.7V46.1h33.7v34.7zm-33.1-.5h32.7V46.6h-32.7v33.7zM84.5 116.6h-8.7V87.5h8.7v29.1zm-7.7-1h6.7V88.5h-6.7v27.1z"/></svg>