<svg id="Layer_1" data-name="Layer 1" xmlns="http://www.w3.org/2000/svg" viewBox="0 0 280.4 109.2"><defs><style>.cls-1 { fill: #2b9747; opacity: 0.3; isolation: isolate; }</style></defs><title>forest</title><path class="cls-1" d="M264.2 81.7l9.4-9.5L246.4 45l-18.9 19-11.8-13 12-13.2L193.2 0l-32.7 35.9 11.8 12.9-13.7 15L139.9 45 121 63.9 109.2 51l12-13.2L86.7 0 54 35.9l11.8 12.9-14 15.4L32.6 45 6.8 70.8l9.3 9.3L0 96.1l.8.7 16.7-16.7-9.3-9.3 24.4-24.4 25.8 25.8-9.4 9.5 16.5 16.5-10.3 10.3.7.7 11.1-11-16.6-16.5 9.4-9.5-7.3-7.3 14.6-16.1-11.8-12.9L86.7 1.4l33.2 36.4L107.8 51l12.5 13.6-6.3 6.2 9.3 9.3-16.4 16.4 10.7 10.7.7-.8-10-9.9 16.4-16.4-9.3-9.3 24.5-24.4 18 18.1v.1l.6.5 7.1 7.1-9.4 9.5 16.6 16.5-10.3 10.3.7.7 11-11-16.6-16.5 9.5-9.5-7.8-7.7 14.3-15.7-11.8-12.9 31.4-34.5 33.2 36.4L214.3 51l12.5 13.7-6.2 6.1 9.2 9.3-16.3 16.4 10.7 10.7.7-.8-10-9.9 16.4-16.4-9.3-9.3 24.4-24.4 25.8 25.8-9.4 9.5 16.9 16.9.7-.7-16.2-16.2z"/></svg>