<svg id="Layer_1" data-name="Layer 1" xmlns="http://www.w3.org/2000/svg" viewBox="0 0 1179.6 158.6"><defs><style>.cls-1 { fill: #cd8b32; opacity: 0.2; isolation: isolate; }</style></defs><title>groundBG</title><path class="cls-1" d="M1139.9 40.7l-39.3-39.3-39.3 39.3L1022 1.4l-39.2 39.3-39.3-39.3-39.3 39.3-39.3-39.3-39.3 39.3-39.3-39.3L747 40.7 707.7 1.4l-39.3 39.3-39.3-39.3-39.3 39.3-39.3-39.3-39.3 39.3-39.3-39.3-39.3 39.3-39.3-39.3L354 40.7 314.8 1.4l-39.3 39.3-39.3-39.3-39.3 39.3-39.3-39.3-39.3 39.3L79 1.4 39.7 40.7 0 1.1.8.4l38.9 38.9L79 0l39.3 39.3L157.6 0l39.3 39.3L236.2 0l39.3 39.3L314.8 0 354 39.3 393.3 0l39.3 39.3L471.9 0l39.3 39.3L550.5 0l39.3 39.3L629.1 0l39.3 39.3L707.7 0 747 39.3 786.3 0l39.3 39.3L864.9 0l39.3 39.3L943.5 0l39.3 39.3L1022 0l39.3 39.3L1100.6 0l39.3 39.3 39-38.9.7.7-39.7 39.6zM1100.6 158.6l-39.3-39.3-39.3 39.3-39.2-39.3-39.3 39.3-39.3-39.3-39.3 39.3-39.3-39.3-39.3 39.3-39.3-39.3-39.3 39.3-39.3-39.3-39.3 39.3-39.3-39.3-39.3 39.3-39.3-39.3-39.3 39.3-39.3-39.3-39.3 39.3-39.3-39.3-39.2 39.3-39.3-39.3-39.3 39.3-39.3-39.3-39.3 39.3-39.3-39.3L79 158.6l-39.3-39.3-38.9 39-.8-.7 39.7-39.7L79 157.2l39.3-39.3 39.3 39.3 39.3-39.3 39.3 39.3 39.3-39.3 39.3 39.3 39.2-39.3 39.3 39.3 39.3-39.3 39.3 39.3 39.3-39.3 39.3 39.3 39.3-39.3 39.3 39.3 39.3-39.3 39.3 39.3 39.3-39.3 39.3 39.3 39.3-39.3 39.3 39.3 39.3-39.3 39.3 39.3 39.3-39.3 39.2 39.3 39.3-39.3 39.3 39.3 39.3-39.3 39.7 39.7-.7.7-39-39-39.3 39.3z"/></svg>