<?xml version="1.0" encoding="utf-8"?>
<!-- Generator: Adobe Illustrator 19.2.1, SVG Export Plug-In . SVG Version: 6.00 Build 0)  -->
<svg version="1.1" id="Layer_1" xmlns="http://www.w3.org/2000/svg" xmlns:xlink="http://www.w3.org/1999/xlink" x="0px" y="0px"
	 viewBox="0 0 945 250.1" style="enable-background:new 0 0 945 250.1;" xml:space="preserve">
<style type="text/css">
	.st0{clip-path:url(#SVGID_2_);fill:#FFFFFF;}
</style>
<g>
	<defs>
		<rect id="SVGID_1_" width="945" height="250.1"/>
	</defs>
	<clipPath id="SVGID_2_">
		<use xlink:href="#SVGID_1_"  style="overflow:visible;"/>
	</clipPath>
	<path class="st0" d="M136.3,183.8H108V69.4c0-18.8-11.5-27.8-30.3-27.8C53.5,41.6,46,56.5,46,68.4v115.4H0.2V79.1
		c0,0-7.4-78.2,72.6-78.2c25.6,0,57.4,14.7,63.8,34.5"/>
	<path class="st0" d="M125.8,35.4c6.5-19.8,38.2-34.5,63.8-34.5c80,0,72.6,78.2,72.6,78.2v104.7h-45.8V68.4
		c0-11.8-7.5-26.7-31.8-26.7c-18.8,0-30.3,9-30.3,27.8v114.3h-28.2"/>
	<path class="st0" d="M394,121.7v-8.2c0-10.1-22-12.7-36.8-12.7c-18,0-32.8,9.4-32.8,26.3c0,16.2,14.8,25.6,32.8,25.6
		C372,152.7,394,134.1,394,121.7 M394,184.1v-22.7c-11.9,14.1-32.5,22.4-55.2,22.4c-27.8,0-60.6-18.8-60.6-57.7
		c0-40.8,32.8-56.3,60.6-56.3c23.1,0,43.7,0.7,55.2,14.4V67.6c0-17.7-15.2-29.2-38.2-29.2c-18.8,0-53.3,6.9-68.1,20.6l-0.1-38.3
		c21.3-18.7,48.7-19.8,76.1-19.8c39.7,0,76.1,15.9,76.1,66v117.2H394z"/>
	<path class="st0" d="M467.1,183.8V0h45.8v18.8c12.3-15.5,33.9-17.9,55.6-17.9v44.7c-3.3-0.7-7.6-1.1-12.6-1.1
		c-15.2,0-35.4,10.8-42.9,22v117.3H467.1z"/>
	<path class="st0" d="M897.3,92.1c0-27-16.2-50.5-44.7-50.5c-28.5,0-44.4,23.5-44.4,50.5c0,27.4,15.9,50.9,44.4,50.9
		C881.1,143,897.3,119.5,897.3,92.1 M760.6,92.1c0-49.4,34.6-91.3,92-91.3c57.7,0,92.3,41.9,92.3,91.3c0,49.8-34.6,91.6-92.3,91.6
		C795.3,183.8,760.6,141.9,760.6,92.1"/>
	<path class="st0" d="M698.3,110.1V70.2c0-14.6-24.2-28.6-39.3-28.6c-26,0-44,18-44,48s18,48,44,48
		C674.1,137.6,698.3,122.5,698.3,110.1 M575.3,224.2l0.1-40.4c14.1,15.5,46.8,28.9,68.8,28.9c22,0,54.1-9.7,54.1-44v-17.7
		c-13.7,17.3-32.5,27.4-53.7,27.4c-43.7,0-76.8-30.7-76.8-88.7c0-57,32.8-88.7,76.8-88.7c20.9,0,39.7,0.6,53.7,18.3V18l46.2-18
		v167.5c0,66.4-51.2,82.6-94.2,82.6C620.4,250.1,597.3,243.3,575.3,224.2"/>
</g>
</svg>
