<?xml version="1.0" encoding="utf-8"?>
<!-- Generator: Adobe Illustrator 19.2.1, SVG Export Plug-In . SVG Version: 6.00 Build 0)  -->
<svg version="1.1" id="Layer_1" xmlns="http://www.w3.org/2000/svg" xmlns:xlink="http://www.w3.org/1999/xlink" x="0px" y="0px"
	 viewBox="0 0 353.2 352.9" style="enable-background:new 0 0 353.2 352.9;" xml:space="preserve">
<style type="text/css">
	.st0{fill:#FFFFFF;}
</style>
<g>
	<path class="st0" d="M155.7,120.7l0.6,2.6c3-3.6,6.6-6.6,10.7-9l0.6-0.4C162.7,115.1,158.7,117.4,155.7,120.7z"/>
	<path class="st0" d="M158.4,132.4l0.4,1.6c2.6-0.9,5.6-1.4,9.2-1.5l0.3-0.3C164.2,131,160.9,131,158.4,132.4z"/>
	<path class="st0" d="M93.6,195.8c-0.4,0-0.9-0.1-1.3-0.1l0,0c-3-0.6-4.5-2.5-4.7-5.6l0.7-0.9l-1.3-1.7l-1.5,2v0.3
		c0.1,4.5,2.2,7.2,6.4,8l0,0l0,0c1,0.2,1.9,0.3,2.8,0.2l-0.6-1.5L93.6,195.8z"/>
	<path class="st0" d="M19.9,79.3c-0.1,0.2-0.3,0.4-0.3,0.6s0,0.4,0.1,0.6c0.1,0.1,0.3,0.2,0.5,0.2s0.4,0,0.6-0.1L19.9,79.3
		L19.9,79.3z"/>
	<path class="st0" d="M84.4,180.1l-1.8-2.9l-2.5-3.9l-0.4-0.6l-1.2-1.9l-6.6-10.4L19.6,94.7c0.5-0.4,1-0.9,1.5-1.3
		c1.7-1.6,3.2-3.2,4.5-5c0-0.1,0.1-0.1,0.1-0.2l-4-6.3c-0.5,0.2-0.8,0.3-1,0.3s-0.4,0-0.6,0c-0.2,0-0.4,0-0.6-0.1
		C19.3,82,19.1,82,19,81.8c-0.2-0.1-0.3-0.3-0.4-0.5c-0.2-0.2-0.3-0.4-0.3-0.6c-0.1-0.2-0.1-0.4-0.1-0.6s0-0.4,0-0.6
		s0.1-0.4,0.2-0.6c0.1-0.3,0.3-0.6,0.7-1.1c0-0.1,0.1-0.1,0.1-0.2l-0.5-0.8c-0.1,0.1-0.2,0.1-0.2,0.2c-0.2,0.1-0.3,0.2-0.4,0.3
		c-0.2,0.1-0.3,0.1-0.5,0.2c-0.2,0-0.4,0.1-0.5,0.1c-0.2,0-0.3,0-0.5,0s-0.3-0.1-0.5-0.1l-0.4-0.2c-0.3-0.2-0.5-0.4-0.7-0.7
		c-0.2-0.3-0.4-0.6-0.5-0.9c-0.2-0.5-0.2-0.8-0.2-1l1.5-0.9c0,0.3,0,0.7,0,1l0.2,0.4c0.1,0.2,0.2,0.3,0.2,0.4
		c0.1,0.1,0.2,0.2,0.3,0.2c0.1,0.1,0.2,0.1,0.4,0.1c0.1,0,0.3,0,0.4,0c0.1,0,0.3-0.1,0.4-0.2c0.1-0.1,0.2-0.2,0.3-0.3L15.8,72
		c-0.1,0.2-0.3,0.4-0.5,0.6C15,72.8,14.8,73,14.5,73c-0.3,0.1-0.5,0.2-0.8,0.2c-0.2,0-0.5,0-0.7-0.1s-0.4-0.2-0.7-0.4l-0.9,0.8
		l-0.5-0.6l0.9-0.7c-0.1-0.1-0.2-0.3-0.3-0.4v-0.1l-0.2-0.4c-0.1-0.5-0.2-0.9-0.1-1.2l1.5-0.4c0,0.3,0,0.6,0,0.9l0,0l0.1,0.4
		c0,0.1,0.1,0.3,0.2,0.3c0.1,0.1,0.3,0.3,0.4,0.3c0.2,0,0.4,0,0.6-0.1c0.1-0.1,0.2-0.2,0.2-0.3c0-0.1,0-0.2,0-0.4
		c-0.1-0.4-0.2-0.7-0.3-0.9v-0.3v-0.2c0-0.1,0-0.2,0-0.3L13,67.8l-0.8-1.3l-0.8-1.3L0,74.3l78.2,98.3l5.5,6.9l4.2,5.2L84.4,180.1z"
		/>
	<path class="st0" d="M32.1,64.5c-0.2,0-0.4,0-0.7,0.1h-0.1c-0.2,0.1-0.4,0.1-0.6,0.2l-0.6,0.3c-0.5,0.4-0.9,0.7-1.1,0.9
		c-0.2,0.2-0.3,0.4-0.3,0.6c-0.1,0.2,0,0.4,0.1,0.6s0.3,0.3,0.5,0.3s0.4,0,0.7-0.1s0.8-0.3,1.3-0.6l0.4-0.3l0.1-0.1
		c0.2-0.2,0.4-0.3,0.5-0.5s0.3-0.4,0.3-0.6c0.1-0.2,0-0.4,0-0.6C32.5,64.7,32.3,64.6,32.1,64.5z"/>
	<path class="st0" d="M110.4,193.2c0.3-0.1,0.8-0.3,1.3-0.6l0.5-0.4c0.1-0.1,0.1-0.2,0.3-0.2l0.1-0.1h-0.1l-3,1.2
		c0.1,0,0.1,0.1,0.3,0.1C109.9,193.3,110.1,193.3,110.4,193.2z"/>
	<path class="st0" d="M12.7,64.4l0.8,1.3l0.8,1.3l0.6,0.9l0.5,0.8l0.3,0.5l2.2,3.5l1.5,2.3l1.1,1.7l0.8,1.3l1.1,1.7l0.9,1.3l3.6,5.6
		l27.5,43l1.2,1.9l1,1.6l4,6.3l1.7,2.7l0.2,0.3l11,17.2l5.9,9.1l1.5,2.3l3,4.6l1.8,2.7l1.5,2.3l1.5,2.4v-0.2l-0.9-2.2l-0.3-0.6
		l-0.7-1.6l-1.3-3.1l-0.8-1.8l-2.5-6.1l-0.1-0.1l-1.5-2.3l-13-20.3l-1.4-2.2l-0.3-0.5l-0.1-0.1l-1-1.5l-1.4-2.2l-3.9-6.1l-2.4-3.8
		v-0.1l0,0l-1.2-1.9l-0.5-0.8L28.6,83.6l-1.3-2.1c0.6-0.4,1.1-0.8,1.6-1.1c0.5-0.4,1-0.8,1.6-1.2c1.2-1,2.4-2.1,3.4-3.3
		c2.7-3,4.8-6.4,6.3-10.2l-4.5-10.8v-0.1L35,53.2l-0.6-1.4l-0.2-0.4L33.6,50L33,48.6L32.3,47l-0.1-0.3l-0.5-1.1l-1,0.6l0,0L9.5,59.7
		l2.1,3.3L12.7,64.4z M31.7,60.9l-1.2,0.8l-0.1,0.1L29.3,60l-0.8,0.3l0.3,0.4c0.1,0.1,0.2,0.2,0.2,0.4c0.1,0.1,0.1,0.3,0.1,0.4
		c0,0.3,0,0.6-0.1,0.9c-0.1,0.2-0.2,0.3-0.2,0.5c-0.1,0.1-0.2,0.2-0.2,0.3c-0.3,0.3-0.6,0.6-0.8,0.7c-0.2,0.1-0.3,0.2-0.5,0.3
		s-0.3,0.1-0.5,0.1s-0.4,0-0.5,0s-0.2,0-0.4,0h-0.1c-0.2,0-0.3-0.1-0.5-0.2l-0.4-0.3c-0.2-0.2-0.4-0.4-0.6-0.7
		c-0.2-0.3-0.3-0.6-0.4-0.9l0,0c-0.1-0.4-0.1-0.8-0.1-1.1l0.9-0.4l0.8-0.4c-0.1,0.3-0.1,0.7-0.1,1l0.1,0.3v0.1
		c0,0.1,0.1,0.3,0.2,0.4s0.2,0.2,0.3,0.3s0.2,0.1,0.3,0.1c0,0,0,0,0.1,0c0.2,0,0.3,0,0.4,0c0.1,0,0.3-0.1,0.4-0.1
		c0.2-0.1,0.3-0.2,0.4-0.4c0.1-0.1,0.1-0.3,0.1-0.5c0-0.1,0-0.2,0-0.3v-0.1c0-0.1-0.1-0.3-0.2-0.4c-0.1-0.2-0.2-0.3-0.4-0.4
		c-0.1-0.1-0.3-0.3-0.5-0.4l3.6-1.6l0.4,0.6L31.7,60.9z M26.4,54c0.3,0,0.5,0.1,0.7,0.1l0,0c0.2,0.1,0.3,0.2,0.5,0.4l0,0l1-0.6
		l0.4,0.6l-1,0.6c0.1,0.2,0.2,0.4,0.3,0.7c0,0,0,0,0,0.1c0.1,0.3,0.1,0.5,0,0.8L26.8,57l0,0c0-0.2,0-0.4,0-0.6s-0.1-0.4-0.2-0.5
		s-0.2-0.3-0.4-0.3l0,0c-0.2,0-0.3,0-0.5,0c-0.1,0-0.1,0.1-0.2,0.2c0,0.1,0,0.2-0.1,0.3l0,0c0,0.1,0,0.3,0,0.6l0.1,0.7
		c0,0.2,0,0.3,0,0.5c0,0.1,0,0.1,0,0.2c0,0.2-0.1,0.5-0.3,0.6c-0.2,0.2-0.3,0.4-0.6,0.6c-0.3,0.2-0.6,0.3-0.8,0.4
		c-0.1,0-0.2,0-0.3,0.1c-0.2,0-0.3,0-0.4,0c-0.2,0-0.4-0.1-0.7-0.2c-0.2-0.1-0.4-0.3-0.6-0.4l-0.4,0.3l-0.2,0.1l-0.3,0.2l-0.4-0.6
		l1-0.6c-0.1-0.1-0.2-0.3-0.2-0.5V58v-0.2v-0.2c0-0.5,0-0.9,0-1.2l1.6-0.2c0,0.1-0.1,0.3-0.1,0.4c0,0.1,0,0.3,0,0.5l0,0l0.1,0.4
		c0,0.1,0.1,0.3,0.2,0.4s0.2,0.2,0.3,0.3c0,0,0.1,0,0.1,0.1c0.2,0.1,0.4,0,0.6-0.1c0.1-0.1,0.2-0.1,0.2-0.3s0-0.2,0-0.4v-0.1
		c-0.1-0.3-0.1-0.6-0.2-0.8v-0.3v-0.2c0-0.2,0-0.3,0.1-0.5l0,0c0.1-0.2,0.2-0.4,0.3-0.5c0.2-0.2,0.3-0.3,0.6-0.5
		c0.2-0.2,0.5-0.3,0.8-0.3c0.1,0,0.2,0,0.2,0C26,54,26.2,53.9,26.4,54z M34.2,65.7c0,0.2-0.2,0.4-0.2,0.6c-0.1,0.2-0.2,0.4-0.3,0.5
		l-0.5,0.5c-0.5,0.4-0.8,0.7-1.1,0.9c-0.1,0.1-0.2,0.1-0.3,0.1c-0.4,0.2-0.8,0.4-1,0.5c-0.6,0.2-1,0.3-1.3,0.3c-0.2,0-0.5,0-0.6,0
		c-0.2,0-0.4-0.1-0.6-0.2c-0.2-0.1-0.3-0.2-0.5-0.3c-0.2-0.1-0.3-0.3-0.4-0.5s-0.2-0.4-0.3-0.6C27,67.3,27,67.1,27,66.9
		c0-0.2,0-0.4,0.1-0.6c0.1-0.2,0.1-0.4,0.2-0.6c0-0.1,0.1-0.2,0.2-0.3c0.2-0.2,0.3-0.5,0.6-0.8c0.2-0.2,0.6-0.5,1.1-0.9
		c0,0,0.1-0.1,0.2-0.1c0.3-0.1,0.6-0.3,1.1-0.5l0.4-0.1l0.3-0.1c0.2,0,0.4-0.1,0.6-0.1c0.2,0,0.4,0,0.6,0c0.2,0,0.4,0.1,0.6,0.2
		s0.3,0.2,0.5,0.3s0.3,0.3,0.4,0.5s0.2,0.4,0.3,0.6c0.1,0.2,0.1,0.4,0.1,0.6C34.3,65.3,34.3,65.5,34.2,65.7z"/>
	<path class="st0" d="M66.3,129c-0.5-0.5-0.9-1.1-1.2-1.7c-1-1.5-1.6-3.1-2-4.9c-0.1-0.6-0.2-1.1-0.2-1.7l-0.2-0.5l-0.1-0.2
		l-0.4-0.9l-0.4-0.9l-0.4-1l-0.2-0.4l0,0l-0.8-1.8l-0.5-1.1c-0.3,1.2-0.6,2.4-0.7,3.6c-0.1,0.7-0.1,1.4-0.2,2c0,0.3,0,0.7,0,1
		s0,0.7,0.1,1c0,0.3,0.1,0.6,0.1,0.9c0,0.2,0,0.4,0.1,0.5c0.1,0.6,0.3,1.2,0.4,1.8c0.4,1.5,1.1,3,2.1,4.5c1.8,2.8,4.2,4.9,7.1,6.3
		l-1.2-2.8v-0.1L66.3,129z"/>
	<path class="st0" d="M51.3,44.8c-0.2-0.1-0.4-0.1-0.7,0c-0.2,0-0.5,0.1-0.8,0.1l-0.6,0.2c-0.6,0.3-1,0.5-1.2,0.7s-0.4,0.3-0.5,0.5
		s-0.1,0.4,0,0.6c0.1,0.2,0.2,0.3,0.4,0.4c0.2,0.1,0.4,0.1,0.7,0.1s0.8-0.2,1.3-0.4l0.6-0.3c0.2-0.2,0.5-0.3,0.6-0.4
		c0.2-0.2,0.3-0.3,0.4-0.5s0.1-0.4,0-0.6C51.6,45,51.4,44.9,51.3,44.8z"/>
	<path class="st0" d="M48.6,57.8c0.8-0.5,1.6-1.1,2.3-1.6c1.9-1.4,3.6-3.1,5.1-4.8c0.6-0.7,1.1-1.4,1.7-2.2l-0.4-1.8l-0.2-0.7
		L57,46.2l-0.6-2.5l0,0l-0.3-1.3l-0.2-0.6l-0.4-1.6L55,37.9l-0.2-0.7l-0.5-2.1l-0.2-0.7l-0.2-0.7l-0.1-0.3l-0.1-0.6l-0.2-1l-0.1-0.5
		L53,29.7v-0.2v-0.2L52.7,28l-0.3-1.5l-22.5,9.3l2.7,6.5l0.8,1.8l0.4,0.9l0.2,0.4l0.6,1.4l0.6,1.4l0.6,1.4l0.8,1.9v0.1l0.6,1.6
		l0.1,0.3l3.7,9l19.9,48.1l0.1,0.2l0.8,1.8l0.3,0.7l0,0l0.6,1.4l0.6,1.4l0.5,1.2l0.4,0.9l0.3,0.8v0.1l0.8,1.8l4.3,10.5l1,2.4
		l0.1,0.1l0.9,2.3l1,2.4l0.8,2l0.4,0.9l0.7,1.7l0.1,0.2l0.8,1.8l6.6,15.9l1.2,3l0.8,2l1.7,4.2l0.2,0.5l-0.6-2.6l-1.4-6.2v-0.2
		l-0.9-3.7l-1.2-5.2l-3.3-7.9l-0.5-1.3l-0.2-0.5l-0.1-0.2l-0.1-0.3l-0.4-1l-0.1-0.2l-0.8-1.8l-0.8-2l-0.3-0.6l-0.8-2l-0.1-0.2
		l-0.8-1.9l-5.6-13.5l-0.5-1.1l-0.3-0.8v-0.1l-0.4-0.9l-2.1-5l0,0l0,0l-0.4-0.9l-0.4-0.9l-0.1-0.2l-0.1-0.4l-0.6-1.5l-0.3-0.8
		L43.4,60.1c0.6-0.3,1.2-0.6,1.8-0.8C46.4,59.1,47.5,58.5,48.6,57.8z M47.5,33.4c0.3,0.1,0.5,0.1,0.7,0.3l0,0l0,0
		c0.2,0.1,0.3,0.3,0.4,0.5l1.1-0.4l0,0l0.3,0.7l-1.1,0.4c0.1,0.2,0.1,0.4,0.1,0.6v0.1c0,0.1,0,0.2,0,0.3c0,0.2,0,0.3-0.1,0.5h-0.6
		h-0.4h-0.4c0.1-0.2,0.1-0.4,0.1-0.6s0-0.4-0.1-0.6c0,0,0,0,0-0.1c-0.1-0.1-0.2-0.3-0.3-0.3c-0.2-0.1-0.3-0.1-0.5,0l0,0
		c-0.1,0-0.1,0.1-0.2,0.1l0,0c0,0.1-0.1,0.1-0.1,0.3s0,0.3,0,0.6l0,0v0.7c0,0.3-0.1,0.5-0.2,0.7c-0.1,0.2-0.2,0.4-0.4,0.6
		c-0.2,0.2-0.4,0.3-0.7,0.4c-0.3,0.1-0.6,0.2-0.9,0.2c-0.3,0-0.5,0-0.8-0.1c-0.2-0.1-0.4-0.1-0.6-0.3l0,0l-0.1-0.1
		c-0.2-0.1-0.3-0.3-0.5-0.4l-1.1,0.4l-0.3-0.7l1-0.4c-0.1-0.1-0.1-0.3-0.1-0.4c0,0,0,0,0-0.1v-0.1v-0.4c0-0.5,0.1-0.9,0.2-1.1
		l1.6,0.1c-0.1,0.2-0.2,0.4-0.2,0.7v0.1l0,0V36c0,0.1,0,0.3,0.1,0.4c0.1,0.2,0.2,0.3,0.3,0.4c0.1,0.1,0.2,0.1,0.3,0.1s0.2,0,0.3,0
		s0.2-0.1,0.3-0.2c0,0,0-0.1,0.1-0.2c0,0,0-0.1,0-0.2c0-0.4,0-0.7,0-0.9v-0.3v-0.2c0-0.1,0-0.2,0.1-0.3c0-0.1,0.1-0.1,0.1-0.2
		c0.1-0.2,0.2-0.3,0.4-0.4c0.2-0.1,0.4-0.3,0.6-0.4c0.3-0.1,0.5-0.2,0.8-0.2c0,0,0,0,0.1,0C47,33.3,47.2,33.3,47.5,33.4z M50,41.8
		l-0.2-0.6l-0.4-1l-0.1-0.3v-0.1L48.5,40l0.2,0.3l0.1,0.2v0.1c0,0.1,0.1,0.2,0.1,0.3c0,0.2,0,0.3,0,0.4c0,0.1,0,0.1,0,0.2
		c0,0.2-0.1,0.4-0.2,0.6l0,0c-0.1,0.1-0.2,0.2-0.2,0.3c-0.1,0.1-0.2,0.3-0.4,0.4c-0.4,0.3-0.7,0.4-0.9,0.6c-0.1,0-0.2,0-0.2,0.1
		c-0.1,0-0.1,0-0.2,0.1c0,0-0.1,0-0.2,0c-0.2,0-0.3,0-0.5,0s-0.4,0-0.5,0c-0.2,0-0.3-0.1-0.5-0.1c-0.2-0.1-0.3-0.2-0.4-0.3L44.5,43
		l0,0l-0.2-0.1c-0.2-0.2-0.3-0.5-0.5-0.8c0-0.1-0.1-0.2-0.1-0.4s-0.1-0.3-0.1-0.4c0-0.1,0-0.1,0-0.2c0-0.5,0-0.8,0.1-1.1l1.7-0.4
		c-0.1,0.3-0.2,0.5-0.2,0.8c0,0.1,0,0.1,0,0.2v0.1v0.4c0,0.1,0.1,0.3,0.1,0.4c0,0.1,0.1,0.2,0.2,0.3c0.1,0.1,0.2,0.1,0.3,0.2l0,0
		c0.1,0,0.2,0,0.3,0h0.1c0.2,0,0.3,0,0.4-0.1c0.2-0.1,0.3-0.2,0.5-0.3c0.1-0.1,0.1-0.2,0.2-0.4c0,0,0,0,0-0.1s0-0.3,0-0.4l0,0
		c0-0.1-0.1-0.3-0.1-0.5c-0.1-0.2-0.2-0.4-0.3-0.5s-0.2-0.2-0.3-0.3l0,0l-0.1-0.1l0.4-0.1l0,0l3.4-0.9v0.1l0.8,1.9l0.4,1l-1,0.4l0,0
		L50,41.8z M52.9,44c0,0.1,0.1,0.1,0.1,0.2c0.1,0.1,0.2,0.2,0.2,0.4c0,0,0,0,0,0.1c0,0,0,0,0,0.1c0,0.2,0.1,0.3,0.1,0.4l0,0
		c0,0.2,0,0.4,0,0.6s-0.1,0.4-0.2,0.6s-0.2,0.3-0.3,0.5c0,0.1-0.1,0.2-0.2,0.2s-0.2,0.2-0.3,0.3l-0.5,0.4c-0.5,0.3-0.9,0.6-1.2,0.7
		c-0.6,0.2-1,0.3-1.3,0.4c-0.6,0.1-1.1,0.1-1.3,0c-0.2,0-0.4-0.1-0.6-0.1s-0.4-0.1-0.5-0.3s-0.3-0.2-0.5-0.4
		c-0.1-0.1-0.2-0.3-0.3-0.6c-0.1-0.2-0.2-0.4-0.2-0.6c0-0.2,0-0.4,0-0.6c0-0.2,0.1-0.4,0.2-0.6c0.1-0.2,0.2-0.3,0.3-0.5
		c0.2-0.2,0.5-0.5,1-0.9c0.3-0.2,0.7-0.4,1.2-0.7h0.1c0.1-0.1,0.4-0.1,0.6-0.2c0.2,0,0.4-0.1,0.6-0.1H50l0.6-0.1c0.2,0,0.4,0,0.6,0
		l0,0c0.1,0,0.2,0,0.2,0c0.1,0,0.3,0.1,0.4,0.1l0,0c0.1,0.1,0.3,0.1,0.5,0.2c0.1,0.1,0.2,0.2,0.3,0.2C52.8,43.9,52.8,44,52.9,44z"/>
	<path class="st0" d="M68.1,109.8c0,0.3,0.1,0.6,0.2,0.9c0.2,1,0.5,2.1,1,3.1c0.4,0.9,0.8,1.8,1.3,2.6c0.1,0.1,0.1,0.2,0.2,0.3
		c0.2,0.3,0.5,0.7,0.7,1c0.1,0.2,0.3,0.3,0.4,0.5c0.3,0.4,0.7,0.8,1,1.2c0.3,0.3,0.5,0.5,0.8,0.8c0.1,0.1,0.3,0.3,0.5,0.5l-0.3-1.5
		l-0.4-1.6l-0.1-0.3v-0.1l0,0l-0.4-1.6v-0.1l-1.2-5.2l-0.2-0.9l-0.2-0.9l-0.6-2.8v-0.2l-0.4-1.8l-0.1-0.3l0,0l0,0l-0.1-0.3l-0.3-1.4
		l-0.1-0.5l-0.3-1.3c-0.3,0.8-0.6,1.6-0.8,2.5l0,0c0,0.1-0.1,0.2-0.1,0.3c-0.2,0.7-0.3,1.4-0.4,2c0,0.3-0.1,0.6-0.1,0.9
		c0,0.2,0,0.4,0,0.5c0,0.7,0,1.4,0,2.1c0,0.2,0,0.5,0.1,0.7C68,109.2,68,109.5,68.1,109.8z"/>
	<path class="st0" d="M115.1,20.8c0.2,0.1,0.4,0.1,0.7,0.2c0.3,0,0.8,0,1.4-0.1l0.6-0.2c0.3-0.1,0.5-0.2,0.7-0.3s0.4-0.3,0.5-0.4
		c0.1-0.2,0.2-0.3,0.2-0.5s-0.2-0.3-0.4-0.4c-0.2-0.1-0.4-0.2-0.6-0.2s-0.5,0-0.8,0l-0.6,0.1c-0.6,0.2-1,0.3-1.3,0.5
		c-0.2,0.1-0.4,0.3-0.5,0.4c-0.1,0.2-0.2,0.4-0.1,0.6C114.8,20.6,115,20.7,115.1,20.8z"/>
	<path class="st0" d="M68.5,30.2c-0.2,0.1-0.4,0.3-0.5,0.4c-0.1,0.1-0.1,0.2-0.2,0.3c0,0.1,0,0.2,0,0.3c0,0.2,0.2,0.3,0.3,0.4
		s0.4,0.1,0.7,0.2c0.3,0,0.8,0,1.4-0.1l0.6-0.2c0.3-0.1,0.5-0.2,0.7-0.3s0.4-0.3,0.5-0.4c0.1-0.2,0.2-0.3,0.2-0.5S72,30,71.8,29.9
		c-0.2-0.1-0.4-0.1-0.6-0.1c-0.2,0-0.5,0-0.8,0l-0.6,0.1c-0.4,0.1-0.7,0.2-0.9,0.3C68.8,30.1,68.6,30.2,68.5,30.2z"/>
	<path class="st0" d="M103.9,177.2l0.6-0.2c0,0,0,0,0.1,0c0.2-0.1,0.5-0.2,0.6-0.3c0.2-0.1,0.4-0.3,0.5-0.5s0.2-0.3,0.2-0.5l0,0
		c0-0.2-0.2-0.3-0.3-0.4c-0.2-0.1-0.4-0.2-0.6-0.2s-0.5,0-0.8,0l-0.6,0.1c-0.1,0-0.2,0.1-0.3,0.1c-0.5,0.2-0.8,0.3-1,0.4
		s-0.4,0.3-0.5,0.5l-0.1,0.1c0,0.1,0,0.1,0,0.2s0,0.1,0,0.2c0,0.2,0.2,0.3,0.3,0.4c0.2,0.1,0.4,0.1,0.7,0.2
		C103,177.3,103.3,177.3,103.9,177.2C103.7,177.2,103.8,177.2,103.9,177.2z"/>
	<path class="st0" d="M107.9,92L107.9,92c0,0.9,0.2,1.7,0.4,2.5c0,0.1,0,0.2,0.1,0.3c0.3,1,0.7,2,1.3,3c0,0.1,0.1,0.1,0.2,0.1
		s0.2,0,0.3,0c0.1,0,0.2-0.1,0.2-0.2s0-0.2,0-0.3c-0.1-0.1-0.1-0.2-0.2-0.4c-0.3-0.5-0.5-0.9-0.7-1.4c-0.3-0.9-0.6-1.8-0.7-2.7
		c0-0.1,0-0.3,0-0.4l0,0c-0.1-0.7-0.1-1.4,0-2.1l0,0v-0.1l0,0c0-0.1,0-0.2-0.1-0.2c-0.1-0.1-0.2-0.1-0.3-0.1l0,0c-0.1,0-0.1,0-0.2,0
		c0,0-0.1,0-0.1,0.1c-0.1,0.1-0.1,0.1-0.1,0.2l0,0c0,0.5,0,1,0,1.5C107.9,91.8,107.9,91.9,107.9,92z"/>
	<path class="st0" d="M109.4,121.3L109.4,121.3c-0.6,0.5-1.2,1.1-1.8,1.6c-0.4,0.3-0.8,0.6-1.2,0.9c-0.1,0.1-0.2,0.1-0.3,0.2
		c-0.1,0.1-0.3,0.2-0.4,0.3c-1,0.8-2.2,1.6-3.4,2.4c-0.5,0.3-1,0.6-1.5,0.9c0.4-0.1,0.7-0.2,1-0.3c0.4-0.1,0.8-0.3,1.2-0.4
		c0.2-0.1,0.4-0.2,0.7-0.3c0.3-0.1,0.6-0.2,0.9-0.3c0.1,0,0.3-0.1,0.4-0.2c1.1-0.5,2.1-1,3-1.6c0.6-0.4,1.2-0.9,1.8-1.3
		c1.1-1,1.9-2.1,2.4-3.2c0-0.1,0-0.1,0.1-0.2c0.2-0.6,0.3-1.2,0.4-1.9C111.7,119.1,110.7,120.2,109.4,121.3z"/>
	<path class="st0" d="M99.9,98.5c-0.1-0.1-0.1-0.3-0.2-0.5c-0.2-0.3-0.3-0.6-0.5-0.9c-0.3-0.4-0.6-0.8-0.9-1.2l0,0
		c-0.1-0.1-0.2-0.2-0.3-0.3c-0.3-0.3-0.6-0.6-1-0.8c-0.3-0.2-0.6-0.4-0.9-0.5l0,0l0,0l1,1.3l0,0l0,0l1.4,1.8l0.2,0.3L99,98l0.7,0.9
		l0.8,1c0-0.1-0.1-0.3-0.1-0.5c0-0.1-0.1-0.2-0.1-0.3C100.1,98.9,100,98.7,99.9,98.5z"/>
	<path class="st0" d="M259.5,214.1l-0.7,0.4c-1.9,1.1-3.9,2.2-5.8,3.4c-5.5-7.2-10.8-14.5-15.9-21.9c-7.6-13.8-14.9-27.6-21.8-41.4
		c-6.6-13.4-13.6-26.4-21.1-39.2c-0.3-0.5-0.6-1-0.9-1.6l-0.5-0.9l-0.2,0.1c-1.5-6-5.4-10.2-12-12.8c-5.5-2.9-11.8-4.8-19-5.6
		c-4.3-2.8-8.9-5.4-13.9-7.9l0.6,2.7c4.4,2.2,8.5,4.6,12.3,7.1l0.2,0.1h0.3c7,0.8,13.2,2.6,18.5,5.4h0.1c6.1,2.3,9.7,6.3,10.9,12
		l0.2-0.2l0.5,0.9l0,0l0.8,1.3l0.2,0.4c7.4,12.7,14.4,25.7,21,38.9c6.9,13.9,14.1,27.7,21.8,41.5l0,0l0,0
		c5.1,7.3,10.4,14.6,15.9,21.9c-16.9,10.7-31.4,23.7-43.4,39.1c-0.5-0.7-1-1.4-1.5-2l-0.1-0.1l-0.1-0.1c-4.1-3.6-9.6-6.5-16.5-8.6
		c-6.3-2.1-11.4-6.3-15.1-12.5c-3-6-7.1-12.4-12.2-19c0.5,0.3,1,0.6,1.6,0.9c13.2,9.6,25.2,18.8,36.1,27.8l0.6,0.5
		c-2-4.1-11.7-12.4-29.3-24.8c4,1.7,8.9,2.7,14.5,2.9l-1-0.3c-8.2-2.4-15.5-5.4-21.9-9.1l-0.1-0.1c-1.5-0.9-2.9-1.8-4.3-2.7
		l-0.1-0.1c-8.3-5.6-14.9-12.4-19.7-20.6c-0.2-0.3-0.3-0.6-0.4-0.9v-0.1c-0.3-0.6-0.5-1.2-0.8-1.7c-0.1-0.2-0.2-0.4-0.3-0.6
		c0,0,0-0.1-0.1-0.1c-0.1-0.2-0.2-0.4-0.3-0.6c-0.2-0.4-0.4-0.8-0.6-1.2c0-0.1-0.1-0.1-0.1-0.2c-0.2-0.4-0.4-0.8-0.5-1.1
		c-0.1-0.2-0.2-0.5-0.3-0.7c0-0.1-0.1-0.1-0.1-0.2c-0.1-0.2-0.2-0.3-0.2-0.5c-0.1-0.3-0.3-0.6-0.5-0.9c-0.1-0.1-0.1-0.3-0.2-0.4
		c-0.1-0.2-0.1-0.3-0.2-0.5c-0.2-0.3-0.3-0.6-0.4-0.9c-0.1-0.1-0.1-0.3-0.2-0.4c0-0.1-0.1-0.2-0.2-0.3c-0.1-0.2-0.2-0.4-0.3-0.6
		c-0.1-0.3-0.3-0.6-0.4-0.8c-0.2-0.3-0.3-0.6-0.5-0.9c-0.1-0.1-0.2-0.3-0.2-0.5c-0.2-0.4-0.4-0.7-0.6-1.1c0-0.1-0.1-0.2-0.1-0.3
		c-0.3-0.6-0.6-1.2-1-1.8c-0.3-0.5-0.6-1-0.9-1.6c-1-1.8-2.1-3.6-3.1-5.4c-0.4-0.7-0.8-1.3-1.2-1.9c-1.6-2.6-3.1-5.1-4.8-7.5
		c-0.4-0.6-0.8-1.2-1.2-1.8c-2.6-3.7-5.2-7.2-7.8-10.4l0.1,0.2l-0.2-0.1c-1.5-1-3-2.1-4.5-3.3c-0.6-0.5-1.2-0.9-1.8-1.4
		c-1.6-1.3-3.3-2.7-5-4.2c-0.5-0.4-0.9-0.8-1.3-1.2c-0.1,0-0.1-0.1-0.2-0.1c-0.2-0.2-0.5-0.4-0.6-0.6c-0.1-0.1-0.2-0.2-0.3-0.3
		c-0.1-0.1-0.2-0.2-0.2-0.2c-0.3-0.3-0.6-0.6-0.9-0.8c-0.1-0.1-0.1-0.1-0.2-0.2c-0.2-0.1-0.3-0.3-0.4-0.4c-0.3-0.3-0.5-0.5-0.8-0.8
		c-0.8-0.8-1.5-1.5-2.3-2.4c-0.2-0.2-0.3-0.4-0.5-0.6l-0.1-0.1c-0.2-0.3-0.4-0.5-0.6-0.8s-0.4-0.5-0.6-0.8c-0.4-0.6-0.9-1.2-1.3-1.7
		c0-0.1-0.1-0.1-0.1-0.2s-0.1-0.1-0.1-0.2c-0.1-0.1-0.2-0.3-0.4-0.5c-0.2-0.2-0.3-0.5-0.5-0.7c-0.1-0.1-0.1-0.2-0.2-0.3
		c-0.1-0.1-0.2-0.2-0.3-0.4l-0.1-0.1c-0.2-0.3-0.4-0.5-0.5-0.8c-1.8-2.6-3.3-5.1-4.5-7.4c-0.2-0.5-0.5-0.9-0.7-1.3
		c-0.1-0.2-0.2-0.4-0.3-0.6c-0.2-0.3-0.3-0.6-0.4-0.9c-0.3-0.6-0.5-1.2-0.7-1.8c-0.1-0.3-0.2-0.6-0.3-0.9V108
		c-0.1-0.3-0.1-0.6-0.2-0.8c0-0.1-0.1-0.3-0.1-0.4c-0.1-0.4-0.2-0.8-0.3-1.2c-0.1-0.3-0.1-0.7-0.2-1c0-0.1,0-0.2,0-0.3
		c0,0.1,0.1,0.2,0.1,0.3c0.1,0.2,0.2,0.5,0.3,0.7c0.2,0.3,0.3,0.6,0.5,0.9c0.1,0.2,0.2,0.4,0.3,0.6c0.1,0.1,0.1,0.2,0.2,0.3
		c0.1,0.1,0.2,0.3,0.3,0.5c0.2,0.3,0.3,0.5,0.5,0.8c0.3,0.4,0.6,0.9,0.9,1.2c0.4,0.4,0.7,0.8,1.1,1.2l0,0h0.1l0,0c1,0.6,2,1,2.8,1.1
		h0.1c0.3,0,0.5,0,0.8,0s0.6-0.1,0.8-0.2c0.2-0.1,0.3-0.1,0.5-0.2l0,0c0,0,0,0,0.1,0s0.2-0.1,0.3-0.1c0.1,0,0.1-0.1,0.2-0.1
		c0.1-0.1,0.3-0.1,0.4-0.2c0.1,0,0.2-0.1,0.3-0.1c0.2-0.1,0.4-0.2,0.6-0.3c0.2-0.1,0.3-0.2,0.5-0.3c0.2-0.1,0.3-0.1,0.5-0.3
		c0.1-0.1,0.2-0.1,0.3-0.2c0.7-0.4,1.3-0.9,2-1.3c0.6-0.4,1.1-0.8,1.7-1.3c0.1-0.1,0.3-0.3,0.5-0.4c0.3-0.2,0.5-0.4,0.8-0.6
		c0.2-0.2,0.5-0.4,0.7-0.6c0.4-0.4,0.8-0.8,1.2-1.2c0.2-0.2,0.4-0.4,0.6-0.6c0.1-0.1,0.2-0.2,0.3-0.3l0.4-0.4l0.2-0.1
		c-0.1,0.1-0.2,0.1-0.2,0.1c-0.2,0.2-0.4,0.3-0.7,0.5s-0.5,0.3-0.7,0.5c-0.5,0.4-1.1,0.7-1.6,1.1c-0.3,0.2-0.6,0.4-0.9,0.6
		s-0.6,0.4-0.9,0.6c0,0-0.1,0-0.1,0.1c-1.4,0.9-2.7,1.6-4,2.4c-0.3,0.1-0.5,0.3-0.8,0.4c-0.2,0.1-0.3,0.1-0.4,0.2
		c-0.1,0-0.2,0.1-0.3,0.1c0,0-0.1,0-0.2,0.1c-0.3,0.1-0.6,0.3-0.9,0.4c-0.1,0.1-0.3,0.2-0.4,0.2s-0.2,0.1-0.3,0.1h-0.1h-0.1h-0.1
		c-0.2,0-0.5,0.1-0.8,0c-0.4,0-0.8-0.1-1.3-0.3c-0.3-0.1-0.6-0.3-1-0.5c-0.6-0.6-1.2-1.4-1.8-2.1c-0.2-0.3-0.4-0.5-0.5-0.8
		c0,0,0-0.1-0.1-0.1c-0.1-0.2-0.3-0.5-0.4-0.7l-0.1-0.1c-0.1-0.3-0.3-0.6-0.5-0.9c-0.1-0.2-0.2-0.4-0.3-0.6c0-0.1-0.1-0.2-0.1-0.3
		c-0.2-0.5-0.5-1.1-0.7-1.7c-0.3-0.7-0.5-1.5-0.7-2.2c0-0.1,0-0.2,0.1-0.3v-0.1c0.1-0.4,0.2-0.8,0.4-1.1l0,0
		c0.2-0.5,0.4-0.9,0.7-1.3c0.2-0.3,0.3-0.5,0.6-0.8c0.1-0.2,0.3-0.4,0.5-0.6c0.1-0.1,0.2-0.2,0.3-0.3c0.3-0.3,0.6-0.6,1-0.8
		c0.2-0.1,0.3-0.3,0.5-0.4c0.5-0.4,1.1-0.7,1.7-1l0,0c2.6-1.4,5.2-2,7.9-1.8c0.5,0,0.9,0.1,1.4,0.2s0.9,0.2,1.4,0.3
		c0.2,0.1,0.5,0.1,0.8,0.2s0.6,0.2,0.9,0.3c0.3,0.1,0.5,0.2,0.8,0.3h0.1c0,0,0,0,0.1,0c0.8,0.3,1.5,0.8,2.3,1.2
		c0.6,0.4,1.2,0.8,1.8,1.2c1.4,1,2.8,2.2,4.3,3.6c0.6,0.6,1.2,1.2,1.8,1.9c0.1,0.1,0.1,0.1,0.2,0.2c0.6,0.7,1.3,1.5,2,2.2
		c0,0,0.1,0.1,0.2,0.1c0.2,0.3,0.5,0.6,0.8,0.9c0.2,0.3,0.4,0.6,0.7,0.9l0,0c0.2,0.3,0.4,0.5,0.6,0.8s0.3,0.5,0.5,0.7l0,0
		c0,0,0,0,0,0.1c0.5,0.6,0.9,1.2,1.4,1.9c0,0,0,0,0,0.1c0,0,0,0.1,0.1,0.1c0.5,0.6,0.9,1.3,1.4,2l0,0c0.1,0.2,0.3,0.5,0.5,0.7
		s0.3,0.5,0.4,0.7c0,0.1,0.1,0.1,0.1,0.2c0.1,0.2,0.2,0.4,0.3,0.5c0,0.1,0.1,0.1,0.1,0.2c0.2,0.3,0.4,0.6,0.6,0.9
		c0.1,0.2,0.3,0.5,0.4,0.7c0.2,0.3,0.3,0.5,0.5,0.8v0.1l3.9,4.7l9.5,7.7l1,0.9l0,0l0,0c4.2,3.9,7.7,7.8,10.5,11.7
		c0.1,0.1,0.3,0.3,0.4,0.3c0.5,0.2,0.9,0.5,1.3,0.6c0.1,0,0.2,0.1,0.2,0.1c0.7,0.3,1.4,0.6,2,1c0.3,0.1,0.6,0.3,0.8,0.4l0,0
		c0.1,0.1,0.3,0.1,0.5,0.3c0.3,0.2,0.5,0.3,0.8,0.4s0.6,0.3,0.8,0.4c0.1,0,0.2,0.1,0.3,0.1c0.2,0.1,0.3,0.1,0.4,0.2
		c0.1,0,0.2,0.1,0.3,0.1h0.1c0.5,0.3,1.1,0.6,1.6,0.9c0.2,0.1,0.4,0.2,0.6,0.3c0.1,0.1,0.2,0.1,0.3,0.2c0.4,0.2,0.8,0.4,1.1,0.6
		c0.2,0.1,0.4,0.3,0.7,0.4l0.1,0.1c0.4,0.2,0.9,0.5,1.3,0.7c0.2,0.1,0.3,0.1,0.4,0.2c0,0,0.1,0,0.1,0.1c0.6,0.3,1.2,0.7,1.8,1
		c0.2,0.1,0.3,0.2,0.5,0.3c0.6,0.4,1.2,0.8,1.8,1.1c0.8,0.5,1.5,0.9,2.2,1.4c0.6,0.4,1.2,0.8,1.8,1.2c3,1.9,5.8,4,8.6,6l0.9,0.6
		c-1.9-2.6-4.7-5.3-8.5-8.1c-0.6-0.4-1.1-0.8-1.7-1.2c-1.2-0.9-2.5-1.7-3.9-2.6c-0.8-0.5-1.5-0.9-2.3-1.4c0,0-0.1,0-0.1-0.1
		c-0.5-0.3-1.1-0.6-1.7-1c-0.4-0.2-0.8-0.5-1.2-0.6c-0.2-0.1-0.4-0.2-0.6-0.3c0,0,0,0-0.1,0c-0.5-0.3-0.9-0.5-1.4-0.8
		c-0.2-0.1-0.4-0.2-0.6-0.3c-0.1,0-0.2-0.1-0.2-0.1h-0.1c-0.1-0.1-0.3-0.1-0.4-0.3c-0.2-0.1-0.4-0.2-0.6-0.3c0,0,0,0-0.1,0
		c0,0,0,0-0.1,0c-0.9-0.4-1.7-0.9-2.6-1.3l0,0c-0.3-0.1-0.5-0.3-0.8-0.4c0.2,0,0.3,0,0.5,0h0.1c0.6,0,1.2,0.1,1.8,0.1
		c0.1,0,0.2,0,0.2,0c0.1,0,0.2,0,0.2,0c0.5,0,0.9,0.1,1.4,0.1c0.1,0,0.2,0,0.3,0c0.1,0,0.2,0,0.4,0c0.5,0,0.9,0.1,1.3,0.2h0.1
		l0.1,0.5v0.1l0,0l0.7-0.5c0.3,0,0.5,0.1,0.8,0.1c0.2,0,0.4,0.1,0.6,0.1c0.3,0.1,0.7,0.1,1,0.2c0.7,0.1,1.4,0.3,2.1,0.5
		c3.1,0.7,6,1.6,8.9,2.9c0.2,0.1,0.4,0.1,0.6,0.3l0.7,0.3c-0.3-0.3-0.7-0.6-1.1-0.9c-2.3-1.7-5.4-3-9.4-4c-0.7-0.1-1.4-0.3-2.1-0.5
		c-0.1,0-0.3-0.1-0.5-0.1l0.4-0.3l-1.3-5.6l-0.3-1.1l-1.9-8.3l-0.6-2.6l-8-34.5l-0.6-2.7L125.6,0l-24.5,5.7L90.7,8.1L52,17l1.5,6.4
		l0.5,1.9l0.3,1.5l0.2,0.9v0.2l0.4,1.8L55,30l0.3,1.3l0.1,0.4l0.3,1.1v0.1l0.1,0.4l0.4,1.6l0.1,0.4l0,0l0.9,4l0.2,0.8l0.3,1.2
		l0.7,2.9l0.3,1.5l0.2,0.6l0.2,0.6l0.1,0.3l0.5,2.1l0.4,1.6l1.3,5.9l6.5,28.3l0.5,2.2l2.1,9.1l0.1,0.5l0.5,2l0.1,0.3l0,0l0.1,0.5
		l0.3,1.3l0.2,0.6l0.2,0.8v0.2l0.2,0.9l0.3,1.3l0.6,2.8l0.2,0.9l0.2,0.9l0.6,2.7l0.3,1.3l0.1,0.5l0.2,0.9l0.2,1v0.2l0.6,2.8v0.1
		l0.6,2.6l1.4,6.3l0.3,1.1l0.3,1.1l0.8,3.5L79,134l0.2,1v0.1v0.2l0.1,0.3l0.1,0.5l0.2,1v0.1l0.1,0.5l0.2,0.8l0.3,1.3l0.2,0.8
		l0.4,1.6v0.2l0.4,1.8l1.8,7.9l0.6,2.4l0.9,3.9l1.2,5.4l1.3,5.5l0.8,3.4v0.2l1.1,4.7l0.2,0.9l0.2,0.9l0.1,0.3l0.1,0.7l0.3,1.1
		l0.1,0.6l0.2,0.8l0.2,0.9l0.2,1l0.3,1.4l0.8-0.2l0.4-0.1l0,0l1.1-0.3h0.1l0.3-0.1l0.5-0.1l0.5-0.1l1-0.2l0.9-0.2l4.3-1l1.4-0.3
		l2.3-0.5l1-0.2l1.1-0.3l1.1-0.3l0.5-0.1l1.2-0.3l5-1.1l1.9-0.5l1.5-0.3l0.7-0.1l0.8-0.2l2-0.5h0.2l1.1-0.3l0.6-0.1l2.5-0.6l4-0.9
		c0.2,0.4,0.4,0.8,0.6,1.2c0.1,0.2,0.2,0.4,0.3,0.6l-4.3,1l-1.5,0.4l-1.9,0.4h-0.2h-0.2l-0.8,0.2l-0.5,0.1l-1.1,0.3l-1.5,0.3
		l-1.5,0.3l-2.5,0.6l-4,0.9l-0.6,0.1l0,0l-0.7,0.2l0,0c0,0.1-0.1,0.2-0.2,0.2c-0.1,0.2-0.3,0.3-0.5,0.5L108,185
		c-0.1,0.1-0.2,0.2-0.3,0.2c-0.3,0.2-0.6,0.3-0.8,0.5h-0.1c-0.3,0.1-0.6,0.2-0.9,0.3l0,0c-0.2,0-0.3,0.1-0.5,0.1s-0.4,0-0.5,0
		s-0.2,0-0.2,0c-0.1,0-0.1,0-0.2,0c-0.2,0-0.3,0-0.4,0s-0.3,0-0.5-0.1c-0.1,0-0.1,0-0.2,0c-0.2-0.1-0.4-0.1-0.5-0.3
		c-0.2-0.1-0.3-0.2-0.4-0.4l-5.4,1.2l-0.6,0.1l-1.3,0.3h-0.1l-0.6,0.2l-0.8,0.2l-0.5,0.1H93l-0.8,0.2l0.8,2l0.8,1.9l1.3,3.1l0.1,0.2
		l0.3,0.8l0.3-0.1l0.5-0.2l1-0.4l0.4-0.2l1.1-0.4l0.4-0.1l1.5-0.6l0.3-0.2l3.1-1.3l2.2-0.9l0.7-0.3l0.8-0.3l1.8-0.8l3.5-1.5l0.2-0.1
		l4.8-2l1.8-0.8l1.4-0.6l1.5-0.6l0.6-0.3l1.2-0.5l0.2-0.1l0,0l1.9-0.8l3.9-1.6l0.9-0.4c0.2,0.3,0.3,0.6,0.5,0.9
		c0.1,0.2,0.2,0.5,0.3,0.7c0,0,0,0.1,0.1,0.1l-0.9,0.3l-2.2,0.9l-0.8,0.3l-0.3,0.2l-2.2,0.9l-1.3,0.6l-0.9,0.4l-1.5,0.8l-1.4,0.6
		l-1.6,0.6l-0.3,0.1l-5.1,2.1c0,0.1,0,0.3-0.1,0.4c0,0.2-0.2,0.4-0.2,0.6c-0.1,0.2-0.2,0.4-0.3,0.5l-0.5,0.5
		c-0.5,0.4-0.8,0.7-1.1,0.9c-0.6,0.3-1,0.5-1.2,0.6c-0.6,0.2-1,0.3-1.3,0.3c-0.2,0-0.4,0-0.6,0s-0.4-0.1-0.6-0.2s-0.3-0.2-0.5-0.3
		c-0.1-0.2-0.3-0.3-0.4-0.5l0,0l-5.1,2.1h-0.2l-1.7,0.7l-0.2,0.1l-1.2,0.5l-0.2,0.1l-1.2,0.5l1.3,2.1l3.8,5.9l0.6-0.4l1.3-0.8
		l1.3-0.8l1.7-1l6.1-3.9l2.5-1.6l1.4-0.9l7-4.5l1.3-0.8l1.3-0.8l3.9-2.5l2.6-1.6l0,0l0.2-0.2c0,0.1,0.1,0.2,0.1,0.2
		c0.2,0.4,0.4,0.8,0.5,1.1c0.1,0.1,0.1,0.3,0.2,0.4l-0.9,0.6l-2.8,1.8l-3.9,2.5l-8.4,5.4l-11.6,7.4l-1.3,0.8l-1.3,0.8l2.9,3.7
		l27.6-22c0.3,0.6,0.6,1.2,0.9,1.8c0.1,0.2,0.2,0.3,0.2,0.5v0.1c4.9,8.4,11.7,15.5,20.3,21.3c6.8,8.2,12,16,15.7,23.3l0,0l0,0
		c4,6.7,9.5,11.2,16.3,13.5l0,0c6.6,2.1,11.8,4.8,15.7,8.1c0.6,0.8,1.2,1.6,1.7,2.4c-7,9.2-13.1,19.2-18.3,29.9L187,289l32.9,63.3
		l0.3,0.6l133-31.7L259.5,214.1z M97.4,165.4v-0.5c0.1-0.5,0.3-0.9,0.4-1.1l0.8,0.2l0.8,0.2c-0.2,0.3-0.3,0.5-0.4,0.8l-0.1,0.4
		c0,0.2,0,0.3,0,0.4c0,0.2,0.1,0.3,0.3,0.5c0.2,0.1,0.4,0.2,0.6,0.1c0.1,0,0.2-0.1,0.3-0.1l0,0c0.1-0.1,0.1-0.2,0.2-0.3v-0.1
		c0-0.3,0.1-0.6,0.1-0.8l0.2-0.5c0.1-0.2,0.2-0.3,0.3-0.5c0.1-0.2,0.3-0.3,0.5-0.4s0.4-0.2,0.7-0.3c0.3-0.1,0.6-0.1,0.8-0.1
		c0.3,0,0.5,0.1,0.8,0.2c0.2,0.1,0.3,0.1,0.4,0.3c0,0,0.1,0.1,0.2,0.1c0.2,0.2,0.3,0.4,0.4,0.6l1.1-0.3l0.2,0.8l-1.1,0.3
		c0,0.3,0,0.5,0,0.8s-0.1,0.5-0.2,0.8l-1.5-0.3c0.1-0.2,0.2-0.4,0.2-0.6s0-0.4,0-0.6s-0.1-0.3-0.2-0.4s-0.3-0.2-0.5-0.1
		c-0.1,0-0.2,0.1-0.3,0.2c-0.1,0.1-0.1,0.2-0.1,0.3s-0.1,0.3-0.1,0.5l-0.2,0.7c-0.1,0.3-0.2,0.4-0.3,0.6c0,0,0,0,0,0.1
		c-0.1,0.2-0.3,0.3-0.4,0.5c-0.2,0.2-0.5,0.3-0.8,0.3c-0.3,0.1-0.6,0.1-0.9,0.1l0,0c-0.3,0-0.5-0.1-0.7-0.2s-0.4-0.2-0.6-0.4
		c0,0-0.1-0.1-0.1-0.2c-0.1-0.1-0.2-0.3-0.3-0.5h-0.1l-1.1,0.3l-0.2-0.8l1.1-0.3C97.4,165.7,97.4,165.6,97.4,165.4z M98.4,170.2
		c0.1-0.5,0.1-0.8,0.3-1H99l1.5-0.2c-0.2,0.3-0.3,0.6-0.4,0.9l-0.1,0.5c0,0.1,0,0.3,0,0.5c0,0.1,0.1,0.2,0.1,0.3
		c0.1,0.1,0.1,0.2,0.3,0.3c0.1,0.1,0.3,0.1,0.4,0.1s0.2,0,0.3,0h0.1c0.2,0,0.4-0.1,0.5-0.2l0,0c0.1-0.1,0.2-0.2,0.3-0.3
		c0.1-0.1,0.1-0.3,0.1-0.4c0-0.2,0-0.3,0-0.5s-0.1-0.4-0.2-0.6s-0.2-0.4-0.3-0.5l3.9-0.3l0.2,0.9l0.5,2.1v0.1l-0.3,0.1l-0.6,0.1
		l-0.6,0.2l-0.2-0.6l-0.3-1.2v-0.2l-0.8,0.1l0.2,0.5l0,0c0,0.2,0.1,0.3,0.1,0.5c0,0.1,0,0.2,0,0.3v0.1c-0.1,0.3-0.2,0.5-0.4,0.8
		c-0.2,0.3-0.4,0.5-0.7,0.6c-0.4,0.2-0.7,0.3-0.9,0.4c0,0,0,0-0.1,0c-0.2,0-0.4,0.1-0.6,0.1s-0.4,0-0.5,0c0,0-0.1,0-0.2,0
		s-0.3-0.1-0.4-0.1c-0.1-0.1-0.3-0.2-0.5-0.2c-0.1,0-0.1-0.1-0.2-0.1c-0.1-0.1-0.1-0.1-0.2-0.2l0,0l-0.3-0.4
		c-0.1-0.3-0.3-0.6-0.3-0.9c-0.1-0.3-0.1-0.5-0.1-0.8C98.4,170.4,98.4,170.3,98.4,170.2z M102,178.8c-0.2,0-0.4-0.1-0.6-0.1
		c-0.2-0.1-0.4-0.1-0.6-0.2s-0.3-0.2-0.4-0.3c0,0-0.1,0-0.1-0.1c-0.2-0.1-0.3-0.3-0.4-0.5s-0.2-0.4-0.2-0.6c0-0.1,0-0.2,0-0.3
		c0-0.1,0-0.2,0-0.3c0-0.1,0-0.1,0-0.2s0-0.2,0.1-0.3c0.1-0.2,0.1-0.3,0.3-0.5c0.1-0.2,0.3-0.3,0.4-0.5l0,0c0.2-0.2,0.5-0.4,1-0.7
		c0,0,0.1,0,0.1-0.1c0.3-0.1,0.7-0.3,1.3-0.5c0.1,0,0.1,0,0.3,0c0.3,0,0.7-0.1,1.2-0.1l0,0h0.6c0.2,0,0.4,0.1,0.6,0.1
		c0.1,0,0.2,0,0.2,0.1c0.1,0,0.3,0.1,0.3,0.2c0.2,0.1,0.3,0.2,0.5,0.3c0.1,0.2,0.3,0.3,0.4,0.5s0.2,0.4,0.2,0.6c0,0.1,0,0.2,0,0.3
		c0,0.1,0,0.3,0,0.4c0,0.2,0,0.4-0.1,0.6l0,0c-0.1,0.2-0.1,0.3-0.3,0.5c0,0-0.1,0.1-0.1,0.2c-0.1,0.1-0.2,0.2-0.3,0.3l0,0
		c-0.1,0.1-0.3,0.2-0.4,0.3c0,0,0,0-0.1,0l-0.6,0.3l0,0c-0.5,0.2-0.9,0.4-1.2,0.5c0,0,0,0-0.1,0c-0.6,0.1-1.1,0.1-1.4,0.1
		C102.5,178.8,102.3,178.8,102,178.8z M118.2,110.3c-0.1-0.1-0.2-0.2-0.2-0.3c-0.3-0.4-0.5-0.8-0.8-1.2c-0.1-0.2-0.2-0.3-0.3-0.5
		c-0.3-0.5-0.7-1-1-1.5c-0.2-0.3-0.4-0.5-0.6-0.8l-0.1-0.1c-0.1-0.2-0.3-0.3-0.4-0.5c0-0.1-0.1-0.1-0.1-0.2c0.1,0,0.2,0,0.3-0.1l0,0
		h0.1h0.1c0.4-0.1,0.7-0.2,1.1-0.3c0.3-0.1,0.5-0.1,0.8-0.2c0.2,0,0.3-0.1,0.5-0.1c0.1,0,0.2-0.1,0.3-0.1c0.5-0.2,1-0.4,1.4-0.6
		c0.6-0.3,1.2-0.6,1.7-0.9l0,0c0.3-0.2,0.6-0.4,0.9-0.6c0.2-0.1,0.5-0.3,0.7-0.5c0.4-0.3,0.8-0.6,1.1-0.9l0,0
		c0.4-0.3,0.8-0.7,1.1-1.1c0.2-0.2,0.3-0.3,0.4-0.5c0.2-0.3,0.5-0.6,0.7-0.9c0,0,0.1-0.1,0.1-0.2l0.1-0.1c0.8-1.1,1.3-2.2,1.7-3.3
		c0.5-1.7,0.6-3.4,0.2-5.1c-0.8-3.3-3-5.8-6.7-7.4c-0.8-0.3-1.6-0.6-2.4-0.8c-1.2-0.3-2.4-0.5-3.8-0.6c-0.8,0-1.5,0-2.3,0l0,0l0,0
		c-0.6,0-1.1,0.1-1.7,0.2c-0.5,0.1-1,0.2-1.6,0.3h-0.1c-0.5,0.1-1,0.2-1.4,0.4c-0.1,0-0.3,0.1-0.4,0.1c-0.9,0.3-1.6,0.6-2.4,0.9
		c-0.6,0.3-1.2,0.6-1.8,0.9c-0.5,0.3-0.9,0.5-1.3,0.8s-0.8,0.6-1.2,0.9s-0.8,0.7-1.2,1.1l0,0v0.1c-0.2-0.1-0.4-0.2-0.6-0.4
		c0,0-0.1,0-0.1-0.1c-0.3-0.2-0.6-0.3-0.8-0.5c-1.7-0.9-3.6-1.6-5.7-2c-1.2-0.2-2.5-0.4-3.9-0.4c-0.1,0-0.2,0-0.3,0
		c1-0.9,2-1.8,3.1-2.5c0.6-0.4,1.2-0.8,1.9-1.2c0.1,0,0.2-0.1,0.2-0.1c0.6-0.3,1.2-0.6,1.8-0.9c0.5-0.2,0.9-0.5,1.4-0.7
		s0.9-0.4,1.4-0.6c0,0,0,0,0.1,0c0.6-0.3,1.3-0.5,2-0.7c1.1-0.4,2.2-0.7,3.4-1c0.2,0,0.5-0.1,0.7-0.1c0.5-0.1,0.9-0.2,1.4-0.3
		c0.5-0.1,1-0.2,1.6-0.3c0.6-0.1,1.1-0.1,1.7-0.2c0.8-0.1,1.5-0.1,2.2-0.2c0.7,0,1.4-0.1,2.1-0.1c3.4,0,6.6,0.5,9.6,1.5
		c0.6,0.2,1.3,0.4,1.9,0.7c0.2,0.1,0.4,0.2,0.6,0.3c0.7,0.3,1.4,0.6,2,1c0.5,0.3,0.9,0.5,1.4,0.8c0.3,0.2,0.5,0.4,0.8,0.6
		c1.3,1,2.4,2.1,3.3,3.3c0.1,0.1,0.2,0.3,0.3,0.4c1,1.4,1.7,3,2.1,4.7c0,0.1,0.1,0.3,0.1,0.5c0.3,1.8,0.4,3.5,0,5.2
		c-0.2,0.8-0.4,1.6-0.7,2.3c-0.2,0.6-0.5,1.3-0.9,1.9c-0.4,0.7-0.8,1.4-1.3,2.1c-0.6,0.8-1.2,1.7-2,2.5c-0.3,0.4-0.7,0.8-1.1,1.1
		c-0.5,0.5-0.9,0.9-1.5,1.4c-0.4,0.3-0.8,0.6-1.2,1c-0.3,0.2-0.6,0.5-0.8,0.6c-0.1,0.1-0.3,0.2-0.4,0.3c-0.2,0.1-0.4,0.3-0.6,0.5
		c-0.2,0.1-0.3,0.2-0.5,0.3c-0.2,0.1-0.4,0.2-0.5,0.3c-0.4,0.2-0.8,0.5-1.2,0.7c-0.1,0-0.1,0.1-0.2,0.1c-0.3,0.2-0.7,0.4-1.1,0.6
		l0,0c-0.1,0-0.2,0.1-0.3,0.1c-0.3,0.2-0.7,0.3-1.1,0.5C119.4,109.9,118.8,110.1,118.2,110.3L118.2,110.3
		C118.3,110.4,118.2,110.4,118.2,110.3z M117.1,90.2l-1-4.4l-0.5-2l-0.3-1c0.4,0,0.8,0,1.2,0.1c0.6,0.1,1.3,0.2,1.9,0.3l0,0
		c0.8,0.2,1.5,0.5,2.2,0.8c1.5,0.6,2.7,1.4,3.6,2.4l0,0c1,1,1.6,2.2,1.9,3.6c0.3,1.5,0.3,3-0.3,4.5c0,0,0,0,0,0.1
		c-0.2,0.6-0.5,1.2-0.9,1.7c-0.2,0.4-0.5,0.8-0.8,1.1c-0.1,0.2-0.3,0.3-0.4,0.5l0,0c-0.3,0.4-0.7,0.8-1.1,1.1
		c-0.3,0.3-0.6,0.5-0.9,0.8c-0.1,0.1-0.1,0.1-0.3,0.2c-0.4,0.3-0.8,0.6-1.2,0.9c-0.1,0.1-0.3,0.1-0.4,0.3c0,0-0.1,0-0.1,0.1
		c-0.1,0-0.1,0.1-0.2,0.1l-0.1-0.5l-0.1-0.6l-1.3-5.7L117.1,90.2z M96.1,90c-1.5-0.4-2.9-0.6-4.3-0.6c-2.4,0-4.7,0.6-7,1.8
		c-0.3,0.1-0.5,0.3-0.8,0.4c-0.7,0.3-1.3,0.7-1.9,1.1c0-0.1,0.1-0.3,0.2-0.5c0.3-0.8,0.6-1.6,1.1-2.5c0.4-0.7,0.9-1.5,1.3-2.2
		c0.5-0.7,1-1.3,1.6-2l0,0c0-0.1,0.1-0.1,0.2-0.2c0,0,0.1-0.1,0.2-0.2c0.9,0,1.7,0,2.5,0c3,0.2,5.6,0.8,7.9,2
		c0.3,0.1,0.6,0.3,0.9,0.5c0.2,0.1,0.5,0.3,0.7,0.4c-0.2,0.3-0.4,0.6-0.6,0.9l0,0L98,89c0,0,0,0,0,0.1c-0.2,0.3-0.4,0.6-0.6,1
		C96.9,90.2,96.5,90.1,96.1,90z M100.5,91.8c-0.2-0.1-0.4-0.2-0.5-0.3c-0.3-0.2-0.7-0.3-1-0.5l0,0c0-0.1,0.1-0.1,0.1-0.2
		c0.2-0.3,0.4-0.6,0.6-1c0.1-0.1,0.1-0.1,0.2-0.3c0.1-0.1,0.2-0.2,0.2-0.3l0,0c0.1-0.2,0.3-0.5,0.5-0.7l0,0l0,0l0,0l0.1-0.1l0,0
		c0.2-0.3,0.5-0.5,0.7-0.8c0.2-0.2,0.5-0.4,0.7-0.6c0.4-0.3,0.8-0.6,1.2-0.9c0.4-0.3,0.8-0.6,1.3-0.8c0.6-0.3,1.2-0.6,1.8-0.9
		c0.7-0.3,1.5-0.6,2.3-0.8c0.4-0.1,0.8-0.2,1.2-0.3c0.3-0.1,0.6-0.1,0.8-0.2c0.6-0.1,1.1-0.2,1.6-0.3c0.2,0,0.3,0,0.5,0h0.1v0.1
		l0.3,1.1h-0.1l-1.5,0.5l-1.9,0.7l0,0l0.9,3.9l0.2,0.8l0.1,0.3l0.3,1.2l0.2,0.8l1.3,0.3h0.2l1.4,0.3h0.1l0,0l-0.7,0.6l0,0l-0.6,0.5
		l-0.9,0.7l-0.1,0.1l0.3,1.4l0,0l0.4,1.6l0.8,3.4l0.1,0.5h0.3l0.9-0.1l0,0l0,0l0.8-0.1h0.2l0.9-0.1h0.1h0.5l0.2,1v0.1
		c-0.2,0.1-0.4,0.2-0.6,0.2c-0.1,0-0.2,0.1-0.3,0.1c-0.1,0-0.3,0.1-0.4,0.1c-0.4,0.1-0.7,0.2-1.1,0.3c0,0,0,0-0.1,0l0,0l0,0
		c-0.1,0-0.3,0.1-0.5,0.1c-0.3,0.1-0.5,0.1-0.8,0.2c-0.2,0-0.3,0-0.5,0.1l0,0c-0.5-0.7-1-1.3-1.6-1.9c-1.1-1.3-2.2-2.5-3.3-3.6
		c-1.2-1.2-2.5-2.4-3.7-3.3C103.3,93.5,101.9,92.6,100.5,91.8z M154.8,140.2c-0.6-0.1-1.1-0.1-1.7-0.2l0,0l0,0
		c-0.6-0.1-1.1-0.1-1.7-0.1c-0.3,0-0.5,0-0.8-0.1l0,0c-0.5,0-0.9-0.1-1.4-0.1c-0.1,0-0.3,0-0.4,0c-0.3,0-0.5,0-0.8,0s-0.7,0-1,0
		s-0.6,0-0.9,0l0,0c-0.1,0-0.2-0.1-0.2-0.1c-1.6-2.2-3.4-4.4-5.4-6.6c-1.6-1.7-3.3-3.5-5.2-5.2l-1.6-1.3l-7.2-5.8l-1.7-1.4l-3.7-4.4
		c-0.2-0.4-0.5-0.7-0.7-1.1c0.2,0,0.3-0.1,0.4-0.1c0.6-0.3,1.2-0.5,1.8-0.8c0.5-0.2,0.9-0.4,1.3-0.7c0.5-0.2,0.9-0.5,1.3-0.8
		c0.3-0.1,0.6-0.3,0.8-0.5c0.2-0.1,0.4-0.3,0.6-0.4c0.1,0,0.2-0.1,0.2-0.1c0.3-0.2,0.5-0.3,0.8-0.5s0.5-0.4,0.8-0.5
		c0.1-0.1,0.3-0.2,0.5-0.3c0.4-0.3,0.8-0.6,1.2-0.9c0.5-0.4,1-0.9,1.5-1.3c0.6-0.6,1.2-1.2,1.8-1.8c0.3-0.3,0.6-0.7,0.9-1.1
		c0.5-0.6,0.9-1.2,1.4-1.8c0.3-0.5,0.7-1,1-1.5c0.3-0.6,0.6-1.2,0.9-1.7c0.4-0.9,0.8-1.8,1-2.6c0.9-3,1-6,0.3-9
		c-0.2-0.8-0.4-1.5-0.6-2.2c-0.4-1-0.8-1.9-1.4-2.9c-1.6-2.6-3.8-4.8-6.8-6.6c-0.9-0.5-1.8-1-2.7-1.4c-0.4-0.2-0.8-0.3-1.2-0.5
		c-0.3-0.1-0.5-0.2-0.8-0.3c-0.6-0.2-1.2-0.5-1.9-0.6c-0.8-0.2-1.6-0.4-2.4-0.6c-2.6-0.6-5.2-0.9-7.9-0.9c-1.4,0-2.9,0.1-4.3,0.2
		c-0.7,0.1-1.4,0.2-2.1,0.3c-0.5,0.1-1,0.2-1.6,0.3c-0.5,0.1-1.1,0.2-1.6,0.3c0,0,0,0-0.1,0c-0.6,0.1-1.3,0.3-1.9,0.5
		c-1.3,0.3-2.5,0.8-3.7,1.2c-0.6,0.2-1.3,0.5-1.9,0.8c-0.5,0.2-0.9,0.4-1.4,0.6c-0.4,0.2-0.9,0.4-1.3,0.7c-0.6,0.3-1.2,0.6-1.7,1
		c-1.5,0.9-3,2-4.3,3.1c-1.1,0.9-2.1,1.9-3,2.9c-0.1,0.1-0.2,0.2-0.3,0.3c-0.1,0.1-0.2,0.2-0.3,0.3c-0.5,0.6-0.9,1.1-1.3,1.6
		c-1,1.4-1.9,2.7-2.5,4.2c-0.5,1-0.9,2.1-1.2,3.1c-0.1,0.2-0.1,0.5-0.2,0.7c-0.1,0.6-0.2,1.1-0.3,1.7c0,0.1,0,0.1,0,0.3
		c0,0.3-0.1,0.6-0.1,0.9s0,0.5,0,0.8v0.1v0.1c0,0.3,0,0.6,0,1c-0.1,0.3-0.3,0.6-0.4,1c0,0.1-0.1,0.3-0.1,0.5
		c-0.2,0.6-0.3,1.2-0.4,1.9c0,0.2,0,0.5,0,0.6c0,0.3,0,0.7,0,1c0,0.7,0.1,1.4,0.2,2.1c0.2,1,0.4,2.1,0.8,3.3c0,0.1,0.1,0.3,0.2,0.5
		c0.1,0.3,0.2,0.6,0.3,0.8v0.1c0.1,0.3,0.2,0.6,0.4,0.9c0,0.1,0.1,0.1,0.1,0.2c0.2,0.4,0.4,0.9,0.6,1.3c0.1,0.2,0.1,0.3,0.2,0.5
		c0.3,0.6,0.6,1.3,0.9,1.9c0.3,0.5,0.6,1.1,0.9,1.6c0.9,1.6,1.9,3.3,3.1,5c0,0.1,0.1,0.1,0.1,0.2c0.2,0.2,0.3,0.4,0.5,0.7l0.1,0.1
		c0.2,0.3,0.3,0.5,0.5,0.8l0.1,0.1c0,0.1,0.1,0.1,0.1,0.2s0.1,0.1,0.2,0.2c0,0.1,0.1,0.1,0.1,0.2c0.1,0.1,0.2,0.2,0.2,0.3
		c0.3,0.3,0.5,0.7,0.8,1c0.1,0.2,0.3,0.4,0.4,0.5c0.5,0.7,1,1.3,1.5,2c0.2,0.3,0.4,0.5,0.6,0.8c0.1,0.1,0.2,0.3,0.4,0.5v0.1
		c0.1,0.1,0.1,0.1,0.2,0.2c0.7,0.8,1.4,1.5,2.1,2.2c0.2,0.2,0.4,0.4,0.6,0.6s0.4,0.4,0.6,0.6c0.1,0.1,0.1,0.1,0.2,0.2
		c0.3,0.3,0.6,0.6,0.9,0.9c0.1,0.1,0.3,0.3,0.4,0.4l0.1,0.1c0.3,0.3,0.7,0.6,1,1c0.1,0,0.1,0.1,0.2,0.1c0.5,0.4,0.9,0.8,1.4,1.2
		c1.6,1.5,3.2,2.8,4.8,4.1c0.6,0.5,1.2,0.9,1.7,1.4c1.7,1.3,3.4,2.5,5,3.7c2.5,3.1,5.1,6.4,7.5,9.9c0.4,0.6,0.8,1.2,1.2,1.8
		c1.5,2.2,3,4.5,4.4,6.8c0.4,0.6,0.8,1.3,1.2,1.9c1.1,1.8,2.1,3.6,3.2,5.5l-5.2,1.2c-1-2.1-2.3-4-3.9-5.7c-0.6-0.6-1.2-1.3-1.9-1.8
		c-1.7-1.4-3.5-2.6-5.6-3.8c-0.2-0.1-0.4-0.2-0.6-0.3c-0.9-0.4-1.8-0.8-2.7-1.2c-2.1-0.8-4.4-1.4-6.6-1.8c-0.5-0.1-1-0.1-1.5-0.2
		c-0.7-0.1-1.5-0.1-2.2-0.1c-2.2-0.1-4.4,0.1-6.8,0.4c-0.6,0.1-1.3,0.2-1.9,0.3l-1.1-4.5l-0.6-2.6l-1.8-7.6l-0.7-2V142l-0.4-1.6
		l-0.6-2.7l-0.2-0.6l-0.2-0.9l-0.1-0.3v-0.2l-0.2-0.7l-0.1-0.6v-0.1v-0.2l-0.2-0.9l-0.2-0.9v-0.2l-0.2-0.8l-0.2-0.9l-0.2-0.9
		l-1.2-5.4l-0.5-2.2v-0.2l0,0l-0.4-1.8l-0.1-0.3l-0.7-3.9l-0.5-2.1l-0.2-1l-0.1-0.3l-0.3-1.1l-0.3-1.1l-0.1-0.3l-0.2-1l-0.8-3.4
		l-0.5-2.1l-0.2-0.8l-0.5-1.9l-0.3-1.1l-0.2-0.8v-0.1l-0.2-1l0,0l-0.2-0.9l-0.1-0.6l-0.1-0.3v-0.2l-0.5-1.9l-1.7-7.1l-0.5-2.1
		l-6.4-27.7l-1.8-8l-0.1-0.3l-0.4-1.6l-0.6-2.6c0.6-0.1,1.3-0.3,1.9-0.5c0.4-0.2,0.9-0.3,1.3-0.4c0.6-0.2,1.3-0.5,1.9-0.7
		c0.4-0.2,0.8-0.3,1.2-0.5c0.1,0,0.2-0.1,0.3-0.1c0.4-0.2,0.8-0.4,1.2-0.6c0,0,0.1,0,0.2-0.1c0.1,0,0.2-0.1,0.2-0.1
		c0.5-0.3,1-0.6,1.5-0.9c0.7-0.4,1.3-0.8,1.9-1.3c0.4-0.3,0.9-0.6,1.3-1c1.1-0.9,2.2-1.8,3.2-2.9c0.5-0.5,0.9-1,1.4-1.5
		c0.3-0.4,0.6-0.8,1-1.2l0,0c0.1-0.1,0.3-0.3,0.4-0.5c0.2-0.3,0.4-0.5,0.6-0.8c0.4-0.6,0.8-1.2,1.2-1.8c1.9-3.1,3-6.3,3.5-9.6
		c0-0.2,0-0.4,0.1-0.7c0-0.3,0-0.5,0.1-0.8c0-0.5,0-1.1,0-1.6l3.9-0.9l2.5-0.6l2.4-0.6l1.5-0.3c0.4,0.8,0.8,1.6,1.3,2.4
		c0.1,0.3,0.3,0.5,0.5,0.8c0.5,0.7,1,1.4,1.7,2.1c1,1.2,2.2,2.2,3.4,3.2c0.7,0.6,1.5,1.1,2.2,1.6c0.7,0.4,1.4,0.8,2.1,1.2
		c0.1,0,0.1,0.1,0.2,0.1c0.8,0.4,1.6,0.8,2.4,1.1c5.4,2.3,11.2,3,17.4,2.1c0.6-0.1,1.3-0.2,2-0.3l12.8,55.6l0.6,2.6l3.3,14.4
		l0.3,1.4l5.6,24.1l0.5,2.2l0.4,1.7l2.2,9.7C155,140.2,154.9,140.2,154.8,140.2z M113.4,14.6c0,0.1,0.1,0.2,0.2,0.3s0.2,0.2,0.3,0.3
		s0.3,0.1,0.4,0.1s0.3,0,0.5,0s0.4-0.1,0.5-0.2c0.1-0.1,0.2-0.2,0.3-0.4c0.1-0.1,0.1-0.3,0.1-0.4c0-0.1,0-0.3,0-0.5
		s-0.1-0.4-0.2-0.6s-0.2-0.4-0.3-0.5l3.9-0.3l0.7,3.1l-1.5,0.4l-0.5-2.1l-0.8,0.1l0.2,0.5c0,0.1,0.1,0.3,0.1,0.4s0,0.3,0,0.4
		c-0.1,0.3-0.2,0.5-0.4,0.8s-0.4,0.4-0.7,0.6c-0.4,0.2-0.8,0.3-1,0.4c-0.2,0-0.4,0.1-0.6,0.1s-0.4,0-0.5,0c-0.2,0-0.4-0.1-0.5-0.1
		c-0.1-0.1-0.3-0.2-0.5-0.2c-0.2-0.1-0.3-0.2-0.4-0.3l-0.3-0.4c-0.1-0.3-0.3-0.6-0.3-0.9c-0.1-0.3-0.1-0.7-0.1-1.1
		c0.1-0.4,0.1-0.8,0.3-1l1.8-0.2c-0.2,0.3-0.3,0.6-0.4,0.9l-0.1,0.5C113.3,14.3,113.3,14.5,113.4,14.6z M113.2,19.5
		c0.1-0.2,0.1-0.3,0.3-0.5c0.1-0.1,0.3-0.3,0.4-0.4c0.2-0.2,0.6-0.4,1.1-0.7c0.3-0.2,0.7-0.3,1.3-0.4c0.3-0.1,0.8-0.1,1.4-0.2h0.7
		c0.2,0,0.5,0.1,0.6,0.1c0.2,0.1,0.4,0.2,0.6,0.2c0.2,0.1,0.3,0.2,0.5,0.3s0.3,0.3,0.4,0.4c0.1,0.2,0.2,0.4,0.2,0.6s0.1,0.4,0,0.6
		c0,0.2,0,0.4-0.1,0.6c-0.1,0.2-0.1,0.3-0.3,0.5c-0.1,0.1-0.3,0.3-0.4,0.4s-0.3,0.3-0.5,0.4l-0.6,0.3c-0.6,0.2-1,0.4-1.4,0.4
		c-0.6,0.1-1.1,0.1-1.4,0.1c-0.6,0-1.1-0.1-1.3-0.1c-0.2-0.1-0.4-0.1-0.6-0.2c-0.2-0.1-0.3-0.2-0.5-0.3s-0.3-0.3-0.4-0.4
		c-0.1-0.2-0.2-0.4-0.2-0.6c0-0.2-0.1-0.4-0.1-0.6C113.1,19.9,113.2,19.7,113.2,19.5z M117.9,8l1.1-0.3l0.2,0.8l-1.1,0.3
		c0,0.3,0,0.5,0,0.8s-0.1,0.5-0.2,0.8l-1.5-0.3c0.1-0.2,0.2-0.4,0.2-0.6c0-0.2,0-0.4,0-0.6c0-0.2-0.1-0.3-0.2-0.4s-0.3-0.1-0.5-0.1
		c-0.1,0-0.2,0.1-0.3,0.2c-0.1,0.1-0.1,0.1-0.1,0.3s-0.1,0.3-0.2,0.5l-0.1,0.7c-0.1,0.3-0.2,0.4-0.3,0.6s-0.3,0.4-0.5,0.5
		c-0.2,0.2-0.5,0.3-0.8,0.3c-0.3,0.1-0.6,0.1-0.9,0.1s-0.5-0.1-0.7-0.2c-0.2-0.1-0.4-0.2-0.6-0.4s-0.3-0.4-0.5-0.6l-1.2,0.3
		l-0.2-0.8l1.1-0.3c0-0.1,0-0.3,0-0.5V8.9V8.5c0.1-0.5,0.3-0.9,0.4-1.1l1.5,0.3c-0.2,0.3-0.3,0.5-0.4,0.8l0,0L112,8.9
		c0,0.2,0,0.3,0,0.4c0,0.2,0.2,0.3,0.3,0.4c0.2,0.1,0.4,0.2,0.6,0.1c0.1,0,0.2-0.1,0.3-0.2c0.1-0.1,0.1-0.2,0.2-0.3
		c0-0.4,0.1-0.7,0.1-0.9l0.1-0.3V7.9c0.1-0.2,0.1-0.3,0.3-0.5c0.1-0.1,0.3-0.3,0.5-0.4c0.2-0.1,0.5-0.2,0.7-0.3
		c0.3-0.1,0.6-0.1,0.8-0.1s0.5,0.1,0.8,0.2c0.2,0.1,0.5,0.2,0.6,0.4l0,0C117.7,7.6,117.9,7.8,117.9,8z M69.3,17.7
		c0.3,0,0.5,0.1,0.8,0.2c0.2,0.1,0.3,0.2,0.5,0.3l0.1,0.1l0,0c0.2,0.2,0.3,0.4,0.4,0.6h0.1l1.1-0.3l0.2,0.7l0,0l0,0l-1.1,0.3
		c0,0.1,0,0.3,0,0.4c0,0.1,0,0.2,0,0.3l0,0c0,0.3-0.1,0.5-0.2,0.7l-1.1-0.2H70h-0.3c0.1-0.2,0.2-0.4,0.2-0.6s0-0.4,0-0.6
		c0-0.1-0.1-0.2-0.2-0.3l-0.1-0.1c-0.1-0.1-0.3-0.2-0.5-0.1c-0.1,0-0.2,0.1-0.3,0.1c-0.1,0.1-0.1,0.1-0.1,0.3c0,0.1-0.1,0.1-0.1,0.3
		c0,0.1,0,0.2-0.1,0.3l-0.1,0.7c-0.1,0.3-0.2,0.4-0.3,0.6c-0.1,0.1-0.1,0.2-0.2,0.3s-0.2,0.1-0.3,0.2c-0.2,0.1-0.5,0.3-0.8,0.3
		c-0.2,0-0.3,0.1-0.5,0.1c-0.1,0-0.3,0-0.4,0c-0.3,0-0.5-0.1-0.7-0.2c-0.2-0.1-0.4-0.2-0.5-0.4l0,0c-0.1-0.1-0.2-0.1-0.2-0.3
		c-0.1-0.1-0.2-0.2-0.3-0.4L63,21.3l-0.2-0.8l1.1-0.3c0-0.1,0-0.3,0-0.5v-0.1v-0.2v-0.3c0.1-0.5,0.3-0.9,0.4-1.1l1.5,0.3
		c0,0.1-0.1,0.2-0.2,0.3c-0.1,0.2-0.2,0.3-0.2,0.5l0,0l-0.1,0.4c0,0.2,0,0.3,0,0.4c0,0.2,0.1,0.3,0.3,0.4s0.3,0.2,0.4,0.2h0.1
		c0,0,0,0,0.1,0s0.2-0.1,0.3-0.2l0,0c0,0,0,0,0-0.1s0.1-0.1,0.1-0.3c0-0.4,0.1-0.7,0.2-0.9l0.1-0.3v-0.2c0.1-0.2,0.2-0.3,0.3-0.5
		c0.1-0.1,0.2-0.2,0.3-0.3c0,0,0.1-0.1,0.2-0.1c0.2-0.1,0.4-0.2,0.7-0.3c0.1,0,0.1,0,0.2,0C68.8,17.7,69,17.7,69.3,17.7z M70.9,28.1
		h0.7c0.2,0,0.5,0.1,0.6,0.1c0.2,0.1,0.4,0.1,0.6,0.2c0.2,0.1,0.3,0.2,0.5,0.3s0.3,0.3,0.4,0.4c0.1,0.2,0.2,0.4,0.2,0.6
		c0,0.2,0.1,0.4,0,0.6c0,0.2,0,0.4-0.1,0.6c-0.1,0.2-0.1,0.3-0.3,0.5c-0.1,0.1-0.3,0.3-0.4,0.4c-0.2,0.1-0.3,0.3-0.5,0.4L72,32.5
		c-0.3,0.1-0.6,0.3-0.9,0.3c-0.2,0.1-0.3,0.1-0.5,0.1c-0.6,0.1-1.1,0.2-1.4,0.2c-0.3,0-0.6,0-0.9-0.1c-0.2,0-0.3,0-0.4-0.1
		c-0.2-0.1-0.4-0.1-0.6-0.2c-0.2-0.1-0.3-0.2-0.5-0.3s-0.3-0.3-0.4-0.4c0-0.1-0.1-0.2-0.1-0.3s-0.1-0.2-0.1-0.3
		c0-0.2-0.1-0.4-0.1-0.6c0-0.1,0-0.2,0-0.3s0-0.2,0.1-0.3c0.1-0.2,0.2-0.3,0.3-0.5c0.1-0.1,0.2-0.2,0.3-0.3c0,0,0.1-0.1,0.2-0.1
		c0.2-0.2,0.6-0.4,1.1-0.7c0.3-0.1,0.7-0.3,1.2-0.4h0.1C69.8,28.1,70.2,28.1,70.9,28.1z M71.2,26.6l-0.1-0.5V26l-0.3-1.5h-0.6h-0.3
		v0.1L70,25c0,0.1,0.1,0.3,0.1,0.4c0,0.2,0,0.3,0,0.4c0,0.2-0.1,0.4-0.3,0.6c0,0.1-0.1,0.1-0.1,0.2c-0.1,0.1-0.2,0.2-0.3,0.3
		c-0.2,0.1-0.3,0.2-0.5,0.3c-0.1,0.1-0.2,0.1-0.3,0.1c-0.3,0.1-0.5,0.2-0.7,0.2s-0.4,0.1-0.6,0.1s-0.4,0-0.5,0c0,0,0,0-0.1,0
		c-0.2,0-0.3-0.1-0.5-0.1c-0.1-0.1-0.3-0.1-0.5-0.2c-0.1-0.1-0.2-0.2-0.3-0.3l0,0l-0.3-0.4v-0.1c-0.1-0.2-0.2-0.5-0.3-0.8l0,0
		c-0.1-0.3-0.1-0.7-0.1-1c0-0.1,0-0.1,0-0.1c0-0.3,0.1-0.5,0.1-0.7c0-0.1,0-0.1,0.1-0.2h0.3l1.5-0.1c-0.1,0.1-0.1,0.2-0.2,0.3
		c-0.1,0.2-0.2,0.4-0.2,0.6v0.3v0.1c0,0.2,0,0.3,0,0.5c0,0.1,0.1,0.2,0.1,0.3s0.1,0.1,0.2,0.2c0,0,0.1,0,0.1,0.1
		c0.1,0,0.2,0.1,0.3,0.1h0.1c0.2,0,0.3,0,0.5,0s0.4-0.1,0.5-0.2c0.1-0.1,0.2-0.2,0.3-0.4c0-0.1,0.1-0.2,0.1-0.3l0,0v-0.1
		c0-0.1,0-0.3,0-0.5s-0.1-0.4-0.2-0.6c0-0.1-0.1-0.2-0.2-0.3c0-0.1-0.1-0.1-0.1-0.2h0.6l3.2-0.3H72l0.1,0.6l0.4,1.8l0.1,0.7L72,26.4
		L71.2,26.6z M219.1,247.9c9.7-10.4,20.9-19.5,33.4-27.4c0.6-0.4,1.2-0.8,1.8-1.1c1.6-1,3.2-2,4.9-2.9L351,321.4L222.4,352
		l-32.2-61.8c5-10.3,10.8-19.9,17.5-28.7c0.5-0.6,0.9-1.2,1.4-1.8C212.2,255.6,215.5,251.7,219.1,247.9z"/>
</g>
</svg>
