<?xml version="1.0" encoding="utf-8"?>
<!-- Generator: Adobe Illustrator 19.2.1, SVG Export Plug-In . SVG Version: 6.00 Build 0)  -->
<svg version="1.1" id="Layer_1" xmlns="http://www.w3.org/2000/svg" xmlns:xlink="http://www.w3.org/1999/xlink" x="0px" y="0px"
	 viewBox="0 0 473.4 447.4" style="enable-background:new 0 0 473.4 447.4;" xml:space="preserve">
<style type="text/css">
	.st0{fill:#FFFFFF;}
</style>
<g>
	<polygon class="st0" points="231.6,6.1 251.4,1.6 208.2,0 207.8,11.5 213.1,10.4 	"/>
	<path class="st0" d="M275.6,12.9l0.8,3.4l5.5,0.1c0.3,1.7,0.8,3.3,1.3,4.8h0.3l6.8,0.7l10.5,1l6.2,0.7c0-0.3,0.1-0.5,0.1-0.7
		c0.3-0.7,0.7-1.2,0.9-1.6l2.9,0.5c-0.4,0.4-0.8,0.8-1,1.3l-0.3,0.8l0,0l3.7,0.4c0,0,0,0,0-0.1c0-0.4,0-0.7-0.1-0.9
		c0-0.4-0.1-0.7-0.4-0.9l6.5,0.8v1.4l1,0.1l6.8,0.7l5.2,0.5l5.2,0.5l0.8-21.9l-54.2-1.8l0,0l-10.9-0.4l1.2,5.2L275.6,12.9z
		 M305.5,15.5l1.8,0.1c0-0.3,0-0.5,0.1-0.9l0.3-0.7v-0.1c0.4-0.8,0.8-1.3,1-1.6l2.4,1.2c-0.3,0.1-0.4,0.4-0.7,0.7
		c-0.1,0.1-0.3,0.3-0.4,0.5l-0.3,0.7c-0.1,0.3-0.1,0.4-0.1,0.7s0.1,0.7,0.3,0.8c0.3,0.3,0.5,0.4,0.9,0.4c0.3,0,0.4,0,0.5-0.1
		s0.3-0.3,0.4-0.5c0.3-0.7,0.5-1,0.7-1.4l0.4-0.8c0-0.1,0.1-0.1,0.1-0.1c0.1-0.1,0.3-0.4,0.4-0.5c0.3-0.3,0.5-0.4,0.9-0.4
		c0.4-0.1,0.8-0.1,1.3-0.1s0.9,0.1,1.3,0.3c0.4,0.1,0.8,0.4,1.2,0.7c0.1,0.1,0.3,0.3,0.5,0.4c0.1,0.1,0.3,0.3,0.4,0.5
		c0.3,0.4,0.3,0.8,0.4,1.2l2,0.1v1.2l-2-0.1c0,0.4-0.1,0.9-0.3,1.3c-0.1,0.4-0.4,0.8-0.7,1.2l-2.2-1c0.3-0.3,0.4-0.5,0.5-0.8
		s0.3-0.5,0.3-0.9c0-0.3,0-0.7-0.1-0.8c-0.1-0.3-0.4-0.4-0.7-0.4c-0.1,0-0.3,0-0.5,0.1c-0.1,0.1-0.3,0.1-0.4,0.4
		c-0.1,0.1-0.3,0.4-0.5,0.8l-0.5,1c-0.3,0.4-0.4,0.7-0.7,0.9c-0.3,0.3-0.7,0.5-0.9,0.7c-0.4,0.1-0.9,0.3-1.4,0.3s-1-0.1-1.4-0.3
		s-0.8-0.4-1-0.7c-0.3-0.3-0.5-0.5-0.8-0.9c-0.1-0.4-0.4-0.8-0.5-1.2l-2-0.1L305.5,15.5z"/>
	<path class="st0" d="M350.7,64.2c-0.4-0.1-0.8-0.3-1.2-0.4l-1-0.1c-1,0-1.8,0-2.4,0.1c-0.4,0.1-0.8,0.3-1,0.4
		c-0.3,0.3-0.5,0.5-0.5,0.8s0.1,0.7,0.4,0.9c0.3,0.3,0.5,0.4,0.9,0.7c0.5,0.3,1.3,0.4,2.2,0.5h1c0.4,0,0.9-0.1,1.2-0.1
		c0.4-0.1,0.8-0.3,1-0.4c0.3-0.3,0.5-0.5,0.5-0.8s-0.1-0.7-0.4-0.9C351.4,64.6,351.1,64.3,350.7,64.2z"/>
	<polygon class="st0" points="312.1,163 312.9,163 313,161.6 313,161.2 313,161.2 313,160.9 309.6,159.9 309.6,160.1 310.3,163 
		311.8,163 	"/>
	<path class="st0" d="M175.6,56.7c-0.3-0.1-0.7-0.3-1-0.3s-0.8,0-1.3,0l-1,0.1c-0.9,0.3-1.7,0.5-2.2,0.8c-0.4,0.3-0.7,0.5-0.9,0.7
		c-0.3,0.3-0.3,0.7-0.3,0.9c0.1,0.3,0.3,0.5,0.5,0.7s0.7,0.3,1,0.3c0.5,0,1.3,0,2.4-0.3l1-0.3c0.4-0.1,0.8-0.4,1.2-0.5
		c0.4-0.3,0.7-0.5,0.8-0.8c0.3-0.3,0.3-0.5,0.3-0.9C176.1,57.2,175.9,57,175.6,56.7z"/>
	<path class="st0" d="M253.1,38.9c-0.3-0.1-0.7-0.3-1-0.3s-0.8,0-1.3,0l-0.9,0.1h-0.1c-0.9,0.3-1.7,0.5-2.2,0.8
		c-0.4,0.3-0.7,0.5-0.9,0.7c-0.3,0.3-0.3,0.7-0.3,0.9c0.1,0.3,0.3,0.5,0.5,0.7c0.3,0.1,0.7,0.3,1,0.3c0.4,0,0.8,0,1.4-0.1
		c0.3,0,0.5-0.1,0.9-0.1l1-0.3c0.4-0.1,0.8-0.4,1.2-0.5c0.4-0.3,0.7-0.5,0.8-0.8c0.3-0.3,0.3-0.5,0.3-0.9
		C253.6,39.3,253.3,39,253.1,38.9z"/>
	<polygon class="st0" points="239.4,147.8 238.1,148.2 239,152.3 240.7,159.9 243.5,160.4 245.7,160.8 243.2,162.6 242.7,163 
		243.2,163 246.6,163 249.5,163 250.2,163 251,163 251,163 251.6,163 251.5,162.1 251.5,162.1 250.6,158.3 250.2,156.7 249.5,154 
		248.7,150.6 247.4,144.7 246.9,142.6 246.9,142.3 246.8,142.3 245.2,142.3 243,142.5 243.1,142.7 243.5,144.7 243.9,146.3 	"/>
	<path class="st0" d="M236.4,156.6c0-0.1,0-0.3-0.1-0.4s-0.3-0.1-0.5-0.1c-0.1,0-0.4,0-0.5,0.1s-0.3,0.3-0.3,0.4
		c-0.1,2.2,0,4.3,0.5,6.4h1.4C236.4,160.9,236.3,158.8,236.4,156.6z"/>
	<path class="st0" d="M402.9,284.1c-2.7,0-5,0.9-6.9,2.9c-2,2-2.9,4.2-2.9,6.9v11.5c0,2.7,0.9,5,2.9,6.9c2,2,4.2,2.9,6.9,2.9
		c2.7,0,5-0.9,6.9-2.9c2-2,2.9-4.2,2.9-6.9v-11.5c0-2.7-0.9-5-2.9-6.9C407.9,285.1,405.7,284.1,402.9,284.1z M408.8,305.6
		c0,1.7-0.5,3-1.7,4.2s-2.5,1.7-4.2,1.7s-3-0.5-4.2-1.7s-1.7-2.5-1.7-4.2v-11.5c0-1.7,0.5-3,1.7-4.2s2.5-1.7,4.2-1.7s3,0.5,4.2,1.7
		s1.7,2.5,1.7,4.2V305.6z"/>
	<path class="st0" d="M396.7,262.1c4.1,0.1,7.6-1.8,10.5-5.6c2.5-3.5,3.8-7.7,3.8-12.4c0-4.8-1.3-9-3.8-12.4
		c-2.9-3.9-6.4-5.9-10.5-5.8c-4.1-0.1-7.6,1.8-10.5,5.8c-2.6,3.4-3.8,7.6-3.8,12.4s1.3,9,3.8,12.4
		C389.1,260.4,392.6,262.2,396.7,262.1z"/>
	<path class="st0" d="M366.3,284.1c-2.7,0-5,0.9-6.9,2.9c-0.4,0.4-0.7,0.8-1,1.2c-1.3,1.7-1.8,3.5-1.8,5.8v11.5c0,0.5,0,0.9,0.1,1.4
		c0.3,2.1,1.2,3.9,2.7,5.5c2,2,4.2,2.9,6.9,2.9c2.7,0,5-0.9,6.9-2.9c2-2,2.9-4.2,2.9-6.9V294c0-2.7-0.9-5-2.9-6.9
		C371.3,285.1,369,284.1,366.3,284.1z M372.2,305.6c0,1.7-0.5,3-1.7,4.2s-2.5,1.7-4.2,1.7s-3-0.5-4.2-1.7s-1.7-2.5-1.7-4.2v-11.5
		c0-1.7,0.5-3,1.7-4.2s2.5-1.7,4.2-1.7s3,0.5,4.2,1.7s1.7,2.5,1.7,4.2V305.6z"/>
	<path class="st0" d="M407.7,271.9h-47.1c-0.3,0-0.4,0-0.7,0c-2.5,0-4.7,0.4-6.9,1c-2,0.5-3.8,1.3-5.5,2.2c-1.6,0.9-3.1,2-4.6,3.3
		c-0.4,0.3-0.7,0.7-1,0.9c-0.1,0.1-0.4,0.4-0.5,0.5c-1.2,1.2-2.2,2.4-3.1,3.7c-1.2,1.7-2.2,3.5-3,5.4c-0.5,1.2-0.8,2.4-1,3.5
		c-0.1,0.4-0.3,0.8-0.3,1.2c-0.1,0.8-0.3,1.7-0.4,2.5c0,0.1,0,0.3,0,0.4v0.1c0,0.8-0.1,1.6-0.1,2.5c0,1.6,0.1,3.1,0.4,4.6
		c0.7,4.2,2.2,8,4.8,11.4c0.9,1.2,1.8,2.2,2.9,3.3c0.7,0.7,1.3,1.2,2,1.8c1.6,1.3,3.3,2.4,5,3.3c2.1,1,4.3,1.8,6.7,2.4
		c1.8,0.4,3.8,0.5,5.8,0.5h47.1c7.6,0,14-2.6,19.4-8c5.4-5.4,8-11.8,8-19.4c0-7.6-2.6-14-8-19.4
		C421.7,274.5,415.3,271.9,407.7,271.9z M422.3,313.9c-4.1,4.1-9,6.2-14.7,6.2h-47.1c-1.8,0-3.5-0.3-5.1-0.7c-2.4-0.5-4.6-1.6-6.5-3
		c-1-0.7-2-1.6-2.9-2.5c-0.7-0.7-1.3-1.4-1.8-2.2c-2.5-3.3-3.9-6.9-4.2-11.1c0-0.5,0-0.9,0-1.4c0-1.4,0.1-2.7,0.4-4.1
		c0.1-0.5,0.3-1,0.4-1.4l0,0c0.9-3.4,2.7-6.4,5.4-9.2c0.3-0.3,0.5-0.5,0.8-0.7c1.7-1.6,3.5-2.9,5.6-3.8c2.2-0.9,4.6-1.4,7.1-1.7
		c0.4,0,0.8,0,1.3,0h47.1c5.8,0,10.6,2.1,14.7,6.2c4.1,4.1,6,8.9,6,14.7C428.5,304.9,426.4,309.9,422.3,313.9z"/>
	<path class="st0" d="M336.6,262.1c0.1,0,0.3,0,0.4,0c2.5,0,4.7-0.7,6.7-2c1.3-0.9,2.6-2.1,3.8-3.7c0.9-1.2,1.6-2.5,2.2-3.9
		c1-2.6,1.6-5.5,1.6-8.6c0-1.6-0.1-3-0.4-4.3c-0.5-3-1.7-5.8-3.4-8.1c-0.3-0.4-0.7-0.8-0.9-1.2c-2-2.2-4.1-3.7-6.4-4.2
		c-0.9-0.3-1.7-0.3-2.7-0.3c-0.1,0-0.3,0-0.4,0c-2.4,0-4.6,0.7-6.5,2c-1.4,0.9-2.6,2.2-3.8,3.8c-0.1,0.1-0.3,0.4-0.4,0.5
		c-0.5,0.7-0.9,1.4-1.3,2.1c-1.4,2.9-2.2,6.2-2.2,9.8c0,1.3,0.1,2.5,0.3,3.7c0.3,1.7,0.7,3.4,1.3,4.8s1.3,2.7,2.2,4.1
		c0.9,1.2,1.7,2.1,2.7,2.9c1.2,0.9,2.4,1.7,3.8,2.1c0.9,0.3,2,0.5,3,0.5C336.2,262.1,336.4,262.1,336.6,262.1z"/>
	<path class="st0" d="M438.9,197.2c-19.5-19.5-42.4-30.5-68.7-33.4c-2.2-0.3-4.6-0.4-6.8-0.5l12-126.3L344,34l-6.8-0.7l-5.2-0.5
		l-5.2-0.5l-5.4-0.5l0,0l-1.6-0.1l-2.6-0.3l-7.7-0.8l-19.9-1.8l-3.4-0.3l-7.2-0.7l0.1,0.7l1,4.7l1.2,5.4l3.7,15.8l2,8.6
		c3-2.4,5.6-5,7.9-7.7c2.7-3.4,4.7-7.2,6-11.4c0-0.1,0-0.1,0.1-0.1l17.3,1.7c0.1,1.6,0.5,3,0.8,4.5c0.1,0.8,0.4,1.4,0.7,2.2
		c0.7,2,1.4,3.9,2.4,5.9c0.9,1.8,2.1,3.7,3.4,5.5c1.4,2,3,3.9,4.8,5.8l0.1,0.1c1.6,1.7,3.3,3.1,5.1,4.6c2.1,1.7,4.3,3.1,6.7,4.5
		c3.5,2,7.2,3.5,11.1,4.7c2.2,0.7,4.5,1.2,6.7,1.6l-7.5,78.5h-6.8H344c-1.2-2.1-2.7-4.1-4.5-6c-1.3-1.4-2.7-2.9-4.5-4.3
		c-0.8-0.7-1.4-1.2-2.2-1.8c-1.7-1.3-3.4-2.5-5.1-3.5s-3.4-2-5.1-2.7c-0.3-0.1-0.5-0.3-0.8-0.4c-2-0.9-3.9-1.7-6-2.4
		c-0.4-0.1-0.8-0.3-1.3-0.4l0,0c-2.5-0.8-5.1-1.4-7.9-2c-0.7-0.1-1.4-0.3-2.2-0.4l0.9,4.2l0.9,4.2c0.9,0.3,2,0.4,2.9,0.7
		c2.1,0.5,4.2,1.2,6.2,2c0.1,0,0.1,0,0.3,0.1l0,0c2.2,0.8,4.2,1.8,6.2,2.9c0.1,0,0.3,0.1,0.3,0.1c1.8,1,3.5,2.1,5.1,3.3
		c0.9,0.7,1.7,1.3,2.5,2c0.9,0.8,1.7,1.6,2.5,2.4c0.7,0.7,1.3,1.3,1.8,2h-2h-5.2h-4.7c-0.1-0.1-0.4-0.3-0.5-0.4
		c-0.7-0.5-1.3-0.9-2-1.4c-1.4-0.9-3-1.8-4.7-2.5c-0.4-0.1-0.7-0.3-1-0.4c0,0,0,0-0.1,0c-1.7-0.7-3.7-1.2-5.5-1.6l0.8,3.3l3.5,1v0.3
		v0.1v0.3l-0.1,1.6h-1.1h-0.3h-1.6h-1.3h-1.4h-3.5h-0.8l-0.1-0.7l-0.8-3.3l-0.8-3.3l-0.1-0.5l-2.1-8.9l-0.9-4.1l-0.9-4.1l-0.3-1.2
		l-2.1-8.9l-2-8.4l-1.8-7.7l-10.5-45.3L277,53.9l-0.1-0.5l-2-8.2l-0.4-1.7l-1.2-5.4l-0.3-1.2l-0.9-4.2l-1.2-5.4l-1.6-7.1l-0.1-0.5
		l-0.8-3.5l-0.8-3.3l-1.2-5.2l-0.5-2.4l-8.8,2.1l-3.4,0.8l-14.8,3.4l-0.8,0.1l-5.4,1.2l-2.4,0.5l-2.7,0.7l-9.6,2.2l-5.2,1.2
		l-5.2,1.2l-6.9,1.6l-60.6,14l29.7,128.8c-2.4,0-4.7,0.1-6.9,0.3c-28.8,1.7-53.7,13-74.5,33.8c-22.8,22.8-34,50.3-34,82.3v17.3
		c0,13.5,2.1,26.2,6,38.1c-0.4,0.8-0.7,1.7-1.2,2.5c-2.4,4.1-5.8,6.2-10.2,6.2c-2.6,0-5-0.4-7.1-1.3c5.4-2.7,8.8-6.8,10.1-12.2l0,0
		c0.9-3.4,1-7.1,0-11.1l-1.6-4.6v-0.1c-0.5-2.7-1.4-5.4-2.6-8.1c-3-6.9-6.7-10.2-11-9.8c-4.7,0-8.2,1.3-10.6,3.9
		c-2.5,2.4-3.7,5.9-3.7,10.3c0,12.6,2.1,22.1,6.3,28.5c-2.7,0.4-5.9,0.7-9.2,0.7h-0.1c-3,0-5.9-1.4-8.6-4.5
		c-6.3-7.2-8.4-20-6.3-38.5l0.3-3.3c-6.9,22.8-6.5,38.2,1.2,46.2c4.3,4.6,8.9,6.8,13.6,6.5c5.4,0,10.2-0.4,14.3-1.3
		c3.9,3.3,8.9,5,15.1,5c6,0,10.9-2.4,14.4-7.2c5.6,13.2,14,25.3,25,36.3c22.8,22.8,50.3,34.2,82.5,34.2h33.8v10.2
		c0,6.5,2.4,12.2,6.9,16.8c4.7,4.7,10.3,7.1,16.9,7.1c2.1,0,4.1-0.3,5.9-0.7c4.2-0.7,7.7-2.6,10.9-5.8l0,0c2.1-2.1,3.7-4.5,4.7-7.1
		c1.6-3.1,2.4-6.5,2.4-10.2v-10.2h63.9v10.2c0,6.5,2.4,12.2,6.9,16.8c4.7,4.7,10.3,7.1,16.9,7.1c6.5,0,12.2-2.4,16.8-6.9l0,0
		c4.7-4.6,6.9-10.2,6.9-16.8v-10.3c29.2-1.6,54.2-12.8,75.3-34c22.8-22.8,34.2-50.1,34.2-82.3v-17.3
		C473.1,247.4,461.7,220,438.9,197.2z M354.6,65.9c0,0.4-0.1,0.7-0.3,1c-0.1,0.3-0.3,0.7-0.5,0.8c-0.3,0.3-0.4,0.5-0.7,0.7
		c-0.3,0.1-0.5,0.4-0.9,0.5c-0.3,0.1-0.7,0.3-1,0.4l-1,0.3c-1,0.1-1.8,0.1-2.4,0c-1-0.1-1.8-0.3-2.2-0.5c-0.9-0.4-1.6-0.7-2-0.9
		c-0.3-0.3-0.5-0.4-0.8-0.7l0,0c-0.3-0.3-0.4-0.5-0.5-0.8s-0.3-0.7-0.4-0.9c0-0.4-0.1-0.7,0-1c0-0.4,0.1-0.7,0.3-1
		c0.1-0.4,0.3-0.7,0.5-0.8c0.1-0.1,0.3-0.3,0.4-0.4c0.1-0.1,0.1-0.1,0.3-0.3c0.3-0.1,0.5-0.4,0.9-0.5s1.2-0.4,2.1-0.5
		c0.5-0.1,1.3-0.1,2.4,0c0.5,0,1.3,0.3,2.2,0.5l1,0.4c0.4,0.1,0.7,0.4,0.9,0.5c0.3,0.3,0.5,0.4,0.8,0.7s0.4,0.5,0.5,0.8
		s0.3,0.7,0.4,0.9C354.6,65.1,354.6,65.5,354.6,65.9z M354.8,59.6l-2.6-0.3l0.4-3.4l-1.3-0.3v0.8c0,0.3,0,0.5-0.1,0.8
		c0,0.3-0.1,0.4-0.3,0.7c-0.3,0.4-0.5,0.8-1,1c-0.4,0.3-0.9,0.5-1.4,0.7c-0.8,0.1-1.3,0.1-1.7,0.1c-0.3,0-0.7-0.1-0.9-0.1
		c-0.3-0.1-0.5-0.3-0.8-0.4c-0.3-0.1-0.5-0.3-0.8-0.5c-0.3-0.1-0.4-0.4-0.7-0.7c-0.1-0.1-0.3-0.4-0.3-0.5s-0.1-0.1-0.1-0.1l-0.3-0.8
		c-0.1-0.5-0.1-1,0-1.6c0-0.7,0.1-1.2,0.4-1.7c0-0.1,0.1-0.1,0.1-0.3c0.3-0.5,0.5-1,0.8-1.3l2.9,0.7c-0.5,0.4-0.8,0.8-1,1.2
		l-0.4,0.7c-0.1,0.3-0.1,0.5-0.1,0.8s0,0.4,0,0.7s0.1,0.4,0.3,0.5c0.1,0.1,0.4,0.3,0.5,0.4c0.3,0.1,0.4,0.1,0.7,0.3
		c0.4,0,0.7,0,0.9-0.1c0.3-0.1,0.5-0.3,0.7-0.5c0.1-0.1,0.3-0.4,0.4-0.7s0.1-0.5,0.1-0.8c0-0.4,0-0.7,0-0.9c0-0.4-0.1-0.7-0.3-1
		l6.3,1.4L354.8,59.6z M357.8,48.6l-2-0.1c-0.1,0.4-0.3,0.9-0.4,1.2c-0.1,0.4-0.4,0.8-0.8,1l-2.2-1.2c0.3-0.3,0.5-0.5,0.7-0.8
		c0.1-0.3,0.3-0.5,0.3-0.9c0-0.3,0-0.7-0.1-0.8c-0.1-0.3-0.4-0.4-0.7-0.4c-0.1,0-0.3,0-0.5,0.1c-0.1,0.1-0.3,0.1-0.4,0.3
		c-0.1,0.1-0.3,0.4-0.5,0.8l-0.5,1c-0.3,0.4-0.5,0.7-0.8,0.8c-0.3,0.3-0.7,0.4-1,0.5s-0.9,0.1-1.4,0.1s-1-0.1-1.4-0.4
		c-0.4-0.1-0.8-0.4-1-0.7c-0.3-0.3-0.5-0.5-0.7-0.9s-0.3-0.8-0.4-1.2h-0.5l-1.6-0.1l0.1-1.2l1.4,0.1h0.4c0-0.3,0.1-0.5,0.3-0.9
		l0.3-0.7v-0.1c0.4-0.8,0.9-1.2,1.2-1.4l2.2,1.3c-0.3,0.1-0.4,0.4-0.7,0.5c-0.1,0.1-0.3,0.3-0.4,0.5l-0.4,0.7
		c-0.1,0.3-0.1,0.4-0.1,0.7s0,0.7,0.1,0.9c0.3,0.3,0.5,0.5,0.8,0.5s0.4,0,0.5-0.1s0.3-0.3,0.4-0.4c0.3-0.5,0.5-1,0.7-1.4l0.5-0.7
		c0-0.1,0.1-0.1,0.1-0.1c0.1-0.1,0.3-0.4,0.5-0.4c0.3-0.1,0.5-0.3,0.9-0.4c0.4-0.1,0.8-0.1,1.3-0.1c0.4,0,0.9,0.1,1.3,0.3
		c0.4,0.1,0.8,0.4,1,0.7c0.1,0.1,0.3,0.3,0.4,0.4c0.1,0.1,0.3,0.3,0.3,0.5c0.1,0.4,0.3,0.8,0.3,1.2l2,0.1L357.8,48.6z M35,336.7
		c-3.9-5.6-5.9-14.4-5.9-25.9c0-2.5,0.7-4.3,1.8-5.8c1.3-1.3,3.3-2,5.9-2c1.7,0.3,3.4,2.2,5,5.9c1,2.4,1.8,4.8,2.4,7.2l1.6,4.6
		c0.7,2.9,0.7,5.5,0,7.9l0,0c-1.3,4.3-4.6,7.5-9.9,9.2C35.5,337.4,35.2,337.1,35,336.7z M255.3,37.2L255.3,37.2
		c0.3,0.3,0.5,0.5,0.7,0.8c0.1,0.3,0.3,0.7,0.4,1c0.1,0.4,0.1,0.7,0.1,1c0,0.4-0.1,0.7-0.3,0.9c-0.1,0.3-0.3,0.5-0.5,0.9
		c-0.1,0.3-0.4,0.5-0.7,0.8c-0.1,0.1-0.1,0.1-0.3,0.3c-0.1,0.1-0.4,0.3-0.5,0.4l-0.9,0.5c-0.9,0.4-1.7,0.7-2.2,0.8
		c-0.7,0.1-1.3,0.3-1.7,0.3c-0.3,0-0.4,0-0.7,0c-1,0-1.7-0.1-2.2-0.3c-0.4-0.1-0.7-0.3-0.9-0.4s-0.5-0.4-0.8-0.5
		c-0.3-0.3-0.4-0.4-0.5-0.7c0,0,0,0,0-0.1c-0.1-0.3-0.3-0.7-0.4-1c0-0.1,0-0.1,0-0.3c0-0.3-0.1-0.5-0.1-0.8c0-0.4,0.1-0.7,0.3-0.9
		c0.1-0.3,0.3-0.5,0.5-0.9c0.1-0.1,0.1-0.1,0.3-0.3c0.1-0.1,0.3-0.3,0.4-0.5c0.4-0.3,0.9-0.7,1.8-1.2c0.4-0.3,1.2-0.5,2.2-0.8
		c0.3,0,0.7-0.1,1-0.1c0.4,0,0.8-0.1,1.3-0.1h0.1h1c0.4,0,0.7,0.1,1,0.3c0.4,0.1,0.7,0.3,0.9,0.4C254.8,36.8,255,37.1,255.3,37.2z
		 M254.4,33l-2.5,0.5l-0.8-3.3v-0.1l-1.3,0.1l0.3,0.8c0.1,0.3,0.1,0.5,0.1,0.8s0,0.5,0,0.7c-0.1,0.5-0.3,0.9-0.7,1.3
		c-0.3,0.4-0.7,0.8-1.2,1c-0.7,0.4-1.2,0.5-1.6,0.7c-0.3,0.1-0.7,0.1-0.9,0.1s-0.5,0-0.8,0l0,0c-0.3,0-0.7-0.1-0.9-0.3
		c-0.3-0.1-0.5-0.3-0.8-0.4c-0.3-0.1-0.4-0.3-0.7-0.5l-0.4-0.7c-0.3-0.4-0.4-0.9-0.5-1.4s-0.1-1.2-0.1-1.7c0.1-0.8,0.3-1.3,0.4-1.7
		l2.9-0.3c-0.4,0.5-0.5,1-0.7,1.4l-0.1,0.8c0,0.3,0,0.5,0.1,0.8c0,0.3,0.1,0.4,0.3,0.5c0.1,0.1,0.3,0.3,0.4,0.4
		c0.1,0,0.3,0.1,0.4,0.1s0.1,0.1,0.3,0.1c0.3,0,0.5,0,0.8,0c0.4-0.1,0.7-0.3,0.9-0.4s0.4-0.4,0.5-0.7s0.1-0.5,0.1-0.8s0-0.5-0.1-0.8
		c-0.1-0.4-0.1-0.7-0.4-0.9c-0.1-0.3-0.4-0.7-0.5-0.8l6.5-0.5l0.7,2.6L254.4,33z M239.2,23.7l0.5-0.1l0.3-0.1c0-0.3-0.1-0.5-0.1-0.9
		l0.1-0.8v-0.1c0.3-0.8,0.4-1.4,0.7-1.8l1.4,0.3l1,0.3c-0.1,0.3-0.3,0.5-0.4,0.8c-0.1,0.1-0.1,0.4-0.3,0.5l-0.1,0.7
		c0,0.3,0,0.4,0,0.7c0.1,0.3,0.3,0.5,0.4,0.8c0.3,0.3,0.7,0.3,0.9,0.3s0.4-0.1,0.5-0.3c0.1-0.1,0.3-0.3,0.3-0.5
		c0.1-0.7,0.1-1.2,0.3-1.6l0.3-0.8c0-0.1,0.1-0.1,0.1-0.3c0.1-0.3,0.1-0.4,0.3-0.5c0.1-0.3,0.4-0.5,0.8-0.7c0.4-0.3,0.7-0.4,1.2-0.5
		c0.4-0.1,0.9-0.1,1.3-0.1c0.1,0,0.1,0,0.3,0c0.4,0,0.7,0.1,1,0.3c0.3,0.1,0.4,0.1,0.5,0.3s0.3,0.3,0.4,0.4c0.3,0.3,0.4,0.5,0.5,0.7
		c0,0.1,0.1,0.1,0.1,0.3l1-0.3l0.9-0.3v0.3l0.3,1l-1.8,0.4c0,0.4,0,0.9,0,1.3c0,0.5-0.1,0.9-0.4,1.3l-2.5-0.4
		c0.1-0.3,0.3-0.7,0.4-0.9c0.1-0.3,0.1-0.7,0-0.9c-0.1-0.3-0.3-0.5-0.4-0.8c-0.3-0.1-0.4-0.3-0.8-0.1c-0.1,0-0.3,0.1-0.4,0.3
		c-0.1,0.1-0.1,0.3-0.3,0.4s-0.1,0.5-0.3,0.9l-0.3,1.2c0,0.1-0.1,0.4-0.1,0.5c-0.1,0.1-0.1,0.4-0.3,0.5c-0.1,0.4-0.4,0.7-0.8,0.8
		c0,0-0.1,0.1-0.3,0.1c-0.3,0.1-0.7,0.4-1,0.4c-0.5,0.1-1,0.1-1.4,0.1s-0.8-0.1-1.2-0.3c0,0-0.1,0-0.1-0.1c-0.3-0.1-0.5-0.4-0.8-0.5
		c-0.3-0.3-0.5-0.7-0.8-1l-0.8,0.1l-0.5,0.1l-0.7,0.1l-0.3-1.2L239.2,23.7z M177.8,55.1c0.3,0.3,0.4,0.5,0.7,0.8
		c0.1,0.3,0.3,0.7,0.4,1s0.1,0.7,0.1,1s-0.1,0.7-0.3,0.9c-0.1,0.3-0.3,0.5-0.5,0.9c-0.1,0.3-0.4,0.5-0.7,0.8
		c-0.3,0.3-0.5,0.4-0.8,0.7l-0.9,0.5c-0.9,0.4-1.7,0.7-2.2,0.8c-1,0.1-1.8,0.3-2.4,0.3c-1,0-1.7-0.1-2.2-0.3
		c-0.4-0.1-0.7-0.3-0.9-0.4c-0.3-0.1-0.5-0.4-0.8-0.5c-0.3-0.3-0.4-0.5-0.7-0.8c-0.1-0.3-0.3-0.7-0.4-1s-0.1-0.7-0.1-1
		s0.1-0.7,0.3-0.9c0.1-0.3,0.3-0.5,0.5-0.9c0.1-0.3,0.4-0.5,0.7-0.8c0.4-0.3,0.9-0.7,1.8-1.2c0.4-0.3,1.2-0.5,2.2-0.8
		c0.5-0.1,1.3-0.3,2.4-0.3h1.2c0.4,0,0.7,0.1,1,0.3c0.4,0.1,0.7,0.3,0.9,0.4C177.4,54.7,177.7,54.9,177.8,55.1z M174.4,51.5
		l-0.8-3.4l-1.3,0.1l0.3,0.8c0.1,0.3,0.1,0.5,0.1,0.8s0,0.5,0,0.7c-0.1,0.5-0.3,0.9-0.7,1.3c-0.3,0.4-0.7,0.8-1.2,1
		c-0.7,0.4-1.2,0.5-1.6,0.7c-0.3,0.1-0.7,0.1-0.9,0.1s-0.7,0-0.9,0c-0.3,0-0.7-0.1-0.9-0.3s-0.5-0.3-0.8-0.4
		c-0.3-0.1-0.4-0.3-0.7-0.5l-0.4-0.7c-0.3-0.4-0.4-0.9-0.5-1.4s-0.1-1.2-0.1-1.7c0.1-0.8,0.3-1.3,0.4-1.7l2.9-0.3
		c-0.4,0.5-0.5,1-0.7,1.4l-0.1,0.8c0,0.3,0,0.5,0.1,0.8c0,0.3,0.1,0.4,0.3,0.5s0.3,0.3,0.4,0.4c0.1,0.1,0.4,0.1,0.7,0.3
		c0.3,0,0.5,0,0.8,0c0.4-0.1,0.7-0.3,0.9-0.4c0.3-0.1,0.4-0.4,0.5-0.7s0.1-0.5,0.1-0.8s0-0.5-0.1-0.8c-0.1-0.4-0.1-0.7-0.4-0.9
		c-0.1-0.3-0.4-0.7-0.5-0.8l6.5-0.5L177,51L174.4,51.5z M160.6,41.9l1.8-0.4c0-0.3-0.1-0.5-0.1-0.9l0.1-0.8v-0.1
		c0.3-0.8,0.4-1.4,0.7-1.8l2.5,0.5c-0.1,0.3-0.3,0.5-0.4,0.8c-0.1,0.1-0.1,0.4-0.3,0.5l-0.1,0.7c0,0.3,0,0.4,0,0.7
		c0.1,0.3,0.3,0.5,0.4,0.8c0.3,0.3,0.7,0.3,0.9,0.3s0.4-0.1,0.5-0.3c0.1-0.1,0.3-0.3,0.3-0.5c0.1-0.7,0.1-1.2,0.3-1.6l0.3-0.8
		c0-0.1,0.1-0.1,0.1-0.3c0.1-0.3,0.1-0.4,0.3-0.5c0.1-0.3,0.4-0.5,0.8-0.7c0.4-0.3,0.7-0.4,1.2-0.5c0.4-0.1,0.9-0.1,1.3-0.1
		s0.9,0.1,1.3,0.3c0.3,0.1,0.4,0.1,0.5,0.3c0.1,0.1,0.3,0.3,0.4,0.4c0.3,0.3,0.5,0.7,0.7,1l1.8-0.4l0.3,1.2l-1.8,0.4
		c0,0.4,0,0.9,0,1.3c0,0.5-0.1,0.9-0.4,1.3l-2.5-0.4c0.1-0.3,0.3-0.7,0.4-0.9c0.1-0.3,0.1-0.7,0-0.9c-0.1-0.3-0.3-0.5-0.4-0.8
		c-0.3-0.1-0.4-0.3-0.8-0.1c-0.1,0-0.3,0.1-0.4,0.3c-0.1,0.1-0.1,0.3-0.3,0.4s-0.1,0.5-0.3,0.9l-0.3,1.2c-0.1,0.4-0.3,0.8-0.4,1
		c-0.1,0.4-0.4,0.7-0.8,0.8c-0.4,0.3-0.8,0.4-1.3,0.5s-1,0.1-1.4,0.1s-0.8-0.1-1.2-0.3c-0.4-0.1-0.7-0.4-0.9-0.7
		c-0.3-0.3-0.5-0.7-0.8-1l-2,0.4L160.6,41.9z M161.3,79.5c2.2-0.7,4.5-1.4,6.4-2.4c1.4-0.7,2.9-1.3,4.3-2
		c6.9-3.7,12.8-8.8,17.7-15.2c3-3.9,5.2-8,6.7-12.2c1.4-4.2,2.2-8.5,2.2-12.8l1.7-0.4l6.9-1.6l5.2-1.2l3.1-0.7
		c0.7,1.3,1.3,2.5,2.1,3.7c1.6,2.5,3.4,4.8,5.5,6.9c0.3,0.3,0.7,0.7,1,0.9c1.8,1.7,3.9,3.3,6.3,4.8c1.3,0.8,2.6,1.6,4.1,2.4
		c0.8,0.4,1.4,0.8,2.2,1c2.2,1,4.3,1.8,6.7,2.5c1.7,0.5,3.4,0.9,5.1,1.3c1.7,0.4,3.4,0.7,5.2,0.8c2.2,0.3,4.6,0.3,6.8,0.3
		c0.1,0,0.3,0,0.4,0c0.9,0,1.8-0.1,2.6-0.1c1.4-0.1,2.7-0.3,4.2-0.5l0.3,1l0.8,3.3l0.7,2.7l2.2,9.6l8.8,37.8l1.6,6.8l1.6,7.1
		l1.4,6.2l0.9,3.8l0.9,4.1l0.3,1.3l0.9,3.8l0.9,3.9l2.5,10.9l0.4,1.6l0.4,1.6l0.4,2l0.1,0.8h-1.3h-4.1c0-0.3,0.1-0.5,0.1-0.8
		s0-0.4,0.1-0.7c0.1-1,0.3-2.1,0.3-3.1c0.1-2.6-0.1-5.2-0.8-7.9c-0.3-1.4-0.8-2.7-1.2-4.1c-0.5-1.3-1-2.5-1.7-3.8
		c-0.3-0.5-0.5-0.9-0.8-1.4c-0.5-0.8-0.9-1.4-1.6-2.1c-0.7-0.9-1.3-1.7-2.1-2.5c-0.5-0.5-1-1-1.6-1.6c-0.3-0.3-0.5-0.5-0.9-0.8
		c-1.4-1.2-3-2.4-4.8-3.4c-1.6-1-3.4-2-5.2-2.7c-0.5-0.3-1-0.4-1.4-0.7c-3.7-1.6-7.6-2.6-11.5-3.3c-1.7-0.3-3.4-0.5-5.1-0.7
		c-0.5,0-1.2-0.1-1.7-0.1s-1.2,0-1.7-0.1c-1.2,0-2.4,0-3.5,0c-1.7,0-3.5,0.1-5.2,0.4c-0.4,0-0.7,0.1-1,0.1c-0.7,0.1-1.4,0.1-2.1,0.3
		l0,0c-0.9,0.1-1.8,0.3-2.6,0.5c-0.4,0.1-0.8,0.1-1,0.3c-0.7,0.1-1.3,0.3-2,0.4c-2.2,0.5-4.3,1.2-6.4,1.8c-0.3,0.1-0.4,0.1-0.7,0.3
		c-2.2,0.8-4.3,1.6-6.3,2.5c-1.8,0.8-3.7,1.7-5.4,2.6c-1.8,1-3.7,2.2-5.4,3.5c-2.5,1.8-4.8,3.8-7.1,6c-0.7,0.7-1.3,1.3-1.8,2
		c-0.1,0.1-0.4,0.4-0.4,0.5c-3.7,4.2-6.3,8.5-7.9,13c-0.7,2-1.2,3.8-1.4,5.8h-4.2L161.3,79.5z M268.8,155.9c0-0.1,0-0.4-0.1-0.5
		c-0.1-0.4-0.3-0.9-0.4-1.3c-0.3-0.7-0.4-1.2-0.7-1.8c-0.1-0.3-0.3-0.5-0.4-0.9c-0.3-0.4-0.5-0.9-0.8-1.3s-0.5-0.8-0.9-1.2
		c-0.8-1-1.8-2-2.9-2.9c-0.1-0.1-0.3-0.3-0.4-0.4c-1.4-1-3-2-4.7-2.7c-0.9-0.4-2-0.8-2.9-1c-0.8-0.3-1.6-0.4-2.4-0.7
		c-0.4-0.1-0.8-0.1-1.2-0.3c-1.2-0.3-2.4-0.4-3.5-0.4c-0.7,0-1.4,0-2.1,0c-1.7,0-3.5,0.1-5.4,0.5c-0.8,0.1-1.7,0.3-2.5,0.5
		c-1,0.3-2,0.5-2.9,0.8c-2.6,0.8-5,1.8-7.2,3.1c-0.5,0.3-1,0.7-1.4,0.9c-1.6,1-3,2.2-4.3,3.5l0,0l-0.1,0.1c-0.4-0.3-0.8-0.5-1.3-0.8
		c-0.1-0.1-0.4-0.3-0.5-0.3s-0.1-0.1-0.3-0.1c-1.8-1-3.9-2-6-2.6c-0.1,0-0.3-0.1-0.4-0.1c-1.6-0.5-3.1-0.8-4.8-1
		c-1.2-0.1-2.4-0.3-3.5-0.4c1.2-1,2.4-2,3.7-2.9c1.7-1.2,3.5-2.4,5.4-3.3c0.3-0.1,0.5-0.3,0.8-0.4c2-1,4.1-2,6.3-2.7
		c0.8-0.3,1.6-0.5,2.4-0.8l0,0c1.8-0.7,3.7-1.2,5.6-1.6c0.3,0,0.4-0.1,0.5-0.1c1.4-0.4,2.9-0.7,4.3-0.8c0.7-0.1,1.4-0.3,2.1-0.3
		c1.8-0.3,3.5-0.4,5.4-0.5c0.9,0,1.8-0.1,2.7-0.1s1.7,0,2.6,0c0.1,0,0.1,0,0.3,0c2.2,0.1,4.5,0.4,6.5,0.8l0,0c2.2,0.4,4.5,1,6.7,1.7
		c0.9,0.3,1.7,0.7,2.6,0.9c0.7,0.3,1.2,0.5,1.7,0.8c3.5,1.6,6.4,3.5,8.8,5.8c0.1,0.1,0.1,0.1,0.3,0.3c0.9,0.9,1.8,2,2.6,3
		c0.8,1.2,1.4,2.2,2.1,3.5c0.5,1.2,1,2.5,1.3,3.9c0,0.1,0.1,0.3,0.1,0.4c0.3,1.3,0.5,2.6,0.5,4.1c0.1,1.4,0,2.7-0.3,4.1
		c-0.1,0.9-0.3,1.7-0.5,2.6h-6.7h-3.8C269.2,160.8,269.3,158.3,268.8,155.9z M243.1,142.7v-0.3l2.2-0.1h1.6h0.1l0.1,0.3l0.4,2
		c0.7,0,1.3,0.1,2,0.1c0.8,0.1,1.7,0.3,2.5,0.4c0.3,0,0.5,0.1,0.8,0.3c1.2,0.3,2.2,0.7,3.3,1.2c1.2,0.5,2.2,1,3.1,1.7
		c0.7,0.4,1.3,0.9,1.8,1.4c0.4,0.4,0.8,0.8,1.2,1.2l0,0c0.5,0.5,0.9,1.2,1.3,1.7c0.3,0.5,0.5,1,0.8,1.6c0.3,0.7,0.5,1.3,0.7,2
		c0.5,2.2,0.4,4.6-0.3,6.7c0,0,0,0,0,0.1h-7.1h-2h-0.9h-2.9H251l0,0h-0.8h-0.5h-2.9h-3.7h-0.5h-4.7h-1h-1.4h-2.6h-0.1H226h-1h-0.3
		H220h-0.7c0.1-1.2,0.3-2.2,0.7-3.4c0.3-0.9,0.8-1.8,1.3-2.7l0.1-0.1c0.5-0.9,1.2-1.8,2-2.7l0.1-0.1c0.9-1,1.8-2,2.9-2.7
		c0.3-0.3,0.5-0.4,0.8-0.7c2.1-1.6,4.6-3,7.2-3.9c1.3-0.5,2.7-0.9,4.2-1.3c0.4-0.1,0.8-0.1,1.2-0.3c1.3-0.3,2.6-0.4,3.8-0.5
		L243.1,142.7z M219,153.2c-1.7,2.4-2.9,4.7-3.4,7.2c-0.3,0.9-0.3,1.8-0.4,2.7h-2.4h-5.2h-5.2h-6.8h-2.9c0.5-2.6,1.6-5.4,3.1-8
		c1.2-1.8,2.5-3.7,4.1-5.6c0.1-0.1,0.1-0.1,0.3-0.3c0.1-0.1,0.3-0.3,0.4-0.4c0.8,0,1.4,0,2.2,0c1.8,0,3.5,0.3,5.2,0.5s3.4,0.7,5,1.3
		h0.1C215.5,151.2,217.3,152.1,219,153.2z M461.5,296.8c0,29.8-10.5,55.2-31.5,76.5c-2.2,2.2-4.6,4.5-6.9,6.4
		c-18.5,15.1-39.8,22.9-64.4,23.2h-0.3c-0.5,0-1.2,0-1.7,0h-3.4v2.1h-0.1v20.4c-0.4,2.9-1.6,5.4-3.8,7.6l0,0
		c-2.6,2.6-5.8,3.9-9.3,3.9c-3.7,0-6.8-1.3-9.4-3.9c-2.6-2.6-3.8-5.8-3.9-9.4v-20.8H242v20.7c0,3.7-1.3,6.8-3.9,9.4H238
		c-2.6,2.6-5.8,3.9-9.3,3.9c-3.7,0-6.8-1.3-9.4-3.9c-0.9-0.9-1.6-1.8-2.1-2.7c-0.4-1.3-0.5-2.6-0.5-3.9v-22.6h-1.2v-0.9h-44.2
		c-29.3,0-54.3-10.3-75-31.2c-20.7-20.7-31-45.7-31-74.9v-17.3c0-29.3,10.3-54.3,31-75c19.4-19.4,42.5-29.7,69.5-30.9
		c1.8-0.1,3.7-0.1,5.5-0.1h1.4h5.4h5.4h2.2h4.1l0,0h0.8h3.3h2.1h6.8h5.2h5.2h5.8h1h1.4h2.7h1.2h0.4h5.5h0.9h4.1h0.5h0.7h5.2h1h0.7
		h0.5h3.9h0.1h0.5h1.4h1.7h1.8h1.6h3.4h3h11.4h0.9h3.3h0.3h0.4h2.7h2h4.1h0.8h7.1h1.4h1.4h2.5h0.7h0.5h0.4h3.8h6h0.1h0.9h2.2h6.8
		h1.4h3.5h0.3h3.3h2h6.8h1h4.1l0,0h0.9h3.1h3.7h4.7c0.1,0,0.4,0,0.5,0c1.7,0,3.5,0,5.2,0.1c2.4,0.1,4.6,0.3,6.8,0.5
		c18.6,2,35.2,8.5,50,19.6c3.7,2.9,7.2,6,10.6,9.4c21.1,21.1,31.5,46.5,31.5,76.3v17.5H461.5z"/>
</g>
</svg>
