<svg id="Layer_1" data-name="Layer 1" xmlns="http://www.w3.org/2000/svg" viewBox="0 0 1612.9 295.5"><defs><style>.cls-1 { opacity: 0.5; } .cls-2 { fill: #e6795a; }</style></defs><title>solarTown</title><g class="cls-1"><path class="cls-2" d="M1566.9 34.8l-.2-.2H1464L1446.2.1h-189.6l-31 60h-79.4a8.3 8.3 0 0 0-.6-2.1 9.16 9.16 0 0 0 3.6-7.6c0-4.7-2.9-8.5-6.4-8.5s-6.4 3.8-6.4 8.5a11.42 11.42 0 0 0 .5 3.3 9.46 9.46 0 0 0-5.7 6.4H1093l-50.6 91.5h9.2v143.2h294.3v-.1h79v.2h33.7v-.3l131.1-.1h15.8V88.8h7.4zm-13.5.8l-44.3 52h-17.7l-26.9-52h88.9zM1445.5 1.1l17.7 34.2v.3h.1l26.9 52h-11.7l-44.7-86.5h11.7zm-302.8 41.8c3 0 5.4 3.4 5.4 7.5 0 2.9-1.2 5.5-3 6.7a9.06 9.06 0 0 0-1.1-1.6 6.6 6.6 0 0 0-4.9-2.2c-.4 0-.9.1-1.3.1a10.07 10.07 0 0 1-.5-3.1c0-4.1 2.4-7.4 5.4-7.4zm-11 19.5c.3-4.5 3.7-8.1 7.4-8.1a5.86 5.86 0 0 1 4.2 1.9 8.14 8.14 0 0 1 1.9 6.2 2 2 0 0 1-.1.7l-1.6 20.2H1130zm19.9 12.8a4.52 4.52 0 0 0 4-4.4 3.92 3.92 0 0 0-.4-1.8l2-3.4h54.2l-20 34.3h-39.2a2.09 2.09 0 0 0 .6-.4 5.41 5.41 0 0 0 1.8-1.9h35.2l17-29.1h-49l-17 29.1h6.4a2.52 2.52 0 0 0 .2 2.1.38.38 0 0 0 .2.2h-10.3l5-8.6a4.44 4.44 0 0 0 2-3.4zm-.6-1a3.5 3.5 0 1 1 3.5-3.5 3.48 3.48 0 0 1-3.5 3.5zm20.7 61l20-34.3h54.2l-20 34.3h-54.2zm54.1 1v5.2H1172v-5.2h53.8zm1-.5l20.9-35.8 19.2-32.9v4.2l-40 68.9v-4.4h-.1zm19.7-35.8h-54l20-34.3h54zm-91.8-5.3a2.45 2.45 0 0 0-2.1-.9 6.47 6.47 0 0 0-3.3 1.1 6.4 6.4 0 0 0-1.8 1.9h-5.1l15.8-27.1h46.7l-15.8 27.1H1155a2.46 2.46 0 0 0-.3-2.1zm-4.7 1a5.3 5.3 0 0 1 2.7-1 1.58 1.58 0 0 1 1.3.5 1.8 1.8 0 0 1 0 1.6 4.76 4.76 0 0 1-1.8 2c-1.5 1-3.4 1.2-4 .4s.2-2.4 1.8-3.5zm-13.1-4.4h-1.4c-2.4 0-4.1-.1-5-1a3.75 3.75 0 0 1-.7-3 2 2 0 0 1 .1-.7l.2-2.3h13.5l-.2 2.9c-.4 3.9-2.8 4.1-6.5 4.1zm-92.8 59.4l49.1-89 .3-.5h37.3a2.2 2.2 0 0 0-.1.8l-1.7 22.3-.2 2.2c0 .2-.1.5-.1.7a5.4 5.4 0 0 0 .9 3.8c1.2 1.3 3.1 1.4 5.7 1.4h1.5a15.83 15.83 0 0 0 3.8-.3l-5.3 9h55.1l-20.4 35.2h1.1v6.2h54.7v1.4l42-72.2.1-.1v-6.2l.4-.6h-111.6l-2 3.4a4.27 4.27 0 0 0-3.5-1.7 4.48 4.48 0 0 0-4.5 4.5 4.43 4.43 0 0 0 3.9 4.4l-6 10.4 1.6-20.2.2-2.2c0-.2.1-.5.1-.7v-1.3h141.2l-49.4 89.5h-96.9l8.4-46.2.1-.6h-6.4l-.7 3.9h-10.1a2.26 2.26 0 0 0 1.1-1.9c0-1.6-2-2.9-4.5-2.9s-4.5 1.3-4.5 2.9a2.4 2.4 0 0 0 1.1 1.9h-4.6l.6-3.4.1-.6h-6.4l-8.6 46.8h-62.9v-.1zm80.3 54.8H1103l.5-2.9h21.4zm.1 1l-.3 1.7v-1.7h.3zm-35.7 77.2l1.2-6.8h21.6l-1.2 6.8h-21.6zm21.2 1l-.5 2.9h-21.4l.5-2.9h21.4zm1.6-8.9h-21.4l.5-2.9h21.4zm-20.7-3.9l1.2-6.8h21.6l-1.2 6.8h-21.6zm22.8-7.8h-21.4l.5-2.9h21.4zm-20.6-3.9l1.2-6.8h21.6l-1.2 6.8h-21.6zm22.8-7.8h-21.4l.5-2.9h21.4zm-20.7-3.9l.8-4.5h21.6l-.8 4.5h-21.6zm1-5.5l.2-1.3h21.6l-.2 1.3h-21.6zm21.8-2.3h-21.4l.5-2.9h21.4zm-20.6-3.9l1.2-6.8h21.6l-1.2 6.8h-21.6zm22.8-7.8h-21.4l.5-2.9h21.4zm-20.7-3.9l1.2-6.8h21.6l-1.2 6.8h-21.6zm22.8-7.9h-21.4l.5-2.9h21.4zm-20.7-3.9l1.2-6.8h20.3v6.8h-21.5zm2.2-11.7l1.2-6.8h18.2v6.8h-19.4zm20.4 0v-6.8h2.5l-1.2 6.8h-1.3zm2.4-7.8h-21.4l.5-2.9h21.4zm-20.7-3.9l1.2-6.8h16v6.8h-17.2zm18.3 0V183h4.6l-1.2 6.8h-3.4zm4.5-7.8h-21.4l.5-2.9h21.4zm-20.6-3.9l.2-.9h15v.9h-15.2zm16.1 0v-1.9h-15.8l.9-4.9h21.6l-1.2 6.8h-5.5zm6.7-7.8h-21.4l.5-2.9h21.4zm-20.7-4l1.2-6.8h21.6l-1.2 6.8h-21.6zm22.8-7.8h-21.4l.5-2.9h21.4zm-20.6-3.9l.6-3h21.6l-.6 3h-21.6zm.7-4l.5-2.8h21.6l-.5 2.8h-21.6zm22.1-3.8h-21.4l.5-2.9h21.4zm-20.7-3.9l1.2-6.8h21.6l-1.2 6.8h-21.6zm22.8-7.8h-21.4l.5-2.9h21.4zm-20.7-3.9l1.2-6.8h21.6l-1.2 6.8h-21.6zm22.8-7.8H1118l.5-2.9h21.4zm-20.6-3.9l1.2-6.8h21.6l-1.2 6.8h-21.6zm22.8-7.8h-21.4l.5-2.9h21.4zm-16.1-5.8c0-1 1.6-1.9 3.5-1.9s3.5.9 3.5 1.9-1.6 1.9-3.5 1.9-3.5-.9-3.5-1.9zm-72.9 187.8V151.5h54l-4.5 24.6h-30.9v67.7h18.5l-9.1 49.8h-28v.1zm49.3-116.5l-12 65.7h-17.7v-65.7h29.7zm-16 116.5h-4.3l34.5-188.9h4.3l-.5 2.9-.9 4.9-1.2 6.8-.9 4.9-1.2 6.8-.9 4.9-1.2 6.8-.9 4.9-1.2 6.8-.9 4.9-1.2 6.8-.8 4.3-1.4 7.4-.9 4.9-1.2 6.8-.9 4.9-1.3 7.2-.8 4.6-1.2 6.8-.3 1.8-1.8 9.9-.8 4.3-1.4 7.5-.9 4.9-1.6 8.8-.5 2.9-3.4 18.5-.2 1.3-1.9 10.4-.8 4.5zm22.7 0H1087l1-5.3h21.7zm5.3 0h-4.3l34.5-188.9h4.3zm120.7 0h-119.7l9.1-49.8h.2v-1l16.7-91.3h93.7v142.1zm76.7 0h-31.7V221h31.7v72.7zm33.6 0h-32.7V220h-33.7v73.7h-43V151.5h3l49.7-90 49.6 86.7.1.3h6.9v145.2h.1zm-6.3-146.1l-49.4-86.5h13l49.4 86.5h-13zm43.7 146H1346v-145h7.4l-34.3-60h63.3v205h-.1zm-63.9-206l-15.6-27.2-.1-.3h-76.1l30.5-59h175.1l-44.7 86.5h-69.1zm139.2 205.9h-31.7v-72.4h31.7v72.4zm131.4-.2h-75.3v-12.2h75.3v12.2zm0-13.2h-75.3v-14h75.3v14zm0-15h-75.3v-14h75.3v14zm0-15h-75.3v-14h75.3v14zm0-15h-75.3v-14h75.3v14zm0-15h-75.3v-14h75.3v14zm15.5 73.2H1590v-88.2h-77.3v88.3l-54.1.1v-73.4h-33.7v73.4h-41.7v-205h4.9L1433 1.6l44.9 86.9h31.6l44.6-52.3 44.5 52.2.2.2h5.7v204.7zm-5.3-205.7l-44.3-52h11.5l44.3 52h-11.5z"/><path class="cls-2" d="M1441.8 111.4a17 17 0 0 0-17 16.5v41.8h33.9v-40c0-.4.1-.9.1-1.3a17 17 0 0 0-17-17zm15.9 18.3v39.1h-31.9v-40.4a16 16 0 0 1 32 0 6.14 6.14 0 0 1-.1 1.3zM1554.5 111.4a17 17 0 0 0-17 16.5v41.8h33.9v-40c0-.4.1-.9.1-1.3a17.11 17.11 0 0 0-17-17zm15.9 18.3v39.1h-31.9v-40.4a16 16 0 0 1 32 0 5.28 5.28 0 0 0-.1 1.3zM754.2 40.1H549.8l-3.9 7.4L535 34.7l-.1-.2H432L414.2 0H224.6l-31 60h-143L0 148.5h9.2v146.2h294.4v-.1l46.8-.1h42.7v.2h33.7v-.3l90.8-.1v.4h294.3V128.5h7.4L768.7 40h-14.5v.1zm-203.8 1h177.9l-45.4 86.5H573.5v-5.3h98.2v1.5l38.6-72.3.1-.1v-6.2l.3-.6H559.2L553.1 56l-6.5-7.6zm36 42.7h-9.6l-2.5-2.9h15.2l-16 29.8v-2.9zm-12.9 21.9V88.6h7.4l-3.2-3.8h7zm16.2-28.1l15.6-29.1h-45.1l-5.2 9.7-1.2-1.4 6-11.2h48.6l-18.3 34.3h-16.5l-1.9-2.3h18zm-19-1l-15-17.6 5.1-9.5h42.8l-14.5 27.1h-18.4zm102 39.1l18.6-34.8 18.1-33.8v4l-36.7 68.7v-4.1zm-.9-.5h-49.7l18.3-34.3h49.7zm18.9-35.3H641l18.3-34.3H709zm-41.6-17.2l-9.2 17.1h-48.7l18.3-34.3h48.7zm-58.5 18.2h48.7L630.1 98l-9.1 17.2h-47.5v-2.3zm29.9 35.3h51.2v5.2h-98.2v-5.2h47zm-86.1-80.6l44.3 52h-11.5l-44.3-52h11.5zm-12.9 0l-44.3 52h-17.7l-26.9-52h88.9zM413.6 1.1l17.6 34 .1.2v.3h.1l26.9 52h-11.7l-27.1-52.5-17.6-34h11.7zM1.8 147.6l49.4-86.5H245l-49.4 86.5H1.8zm292.1-74.7l15.3-29.1h-44.4l-8.6 16.3h-1.6l10.1-19.2h48l-9 17.1-9 17.1H269l-1.3-2.3h26.2v.1zm-26.8-1l-6.8-11.8h-3l8.1-15.3h42.1l-14.3 27.1h-26.1zm27.1 4.3h50.4v5.2h-72.1l-2.9-5.2h24.6zm1.6-1l18.1-34.3h48.9l-18.1 34.3h-48.9zm49.8.5l18-34.2.3-.6 3.1-5.8 14.7-28v4l-12.6 24-5.5 10.4-18 34.3v-4.1zm17.7-35.8h-48.9l18.1-34.3h48.9zm-41-17.2l-9 17.1h-48l18.1-34.3h48zm-58.1 17.2h-47.8l18.1-34.3h47.8zm-.5 1l-10.1 19.2H252l8.6-16.3h-44.4l-8.6 16.3h-1.9l10.1-19.2h47.9zm-12.8 19.2h-42.1l8.1-15.3H259zm-58.6 233.6h-182V148.5h182v145.2zm76.6 0h-31.7V221h31.7v72.7zm33.7 0h-32.7V220h-33.7v73.7h-43V148.5h3l49.7-87 49.7 87h6.9v145.2h.1zm-6.4-146.1l-49.4-86.5h13l49.4 86.5h-13zm54.2 146l-46.8.1v-145h7.4l-34.3-60h73.7v204.9zm-74.3-206l-3-5.3h71.5v1.5l19-36.2 6.6-12.6 12.4-23.6.1-.1V5.1l.3-.6H233.9l-18.6 35.3L204.7 60h-9.9l30.5-59h175.1l-17.6 34-19.2 37.1-8 15.4h-79.5v.1zm149.6 205.9H394v-72.4h31.7v72.4zm131.3-.2h-75.3v-12.2H557v12.2zm0-13.2h-75.3v-14H557v14zm0-15h-75.3v-14H557v14zm0-15h-75.3v-14H557v14zm0-15h-75.3v-14H557v14zm0-15h-75.3v-14H557v14zm15.5 73.2H558v-88.2h-77.3v88.3l-54.1.1v-73.4H393v73.4h-41.7v-205h4.9l7.4-14.2L383.9 35l17.3-33.4L418.5 35l27.6 53.5h31.6l44.6-52.3 44.5 52.2.1.2h5.7v204.7h-.1zm78.5.4h-77.5V128.5H651v165.2zm140.7 0h-41.5V221h41.5v72.7zm19.1 0h-18.1V220h-43.5v73.7H652V128.5h31.5l.3-.5 45.6-87h24.4l49.7 87 .3.5h6.9v165.2h.1zm-6.4-166.1L755 41.1h13l49.4 86.5h-13z"/><path class="cls-2" d="M639.1 77.6l15.6-29.1h-45.1L594 77.6h45.1zm-28.9-28.1H653l-14.5 27.1h-42.8zM689.3 77.6l15.6-29.1h-45.1l-15.6 29.1h45.1zm-28.9-28.1h42.8l-14.5 27.1h-42.8zM640.9 83.8l-15.6 29.1h45.1L686 83.8h-45.1zm28.9 28.1H627l14.5-27.1h42.8zM635.8 83.8h-45.1l-15.6 29.1h45.1zm-59 28.1l14.5-27.1h42.8l-14.5 27.1h-42.8zM671.6 238.5h59.7v-61.8h-59.7v61.8zm1-60.8h57.7v59.8h-57.7v-59.8zM741.7 66.8a17 17 0 0 0-17 16.5v41.8h33.9v-40c0-.4.1-.9.1-1.3a17.11 17.11 0 0 0-17-17zM757.6 85v39.1h-31.9V83.7a16 16 0 0 1 32 0 6.15 6.15 0 0 0-.1 1.3zM263.9 37.6l15.3-29.1h-44.4l-15.3 29.1h44.4zM235.4 9.5h42.1l-14.3 27.1h-42.1zM312.5 37.6l15.3-29.1h-44.4l-15.3 29.1h44.4zM284 9.5h42.1l-14.3 27.1h-42.1zM361.9 37.6l15.3-29.1h-44.4l-15.3 29.1h44.4zM333.5 9.5h42.1l-14.3 27.1h-42.1zM314.3 43.8L299 72.9h44.4l15.3-29.1h-44.4zm28.4 28.1h-42.1l14.3-27.1H357zM409.9 111.4a17 17 0 0 0-17 16.5v41.8h33.9v-40c0-.4.1-.9.1-1.3a17 17 0 0 0-17-17zm15.9 18.3v39.1h-31.9v-40.4a16 16 0 0 1 32 0c0 .4-.1.8-.1 1.3zM522.6 111.4a17 17 0 0 0-17 16.5v41.8h33.9v-40c0-.4.1-.9.1-1.3a17.11 17.11 0 0 0-17-17zm15.9 18.3v39.1h-31.9v-40.4a16 16 0 0 1 32 0 5.28 5.28 0 0 0-.1 1.3zM62 68.5L45 97.6h49l17-29.1H62zm31.4 28.1H46.7l15.8-27.1h46.7zM147.8 97.6l17-29.1h-49l-17 29.1h49zm-31.5-28.1H163l-15.8 27.1h-46.7z"/><path class="cls-2" d="M225.5 71.4v-6.2l.4-.6H60.8L40.2 99.9l-21.1 36.3h.5v6.2h163.7v1.4zm-76.1 29.5h54.2l-20 34.3h-54.2zm-21.2 34.3H75l20-34.3h53.2l-10 17.1zm96.3-64.1l-40 68.9v-4.3l20.3-34.8L224.6 67v4.1h-.1zm-54.6-5.5h54.2l-20 34.3h-54.2zm-1.1 0l-10 17.1-10 17.1H95.6l20-34.3h53.2v.1zm-107.4 0h53l-20 34.3h-53zm-20.5 35.3h53l-20 34.3h-53zm-20.2 40.4v-5.2h162.7v5.2H20.7z"/><path class="cls-2" d="M41.4 103.8l-17 29.1h49l17-29.1h-49zm31.5 28.1H26.2L42 104.8h46.7zM202.5 97.6l17-29.1h-49l-17 29.1h49zM171 69.5h46.7l-15.8 27.1h-46.7zM149.9 103.8l-17 29.1h49l17-29.1h-49zm31.5 28.1h-46.7l15.8-27.1h46.7zM95.2 103.8l-17 29.1h49l17-29.1h-49zm31.5 28.1H80l15.8-27.1h46.7zM81.9 176.2H28.8v67.7h53.1v-67.7zm-1 66.7H29.8v-65.7h51.1v65.7zM170.3 176.2h-53.1v67.7h53.1v-67.7zm-1 66.7h-51.1v-65.7h51.1v65.7zM236 181.9h33.9v-41.8H236v41.8zm1-40.8h31.9v39.8H237v-39.8zM1244.8 97.6l17-29.1h-49l-17 29.1h49zm-31.4-28.1h46.7l-15.8 27.1h-46.7zM1192.2 103.8l-17 29.1h49l17-29.1h-49zm31.5 28.1H1177l15.8-27.1h46.7zM1212.6 176.2h-53.1v67.7h53.1v-67.7zm-1 66.7h-51.1v-65.7h51.1v65.7zM1278.4 181.9h33.9v-41.8h-33.9v41.8zm1-40.8h31.9v39.8h-31.9v-39.8zM1161.8 85.2a4.5 4.5 0 1 0-4.5-4.5 4.48 4.48 0 0 0 4.5 4.5zm0-7.9a3.5 3.5 0 1 1-3.5 3.5 3.48 3.48 0 0 1 3.5-3.5zM989.4 236.2h-20.1v-25.3a5.55 5.55 0 0 0-5.5-5.5h-98.5a5.55 5.55 0 0 0-5.5 5.5v65.7a5.55 5.55 0 0 0 5.5 5.5h4.6a14.63 14.63 0 0 0 27.9 4.8 14.56 14.56 0 0 0 25.2 2.4 14.77 14.77 0 0 0 11.9 6.2 14.57 14.57 0 0 0 13.3-8.6 14.57 14.57 0 0 0 13.3 8.6 14.76 14.76 0 0 0 14.6-13.4h13.3a5.55 5.55 0 0 0 5.5-5.5v-34.9a5.48 5.48 0 0 0-5.5-5.5zm-105 58.3a13.6 13.6 0 1 1 13.6-13.6 13.61 13.61 0 0 1-13.6 13.6zm50.5 0a13.6 13.6 0 1 1 13.6-13.6 13.61 13.61 0 0 1-13.6 13.6zm59-17.9a4.48 4.48 0 0 1-4.5 4.5h-39.9v-.2a14.6 14.6 0 0 0-29.2 0v.2H899v-.2a14.6 14.6 0 0 0-29.2 0v.2h-4.5a4.48 4.48 0 0 1-4.5-4.5v-65.7a4.48 4.48 0 0 1 4.5-4.5h98.5a4.48 4.48 0 0 1 4.5 4.5v2.3h-32.2a5.55 5.55 0 0 0-5.5 5.5v13a5.55 5.55 0 0 0 5.5 5.5h53.3a4.48 4.48 0 0 1 4.5 4.5v34.9zm-25.6-62.4v22h-32.2a4.48 4.48 0 0 1-4.5-4.5v-13a4.48 4.48 0 0 1 4.5-4.5h32.2z"/><path class="cls-2" d="M919.8 213.2H904a5.55 5.55 0 0 0-5.5 5.5v13a5.55 5.55 0 0 0 5.5 5.5h15.9a5.55 5.55 0 0 0 5.5-5.5v-13a5.64 5.64 0 0 0-5.6-5.5zm4.5 18.5a4.48 4.48 0 0 1-4.5 4.5H904a4.48 4.48 0 0 1-4.5-4.5v-13a4.48 4.48 0 0 1 4.5-4.5h15.9a4.48 4.48 0 0 1 4.5 4.5v13h-.1zM887.2 213.2h-15.9a5.55 5.55 0 0 0-5.5 5.5v13a5.55 5.55 0 0 0 5.5 5.5h15.9a5.55 5.55 0 0 0 5.5-5.5v-13a5.55 5.55 0 0 0-5.5-5.5zm4.5 18.5a4.48 4.48 0 0 1-4.5 4.5h-15.9a4.48 4.48 0 0 1-4.5-4.5v-13a4.48 4.48 0 0 1 4.5-4.5h15.9a4.48 4.48 0 0 1 4.5 4.5v13zM959.1 247.4a6.9 6.9 0 1 0 7 6.9 6.94 6.94 0 0 0-7-6.9zm0 12.9a6 6 0 0 1-6-5.9 5.93 5.93 0 0 1 6-5.9 6 6 0 0 1 6 5.9 5.93 5.93 0 0 1-6 5.9zM984.9 247.4a6.9 6.9 0 1 0 7 6.9 6.94 6.94 0 0 0-7-6.9zm0 12.9a6 6 0 0 1-6-5.9 5.93 5.93 0 0 1 6-5.9 5.9 5.9 0 1 1 0 11.8z"/></g></svg>