<svg xmlns="http://www.w3.org/2000/svg" viewBox="0 0 2254 905.8"><g opacity=".5" fill="#E6795A"><path d="M1891.7 614.3l-.2-.2h-102.8l-17.8-34.5h-189.6l-31 60h-79.4c-.1-.7-.3-1.4-.6-2.1 2.1-1.4 3.6-4.3 3.6-7.6 0-4.7-2.9-8.5-6.4-8.5s-6.4 3.8-6.4 8.5c0 1.2.2 2.3.5 3.3-2.6.9-4.8 3.3-5.7 6.4h-38.1l-50.6 91.5h9.2v143.2H1670.7v-.1h79v.2h33.7v-.4l131.1-.1h15.8V668.1h7.4l-46-53.8zm-13.5.8l-44.3 52h-17.7l-26.9-52h88.9zm-107.9-34.5l17.7 34.2v.3h.1l26.9 52h-11.7l-44.7-86.5h11.7zm-302.8 41.8c3 0 5.4 3.4 5.4 7.5 0 2.9-1.2 5.5-3 6.7-.3-.6-.7-1.1-1.1-1.6-1.3-1.4-3-2.2-4.9-2.2-.4 0-.9.1-1.3.1-.3-.9-.5-2-.5-3.1 0-4 2.4-7.4 5.4-7.4zm-11 19.5c.3-4.5 3.7-8.1 7.4-8.1 1.6 0 3 .7 4.2 1.9 1.4 1.5 2.1 3.8 1.9 6.2 0 .2 0 .4-.1.7l-1.6 20.2h-13.5l1.7-20.9zm19.9 12.8c2.2-.3 4-2.1 4-4.4 0-.6-.1-1.2-.4-1.8l2-3.4h54.2l-20 34.3H1477c.2-.1.4-.2.6-.4.8-.5 1.4-1.2 1.8-1.9h35.2l17-29.1h-49l-17 29.1h6.4c-.2.8-.2 1.5.2 2.1 0 .1.1.1.2.2H1462l5-8.6c1-.6 1.7-1.6 2-3.4l7.4-12.7zm-.6-1c-1.9 0-3.5-1.6-3.5-3.5s1.6-3.5 3.5-3.5 3.5 1.6 3.5 3.5-1.5 3.5-3.5 3.5zm20.7 61l20-34.3h54.2l-20 34.3h-54.2zm54.1 1v5.2h-53.7v-5.2h53.7zm1-.5l20.9-35.8 19.2-32.9v4.2l-40 68.9v-4.4zm19.7-35.8h-54l20-34.3h54l-20 34.3zm-91.8-5.3c-.4-.6-1.2-.9-2.1-.9-1 0-2.2.4-3.3 1.1-.8.6-1.4 1.2-1.8 1.9h-5.1L1483 649h46.7l-15.8 27.1h-34.2c.3-.7.2-1.4-.2-2zm-4.7 1c.9-.6 1.9-1 2.7-1 .6 0 1.1.2 1.3.5.4.5.1 1.2 0 1.6-.3.7-.9 1.4-1.8 2-1.5 1-3.4 1.2-4 .4-.6-.8.2-2.4 1.8-3.5zm-13.1-4.4h-1.4c-2.4 0-4.1-.1-5-1-.6-.6-.8-1.6-.7-3 0-.2 0-.4.1-.7l.2-2.3h13.5l-.2 2.9c-.4 3.9-2.8 4.1-6.5 4.1zm-92.8 59.4l49.1-89 .3-.5h37.3c-.1.3-.1.5-.1.8l-1.7 22.3-.2 2.2c0 .2-.1.5-.1.7-.1 1.7.2 2.9.9 3.8 1.2 1.3 3.1 1.4 5.7 1.4h1.5c1.3 0 2.6 0 3.8-.3l-5.3 9h55.1l-20.6 35.3h1.1v6.2h54.7v1.4l42-72.2.1-.1v-6.2l.4-.6h-111.6l-2 3.4c-.8-1.1-2.1-1.7-3.5-1.7-2.5 0-4.5 2-4.5 4.5 0 2.3 1.7 4.1 3.9 4.4l-6 10.4 1.6-20.2.2-2.2c0-.2.1-.5.1-.7v-1.3h141.2l-49.4 89.5H1466l8.4-46.2.1-.6h-6.4l-.7 3.9h-10.1c.7-.5 1.1-1.1 1.1-1.9 0-1.6-2-2.9-4.5-2.9s-4.5 1.3-4.5 2.9c0 .7.4 1.4 1.1 1.9h-4.6l.6-3.4.1-.6h-6.4l-8.6 46.8h-62.7zm80.3 54.8h-21.4l.5-2.9h21.4l-.5 2.9zm.1 1l-.3 1.7v-1.7h.3zm-35.7 77.2l1.2-6.8h21.6l-1.2 6.8h-21.6zm21.2 1l-.5 2.9h-21.4l.5-2.9h21.4zm1.6-8.8H1415l.5-2.9h21.4l-.5 2.9zm-20.7-3.9l1.2-6.8h21.6l-1.2 6.8h-21.6zm22.8-7.9h-21.4l.5-2.9h21.4l-.5 2.9zm-20.6-3.9l1.2-6.8h21.6l-1.2 6.8h-21.6zm22.8-7.8h-21.4l.5-2.9h21.4l-.5 2.9zm-20.7-3.9l.8-4.5h21.6l-.8 4.5H1420zm1-5.5l.2-1.3h21.6l-.2 1.3H1421zm21.8-2.3h-21.4l.5-2.9h21.4l-.5 2.9zm-20.6-3.9l1.2-6.8h21.6l-1.2 6.8h-21.6zm22.8-7.8h-21.4l.5-2.9h21.4l-.5 2.9zm-20.7-3.9l1.2-6.8h21.6l-1.2 6.8h-21.6zm22.8-7.8h-21.4l.5-2.9h21.4l-.5 2.9zm-20.7-3.9l1.2-6.8h20.3v6.8h-21.5zm2.2-11.8l1.2-6.8h18.2v6.8h-19.4zm20.4 0v-6.8h2.5l-1.2 6.8h-1.3zm2.4-7.8H1430l.5-2.9h21.4l-.5 2.9zm-20.7-3.9l1.2-6.8h16v6.8h-17.2zm18.3 0v-6.8h4.6l-1.2 6.8h-3.4zm4.5-7.8h-21.4l.5-2.9h21.4l-.5 2.9zm-20.6-3.9l.2-.9h15v.9h-15.2zm16.1 0v-1.9h-15.8l.9-4.9h21.6l-1.2 6.8h-5.5zm6.7-7.8h-21.4l.5-2.9h21.4l-.5 2.9zm-20.7-3.9l1.2-6.8h21.6l-1.2 6.8H1435zm22.8-7.8h-21.4l.5-2.9h21.4l-.5 2.9zm-20.6-3.9l.6-3h21.6l-.6 3h-21.6zm.7-4.1l.5-2.8h21.6l-.5 2.8h-21.6zm22.1-3.8h-21.4l.5-2.9h21.4l-.5 2.9zm-20.7-3.9l1.2-6.8h21.6l-1.2 6.8h-21.6zm22.8-7.8h-21.4l.5-2.9h21.4l-.5 2.9zm-20.7-3.9l1.2-6.8h21.6l-1.2 6.8h-21.6zm22.8-7.8h-21.4l.5-2.9h21.4l-.5 2.9zm-20.6-3.9l1.2-6.8h21.6l-1.2 6.8h-21.6zm22.8-7.8H1445l.5-2.9h21.4l-.5 2.9zm-16.1-5.8c0-1 1.6-1.9 3.5-1.9s3.5.9 3.5 1.9c0 1-1.6 1.9-3.5 1.9s-3.5-.9-3.5-1.9zm-72.9 187.9V731.1h54l-4.5 24.6H1396v67.7h18.5l-9.1 49.8h-28zm49.3-116.6l-12 65.7H1397v-65.7h29.7zm-16 116.6h-4.3l34.5-188.9h4.3l-.5 2.9-.9 4.9-1.2 6.8-.9 4.9-1.2 6.8-.9 4.9-1.2 6.8-.9 4.9-1.2 6.8-.9 4.9-1.2 6.8-.8 4.3-1.4 7.4-.9 4.9-1.2 6.8-.9 4.9-1.3 7.2-.8 4.6-1.2 6.8-.3 1.8-1.8 9.9-.8 4.3-1.4 7.5-.9 4.9-1.6 8.8-.5 2.9-3.4 18.5-.2 1.3-1.9 10.4-.8 4.5-1.4 5.8zm22.7 0h-21.6l1-5.3h21.7l-1.1 5.3zm5.3 0h-4.3l34.5-188.9h4.3l-34.5 188.9zm120.7 0h-119.7l9.1-49.8h.2v-1l16.7-91.3h93.7v142.1zm76.7 0h-31.7v-72.7h31.7v72.7zm33.6 0H1637v-73.7h-33.7v73.7h-43V731.1h3l49.7-90 49.6 86.7.1.3h6.9v145.2zm-6.3-146.2l-49.4-86.5h13l49.4 86.5h-13zm43.7 146h-36.3v-145h7.4l-34.3-60h63.3v205zm-63.9-206l-15.6-27.2-.1-.3h-76.1l30.5-59H1757l-44.7 86.5h-69.1zM1782.4 873h-31.7v-72.4h31.7V873zm131.4-.1h-75.3v-12.2h75.3v12.2zm0-13.2h-75.3v-14h75.3v14zm0-15.1h-75.3v-14h75.3v14zm0-15h-75.3v-14h75.3v14zm0-15h-75.3v-14h75.3v14zm0-15h-75.3v-14h75.3v14zm15.5 73.2h-14.5v-88.2h-77.3v88.3l-54.1.1v-73.4h-33.7V873H1708V668h4.9l44.9-86.9 44.9 86.9h31.6l44.6-52.3 44.5 52.2.2.2h5.7v204.7zm-5.3-205.7l-44.3-52h11.5l44.3 52H1924z"/><path d="M1766.6 691c-9.2 0-16.7 7.3-17 16.5v41.8h33.9v-40c0-.4.1-.9.1-1.3 0-9.4-7.6-17-17-17zm15.9 18.2v39.1h-31.9v-40.4c0-8.8 7.2-16 16-16s16 7.2 16 16c0 .5 0 .9-.1 1.3zM1879.3 691c-9.2 0-16.7 7.3-17 16.5v41.8h33.9v-40c0-.4.1-.9.1-1.3-.1-9.4-7.7-17-17-17zm15.9 18.2v39.1h-31.9v-40.4c0-8.8 7.2-16 16-16s16 7.2 16 16c-.1.5-.1.9-.1 1.3zM1079 619.6H874.6l-3.9 7.4-10.9-12.8-.1-.2H756.9L739 579.6H549.4l-31 60h-143l-50.6 88.5h9.2v146.2h294.4v-.1l46.8-.1h42.7v.2h33.7v-.3l90.8-.1v.4H1136.6V708.1h7.4l-50.6-88.5H1079zm-203.8 1h177.9l-45.4 86.5H898.3v-5.3h98.2v1.5l38.6-72.3.1-.1v-6.2l.3-.6H884l-6.1 11.4-6.5-7.6 3.8-7.3zm36 42.7h-9.6l-2.5-2.9h15.2l-16 29.8v-2.9l12.9-24zm-12.9 21.9v-17.1h7.4l-3.2-3.8h7l-11.2 20.9zm16.2-28l15.6-29.1H885l-5.2 9.7-1.2-1.4 6-11.2h48.6l-18.3 34.3h-16.5l-1.9-2.3h18zm-19-1l-15-17.6 5.1-9.5h42.8l-14.5 27.1h-18.4zm102 39l18.6-34.8 18.1-33.8v4l-36.7 68.7v-4.1zm-.9-.5H947l18.3-34.3h49.7l-18.4 34.3zm18.9-35.3h-49.7l18.3-34.3h49.7l-18.3 34.3zm-41.6-17.1l-9.2 17.1H916l18.3-34.3H983l-9.1 17.2zm-58.5 18.1h48.7l-9.2 17.1-9.2 17.1h-47.5v-2.3l17.2-31.9zm29.9 35.3h51.2v5.2h-98.2v-5.2h47zm-86.1-80.6l44.3 52H892l-44.3-52h11.5zm-12.9 0l-44.3 52h-17.7l-26.9-52h88.9zm-107.9-34.5l17.6 34 .1.2v.3h.1l26.9 52h-11.7l-27.1-52.5-17.6-34h11.7zM326.6 727.1l49.4-86.5h193.8l-49.4 86.5H326.6zm292.1-74.6l15.3-29.1h-44.4l-8.6 16.3h-1.6l10.1-19.2h48l-9 17.1-9 17.1h-25.7l-1.3-2.3h26.2zm-26.8-1l-6.8-11.8h-3l8.1-15.3h42.1L618 651.5h-26.1zm27.1 4.2h50.4v5.2h-72.1l-2.9-5.2H619zm1.6-1l18.1-34.3h48.9l-18.1 34.3h-48.9zm49.8.5l18-34.2.3-.6 3.1-5.8 14.7-28v4l-12.6 24-5.5 10.4-18 34.3v-4.1zm17.7-35.8h-48.9l18.1-34.3h48.9l-18.1 34.3zm-41-17.1l-9 17.1h-48l18.1-34.3h48l-9.1 17.2zM589 619.4h-47.8l18.1-34.3H607l-18 34.3zm-.5 1l-10.1 19.2h-1.5l8.6-16.3H541l-8.6 16.3h-1.9l10.1-19.2h47.9zm-12.8 19.2H533.6l8.1-15.3h42.1l-8.1 15.3zm-58.6 233.7h-182V728.1h182v145.2zm76.6 0H562v-72.7h31.7v72.7zm33.7 0h-32.7v-73.7H561v73.7h-43V728.1h3l49.7-87 49.7 87h6.9v145.2zM621 727.1l-49.4-86.5h13l49.4 86.5h-13zm54.2 146l-46.8.1v-145h7.4l-34.3-60h73.7v204.9zm-74.3-206l-3-5.3h71.5v1.5l19-36.2 6.6-12.6 12.4-23.6.1-.1v-6.2l.3-.6H558.7L540 619.4l-10.6 20.2h-9.9l30.5-59h175.1l-17.6 34-19.2 37.1-8 15.4h-79.4zM750.5 873h-31.7v-72.4h31.7V873zm131.3-.1h-75.3v-12.2h75.3v12.2zm0-13.2h-75.3v-14h75.3v14zm0-15.1h-75.3v-14h75.3v14zm0-15h-75.3v-14h75.3v14zm0-15h-75.3v-14h75.3v14zm0-15h-75.3v-14h75.3v14zm15.5 73.2h-14.5v-88.2h-77.3v88.3l-54.1.1v-73.4h-33.7V873H676V668h4.9l7.4-14.2 20.3-39.3 17.3-33.4 17.3 33.4 27.6 53.5h31.6l44.6-52.3 44.5 52.2.1.2h5.7v204.7zm78.5.5h-77.5V708.1h77.5v165.2zm140.7 0H1075v-72.7h41.5v72.7zm19.1 0h-18.1v-73.7H1074v73.7h-97.1V708.1h31.5l.3-.5 45.6-87h24.4l49.7 87 .3.5h6.9v165.2zm-6.4-166.2l-49.4-86.5h13l49.4 86.5h-13z"/><path d="M963.9 657.2l15.6-29.1h-45.1l-15.6 29.1h45.1zM935 629h42.8l-14.5 27.1h-42.8L935 629zM1014.1 657.2l15.6-29.1h-45.1L969 657.2h45.1zM985.2 629h42.8l-14.5 27.1h-42.8l14.5-27.1zM965.7 663.3l-15.6 29.1h45.1l15.6-29.1h-45.1zm28.9 28.2h-42.8l14.5-27.1h42.8l-14.5 27.1zM960.6 663.3h-45.1l-15.6 29.1H945l15.6-29.1zm-59 28.2l14.5-27.1h42.8l-14.5 27.1h-42.8zM996.4 818h59.7v-61.8h-59.7V818zm1-60.8h57.7V817h-57.7v-59.8zM1066.5 646.3c-9.2 0-16.7 7.3-17 16.5v41.8h33.9v-40c0-.4.1-.9.1-1.3-.1-9.4-7.7-17-17-17zm15.9 18.3v39.1h-31.9v-40.4c0-8.8 7.2-16 16-16s16 7.2 16 16c-.1.4-.1.8-.1 1.3zM588.7 617.2L604 588h-44.4l-15.3 29.1h44.4zM560.2 589h42.1L588 616.1h-42.1l14.3-27.1zM637.3 617.2l15.3-29.1h-44.4l-15.3 29.1h44.4zM608.8 589H651l-14.3 27.1h-42.1l14.2-27.1zM686.7 617.2L702 588h-44.4l-15.3 29.1h44.4zM658.3 589h42.1l-14.3 27.1H644l14.3-27.1zM639.1 623.3l-15.3 29.1h44.4l15.3-29.1h-44.4zm28.4 28.2h-42.1l14.3-27.1h42.1l-14.3 27.1zM734.7 691c-9.2 0-16.7 7.3-17 16.5v41.8h33.9v-40c0-.4.1-.9.1-1.3 0-9.4-7.6-17-17-17zm15.9 18.2v39.1h-31.9v-40.4c0-8.8 7.2-16 16-16s16 7.2 16 16c0 .5-.1.9-.1 1.3zM847.4 691c-9.2 0-16.7 7.3-17 16.5v41.8h33.9v-40c0-.4.1-.9.1-1.3-.1-9.4-7.7-17-17-17zm15.9 18.2v39.1h-31.9v-40.4c0-8.8 7.2-16 16-16s16 7.2 16 16c-.1.5-.1.9-.1 1.3zM386.8 648l-17 29.1h49l17-29.1h-49zm31.4 28.2h-46.7l15.8-27.1H434l-15.8 27.1zM472.6 677.2l17-29.1h-49l-17 29.1h49zM441.1 649h46.7L472 676.2h-46.7l15.8-27.2z"/><path d="M550.3 650.9v-6.2l.4-.6h-165l-20.6 35.3-21.1 36.3h.5v6.2h163.7v1.4l42.1-72.4zm-76.1 29.5h54.2l-20 34.3h-54.2l20-34.3zM453 714.7h-53.2l20-34.3H473l-10 17.1-10 17.2zm96.3-64.1l-40 68.9v-4.3l20.3-34.8 19.8-33.9v4.1zm-54.6-5.5h54.2l-20 34.3h-54.2l20-34.3zm-1.1 0l-10 17.1-10 17.1h-53.2l20-34.3h53.2zm-107.4 0h53l-20 34.3h-53l20-34.3zm-20.5 35.3h53l-20 34.3h-53l20-34.3zm-20.2 40.5v-5.2H508.2v5.2H345.5z"/><path d="M366.2 683.3l-17 29.1h49l17-29.1h-49zm31.5 28.2H351l15.8-27.1h46.7l-15.8 27.1zM527.3 677.2l17-29.1h-49l-17 29.1h49zM495.8 649h46.7l-15.8 27.1H480l15.8-27.1zM474.7 683.3l-17 29.1h49l17-29.1h-49zm31.5 28.2h-46.7l15.8-27.1H522l-15.8 27.1zM420 683.3l-17 29.1h49l17-29.1h-49zm31.5 28.2h-46.7l15.8-27.1h46.7l-15.8 27.1zM406.7 755.7h-53.1v67.7h53.1v-67.7zm-1 66.7h-51.1v-65.7h51.1v65.7zM495.1 755.7H442v67.7h53.1v-67.7zm-1 66.7H443v-65.7h51.1v65.7zM560.8 761.4h33.9v-41.8h-33.9v41.8zm1-40.8h31.9v39.8h-31.9v-39.8zM1569.6 677.2l17-29.1h-49l-17 29.1h49zm-31.4-28.2h46.7l-15.8 27.1h-46.7l15.8-27.1zM1517 683.3l-17 29.1h49l17-29.1h-49zm31.5 28.2h-46.7l15.8-27.1h46.7l-15.8 27.1zM1537.4 755.7h-53.1v67.7h53.1v-67.7zm-1 66.7h-51.1v-65.7h51.1v65.7zM1603.2 761.4h33.9v-41.8h-33.9v41.8zm1-40.8h31.9v39.8h-31.9v-39.8zM1486.6 664.7c2.5 0 4.5-2 4.5-4.5s-2-4.5-4.5-4.5-4.5 2-4.5 4.5 2 4.5 4.5 4.5zm0-7.9c1.9 0 3.5 1.6 3.5 3.5s-1.6 3.5-3.5 3.5-3.5-1.6-3.5-3.5 1.5-3.5 3.5-3.5zM1314.2 815.7h-20.1v-25.3c0-3-2.5-5.5-5.5-5.5h-98.5c-3 0-5.5 2.5-5.5 5.5v65.7c0 3 2.5 5.5 5.5 5.5h4.6c.6 7.5 6.9 13.4 14.6 13.4 5.9 0 11-3.5 13.3-8.6 2.3 5.1 7.4 8.6 13.3 8.6 4.9 0 9.3-2.5 11.9-6.2 2.7 3.7 7 6.2 11.9 6.2 5.9 0 11-3.5 13.3-8.6 2.3 5.1 7.4 8.6 13.3 8.6 7.6 0 13.9-5.9 14.6-13.4h13.3c3 0 5.5-2.5 5.5-5.5v-34.9c0-3-2.4-5.5-5.5-5.5zm-105 58.3c-7.5 0-13.6-6.1-13.6-13.6s6.1-13.6 13.6-13.6 13.6 6.1 13.6 13.6-6 13.6-13.6 13.6zm50.6 0c-7.5 0-13.6-6.1-13.6-13.6s6.1-13.6 13.6-13.6 13.6 6.1 13.6 13.6-6.1 13.6-13.6 13.6zm58.9-17.9c0 2.5-2 4.5-4.5 4.5H1274.3v-.2c0-8.1-6.6-14.6-14.6-14.6s-14.6 6.6-14.6 14.6v.2h-21.3v-.2c0-8.1-6.6-14.6-14.6-14.6s-14.6 6.6-14.6 14.6v.2h-4.5c-2.5 0-4.5-2-4.5-4.5v-65.7c0-2.5 2-4.5 4.5-4.5h98.5c2.5 0 4.5 2 4.5 4.5v2.3h-32.2c-3 0-5.5 2.5-5.5 5.5v13c0 3 2.5 5.5 5.5 5.5h53.3c2.5 0 4.5 2 4.5 4.5v34.9zm-25.6-62.3v22h-32.2c-2.5 0-4.5-2-4.5-4.5v-13c0-2.5 2-4.5 4.5-4.5h32.2z"/><path d="M1244.6 792.8h-15.9c-3 0-5.5 2.5-5.5 5.5v13c0 3 2.5 5.5 5.5 5.5h15.9c3 0 5.5-2.5 5.5-5.5v-13c0-3.1-2.4-5.5-5.5-5.5zm4.5 18.4c0 2.5-2 4.5-4.5 4.5h-15.9c-2.5 0-4.5-2-4.5-4.5v-13c0-2.5 2-4.5 4.5-4.5h15.9c2.5 0 4.5 2 4.5 4.5v13zM1212 792.8h-15.9c-3 0-5.5 2.5-5.5 5.5v13c0 3 2.5 5.5 5.5 5.5h15.9c3 0 5.5-2.5 5.5-5.5v-13c0-3.1-2.5-5.5-5.5-5.5zm4.5 18.4c0 2.5-2 4.5-4.5 4.5h-15.9c-2.5 0-4.5-2-4.5-4.5v-13c0-2.5 2-4.5 4.5-4.5h15.9c2.5 0 4.5 2 4.5 4.5v13zM1284 826.9c-3.9 0-7 3.1-7 6.9 0 3.8 3.1 6.9 7 6.9s7-3.1 7-6.9c0-3.7-3.2-6.9-7-6.9zm0 12.9c-3.3 0-6-2.7-6-5.9 0-3.3 2.7-5.9 6-5.9s6 2.7 6 5.9-2.7 5.9-6 5.9zM1309.7 826.9c-3.9 0-7 3.1-7 6.9 0 3.8 3.1 6.9 7 6.9s7-3.1 7-6.9c0-3.7-3.1-6.9-7-6.9zm0 12.9c-3.3 0-6-2.7-6-5.9 0-3.3 2.7-5.9 6-5.9s6 2.7 6 5.9-2.7 5.9-6 5.9z"/></g><path opacity=".5" fill="#2B9747" d="M1462.8 590.5l11.8-11.8-34.1-34.1-23.7 23.7L1402 552l15.1-16.5-43.2-47.4-41.1 45 14.8 16.2-17.1 18.8-23.5-23.5-23.7 23.6-14.7-16.2 15.1-16.5-43.3-47.4-41 45 14.8 16.2-17.6 19.2-24-23.9-32.3 32.3 11.5 11.6-20 20.1.9.9 20.9-21-11.6-11.6 30.6-30.6 32.3 32.4-11.8 11.8 20.8 20.7-13 13 .9.8 13.8-13.8-20.7-20.7 11.8-11.8-9.2-9.3 18.4-20.1-14.8-16.2 39.3-43.2 41.6 45.6-15.1 16.5 15.5 17.1-7.8 7.8 11.6 11.6-20.5 20.5 13.4 13.4.9-.9-12.5-12.5 20.5-20.5-11.6-11.6 30.6-30.6 22.7 22.7h-.1l.7.7 9 9-11.8 11.8 20.7 20.7-12.9 13 .9.8 13.8-13.8-20.7-20.7 11.8-11.8-9.7-9.7 17.9-19.7-14.8-16.2 39.4-43.2 41.5 45.6-15.1 16.5 15.6 17.2-7.7 7.7 11.6 11.6-20.5 20.5 13.4 13.4.8-.9L1401 609l20.5-20.5-11.5-11.6 30.5-30.6 32.4 32.4-11.9 11.8 21.2 21.2.9-.9M1044.7 542.1l11.9-11.9-34.1-34.1-23.8 23.8-14.8-16.3 15.1-16.5-43.2-47.4-41 44.9 14.8 16.3-17.2 18.7-23.5-23.5-23.7 23.7-14.7-16.2 15.1-16.5-43.3-47.4-41 44.9 14.8 16.3-17.6 19.2-24-24-32.3 32.4 11.6 11.6-20.1 20.1.9.8 20.9-20.9-11.5-11.6 30.5-30.6 32.4 32.3-11.9 11.9 20.8 20.7-12.9 12.9.9.9 13.8-13.8-20.8-20.7 11.8-11.9-9.2-9.2 18.4-20.1-14.8-16.3 39.3-43.1 41.6 45.6-15.1 16.5 15.6 17.1-7.8 7.8 11.5 11.6-20.5 20.5L861 574l.9-.9-12.5-12.5 20.5-20.5-11.6-11.6 30.6-30.6 22.7 22.7.6.6 9 9-11.8 11.9 20.8 20.7-13 12.9.9.9 13.8-13.8-20.7-20.7 11.8-11.9-9.7-9.7 18-19.6-14.8-16.3 39.3-43.1 41.6 45.6-15.2 16.5 15.7 17.1-7.8 7.8 11.6 11.6-20.5 20.5 13.4 13.4.9-.9-12.5-12.5 20.5-20.5-11.6-11.6 30.6-30.6 32.3 32.3-11.8 11.9 21.1 21.2.9-.9M453.3 590.5l11.8-11.8-34.1-34.1-23.7 23.7-14.8-16.3 15.1-16.5-43.3-47.4-41 45 14.8 16.2-17.1 18.8-23.6-23.5-23.6 23.6L259 552l15.1-16.5-43.2-47.4-41.1 45 14.8 16.2-17.5 19.2-24-23.9-32.4 32.3 11.6 11.6-20.1 20.1.9.9 21-21-11.6-11.6 30.6-30.6 32.3 32.4-11.8 11.8 20.7 20.7-12.9 13 .9.8 13.8-13.8-20.8-20.7 11.9-11.8-9.3-9.3 18.4-20.1-14.8-16.2 39.4-43.2 41.5 45.6-15.1 16.5 15.6 17.1-7.8 7.8 11.6 11.6-20.5 20.5 13.4 13.4.9-.9-12.6-12.5 20.5-20.5-11.5-11.6 30.5-30.6 22.7 22.7.7.7 9 9-11.9 11.8 20.8 20.7-12.9 13 .9.8 13.8-13.8-20.8-20.7 11.8-11.8-9.7-9.7 18-19.7-14.8-16.2 39.3-43.2 41.6 45.6-15.1 16.5 15.6 17.2-7.8 7.7 11.6 11.6-20.5 20.5 13.4 13.4.9-.9-12.5-12.5 20.5-20.5-11.6-11.6 30.6-30.6 32.3 32.4-11.8 11.8 21.2 21.2.9-.9M2080.6 545.1l11.9-11.9-34.1-34.1-23.7 23.8-14.8-16.3 15.1-16.5-43.3-47.4-41 44.9 14.8 16.3-17.2 18.7-23.5-23.5-23.6 23.7-14.8-16.2 15.1-16.5-43.3-47.4-41 44.9 14.8 16.3-17.6 19.2-23.9-24-32.4 32.4 11.6 11.6-20.1 20.1.9.8 21-20.9-11.6-11.6 30.6-30.6 32.3 32.3-11.9 11.9 20.8 20.7-12.9 12.9.9.9 13.8-13.8-20.8-20.7 11.8-11.9-9.2-9.2 18.4-20.1-14.8-16.3 39.3-43.1 41.6 45.6-15.1 16.5 15.6 17.1-7.8 7.8 11.6 11.6-20.6 20.5 13.4 13.4.9-.9-12.5-12.5 20.5-20.5-11.6-11.6 30.6-30.6 22.7 22.7.7.6 8.9 9-11.8 11.9 20.8 20.7-12.9 12.9.8.9 13.8-13.8-20.7-20.7 11.8-11.9-9.7-9.7 18-19.6-14.8-16.3 39.3-43.1 41.6 45.6-15.1 16.5 15.6 17.1-7.8 7.8 11.6 11.6-20.5 20.5 13.4 13.4.9-.9-12.5-12.5 20.5-20.5-11.6-11.6 30.6-30.6 32.3 32.3-11.8 11.9 21.2 21.2.8-.9"/><path opacity=".5" fill="#00B2CE" d="M462.3 355.2v-1.1h238.3c1 0 25.4-.7 25.4-26.5 0-7.8-2.3-13.9-6.8-18.1-7.4-6.9-18.5-6.2-18.6-6.2h-.7l.1-.7c0-.1 1.2-9.2-4.5-15.7-3.8-4.4-9.8-6.6-17.9-6.6h-.6l.1-.7c0-.2 2.8-16-6.8-27.4-6.7-8-17.7-12.1-32.8-12.1-14.7 0-25.8 4.1-33 12.2-10.8 12.2-9 29.5-8.9 29.7l.1.6h-.6c-.3 0-19.4.1-31 11.7-6 6-9.1 14.1-9.1 23.9v.8l-.7-.2c-.1 0-12.9-4.1-24.2 1.7-6.8 3.5-11.6 9.8-14.5 18.7l-.1.1c-.2.3-4.2 6.2-30.9 6.2v-1.1c24.6 0 29.5-5.1 29.9-5.6 2.9-9.2 8-15.7 15-19.3 10.1-5.2 21.4-2.8 24.3-2 .1-9.9 3.3-17.9 9.4-24 10.8-10.8 27.8-11.9 31.2-12-.2-3.2-.8-18.7 9.2-29.9 7.4-8.3 18.8-12.6 33.8-12.6 15.4 0 26.8 4.2 33.7 12.5 8.8 10.5 7.6 24.5 7.1 27.7 8.1.1 14.2 2.5 18.1 7 5.2 5.9 5 13.6 4.8 15.9 2.6-.1 12 .2 18.8 6.5 4.7 4.4 7.1 10.8 7.1 18.9 0 27-26.3 27.6-26.5 27.7H462.3z"/><path opacity=".5" fill="#00B2CE" d="M703.4 338.3h-1.1c0-9.8-2.2-16.7-6.5-20.5-5.1-4.5-12-3.5-15.3-3.1-.7.1-1.3.2-1.7.2h-.6v-.6c0-5.2-1.4-8.9-4.1-11.2-3.9-3.2-9.2-2.3-9.3-2.3l-.7.1v-.7c0-7.8-2.2-13.7-6.4-17.5-6.5-5.8-15.7-4.8-15.8-4.8l-.1-1.1c.4 0 9.8-1 16.6 5.1 4.4 3.9 6.7 9.9 6.8 17.7 1.6-.2 6-.3 9.5 2.6 2.9 2.4 4.4 6.2 4.5 11.5.3 0 .6-.1 1-.1 3.5-.5 10.7-1.4 16.2 3.4 4.7 4 7 11.2 7 21.3zM1433.6 161.7v-1.1h238.3c1 0 25.4-.7 25.4-26.5 0-7.8-2.3-13.9-6.8-18.1-7.4-6.9-18.5-6.2-18.6-6.2h-.7l.1-.7c0-.1 1.2-9.2-4.5-15.7-3.8-4.4-9.8-6.6-17.9-6.6h-.7l.1-.7c0-.2 2.8-16-6.8-27.4-6.7-8-17.7-12.1-32.8-12.1-14.7 0-25.8 4.1-33 12.2-10.8 12.2-8.9 29.5-8.9 29.7l.1.6h-.6c-.3 0-19.4.1-31 11.7-6 6-9.1 14.1-9.1 23.9v.8l-.7-.2c-.1 0-12.9-4.1-24.2 1.7-6.8 3.5-11.6 9.8-14.5 18.7l-.1.1c-.2.3-4.2 6.2-30.9 6.2v-1c24.6 0 29.5-5.1 29.9-5.6 2.9-9.2 8-15.7 15-19.3 10.1-5.2 21.4-2.8 24.3-2 .1-9.9 3.3-17.9 9.4-24 10.8-10.8 27.8-11.9 31.2-12-.2-3.2-.8-18.7 9.2-29.9 7.4-8.3 18.8-12.6 33.8-12.6 15.4 0 26.8 4.2 33.7 12.5 8.8 10.5 7.6 24.5 7.1 27.7 8.1.1 14.2 2.5 18.1 7 5.2 5.9 5 13.6 4.8 15.9 2.6-.1 12 .2 18.8 6.5 4.7 4.4 7.1 10.8 7.1 18.9 0 27-26.3 27.6-26.5 27.7h-238.1z"/><path opacity=".5" fill="#00B1CD" d="M1674.7 144.8h-1.1c0-9.8-2.2-16.7-6.5-20.5-5.1-4.5-12-3.5-15.3-3.1-.7.1-1.3.2-1.7.2h-.6v-.6c0-5.2-1.4-8.9-4.1-11.2-3.9-3.2-9.2-2.3-9.3-2.3l-.7.1v-.7c0-7.8-2.2-13.7-6.4-17.5-6.5-5.8-15.7-4.8-15.8-4.8l-.1-1.1c.4 0 9.8-1 16.6 5.1 4.4 3.9 6.7 9.9 6.8 17.7 1.6-.2 6-.3 9.5 2.6 2.9 2.4 4.4 6.2 4.5 11.5.3 0 .6-.1 1-.1 3.5-.5 10.7-1.4 16.2 3.4 4.7 4 7 11.2 7 21.3zM1720.3 269.8h-1c0-.3-1-33.5-31.5-33.5v-1c24.8 0 30.7 21.3 32.1 30.4 1.8-9.1 8.5-30.1 33.6-30.1v1c-30.9 0-33.2 32.8-33.2 33.2zM1891.3 247.4l-.2-4.3c0-.1-1.1-11.9-31.5-11.9v-1c24.9 0 30.7 7.7 32.1 11.2 1.7-3.4 8.4-10.8 33.6-10.8v1c-30.7 0-33.2 11.5-33.2 11.6l-.8 4.2zM1829.7 192.8h-1c0-.2-1.1-16.7-31.5-16.7v-1c16.4 0 24.3 4.8 28.1 8.7 2.4 2.5 3.5 5.1 4 6.8 1.8-4.6 8.6-15.2 33.6-15.2v1c-30.8 0-33.2 16.2-33.2 16.4z"/><g opacity=".5" fill="#E6795A"><path d="M404 182.9c-31.8 0-57.7-25.9-57.7-57.7s25.9-57.7 57.7-57.7 57.7 25.9 57.7 57.7-25.9 57.7-57.7 57.7zm0-113.1c-30.6 0-55.4 24.9-55.4 55.4s24.9 55.4 55.4 55.4 55.4-24.9 55.4-55.4-24.8-55.4-55.4-55.4zM404 204.4l-16.1-16.1 1.6-1.6 14.5 14.5 14.5-14.5 1.6 1.6M418.5 63.8L404 49.3l-14.5 14.5-1.6-1.6L404 46.1l16.1 16.1M341 141.3l-16.1-16.1 16.1-16.1 1.6 1.6-14.5 14.5 14.5 14.5M467.1 141.3l-1.6-1.6 14.5-14.5-14.5-14.5 1.6-1.6 16.1 16.1M344.1 88.3h-2.3V63h25.3v2.3h-23M466.2 187.5H441v-2.3h23v-23h2.3M466.3 88.3H464v-23h-23V63h25.3M367.1 187.5l-25.3-.1v-25.2h2.3v23h23"/></g></svg>