<svg id="Layer_1" data-name="Layer 1" xmlns="http://www.w3.org/2000/svg" viewBox="0 0 89.2 89.1"><defs><style>.cls-1 { fill: #f9c915; }</style></defs><title>sunnyDays</title><path class="cls-1" d="M44.6 77.1a32.5 32.5 0 1 1 32.5-32.5 32.56 32.56 0 0 1-32.5 32.5zm0-63.7a31.2 31.2 0 1 0 31.2 31.2 31.24 31.24 0 0 0-31.2-31.2z"/><path class="cls-1" d="M44.6 89.1l-9.1-9 .9-.9 8.2 8.1 8.2-8.1.9.9-9.1 9zM52.8 10l-8.2-8.2-8.2 8.2-.9-.9L44.6 0l9.1 9.1-.9.9zM9.1 53.6l-9.1-9 9.1-9.1.9.9-8.2 8.2 8.2 8.1-.9.9zM80.1 53.6l-.9-.9 8.2-8.1-8.2-8.2.9-.9 9.1 9.1-9.1 9zM10.8 23.7H9.6V9.5h14.2v1.3h-13v12.9zM79.6 79.6H65.4v-1.3h12.9l.1-12.9h1.2v14.2zM79.6 23.7h-1.2V10.8h-13V9.5h14.2v14.2zM23.8 79.6H9.6V65.4h1.2v12.9h13v1.3z"/></svg>