	<svg id="Layer_1" data-name="Layer 1" xmlns="http://www.w3.org/2000/svg" viewBox="0 0 1226.2 113.6"><defs><style>.cls-1 { fill: #2b9747; opacity: .2; height: 10px }</style></defs><title>grassBG</title><pattern id="pattern" x="0" y="0" width="2000" height="20" patternUnits="userSpaceOnUse"><path class="cls-1" d="M1188.7 10.7l-.2-.1a71.93 71.93 0 0 0-71.8 0l-.2.1-.2-.1a71.93 71.93 0 0 0-71.8 0l-.2.1-.2-.1a71.93 71.93 0 0 0-71.8 0l-.2.1-.2-.1a71.93 71.93 0 0 0-71.8 0l-.2.1-.2-.1a71.87 71.87 0 0 0-69.6-1.2l-.2.1-.2-.1a71.87 71.87 0 0 0-69.6 1.2l-.2.1-.2-.1a71.93 71.93 0 0 0-71.8 0l-.2.1-.2-.1a71.93 71.93 0 0 0-71.8 0l-.3.1-.3-.1a71.93 71.93 0 0 0-71.8 0l-.3.1-.3-.1a71.93 71.93 0 0 0-71.8 0l-.3.1-.3-.1a71.93 71.93 0 0 0-71.8 0l-.3.1-.3-.1a71.93 71.93 0 0 0-71.8 0l-.3.1-.3-.1a71.93 71.93 0 0 0-71.8 0l-.3.1-.3-.1a71.93 71.93 0 0 0-71.8 0l-.3.1-.3-.1a71.93 71.93 0 0 0-71.8 0l-.3.1-.3-.1a71.93 71.93 0 0 0-71.8 0l-.3.1-.3-.1A71.77 71.77 0 0 0 0 1V0a72.87 72.87 0 0 1 36.2 9.6 73.05 73.05 0 0 1 72.4 0 73.05 73.05 0 0 1 72.4 0 73.05 73.05 0 0 1 72.4 0 73.05 73.05 0 0 1 72.4 0 73.05 73.05 0 0 1 72.4 0 73.05 73.05 0 0 1 72.4 0 73.05 73.05 0 0 1 72.4 0 73.05 73.05 0 0 1 72.4 0 73.05 73.05 0 0 1 72.4 0 73.05 73.05 0 0 1 72.4 0 72.84 72.84 0 0 1 70.1-1.2 72.84 72.84 0 0 1 70.1 1.2 73.05 73.05 0 0 1 72.4 0 73.05 73.05 0 0 1 72.4 0 73.05 73.05 0 0 1 72.4 0 73.05 73.05 0 0 1 72.4 0 72.87 72.87 0 0 1 36.2-9.6v1a71.49 71.49 0 0 0-35.9 9.6zM1188.7 113.6l-.2-.1a71.93 71.93 0 0 0-71.8 0l-.2.1-.2-.1a71.93 71.93 0 0 0-71.8 0l-.2.1-.2-.1a71.93 71.93 0 0 0-71.8 0l-.2.1-.2-.1a71.93 71.93 0 0 0-71.8 0l-.2.1-.2-.1a71.87 71.87 0 0 0-69.6-1.2l-.2.1-.2-.1a71.87 71.87 0 0 0-69.6 1.2l-.2.1-.2-.1a71.93 71.93 0 0 0-71.8 0l-.2.1-.2-.1a71.93 71.93 0 0 0-71.8 0l-.3.1-.3-.1a71.93 71.93 0 0 0-71.8 0l-.3.1-.3-.1a71.93 71.93 0 0 0-71.8 0l-.3.1-.3-.1a71.93 71.93 0 0 0-71.8 0l-.3.1-.3-.1a71.93 71.93 0 0 0-71.8 0l-.3.1-.3-.1a71.93 71.93 0 0 0-71.8 0l-.3.1-.3-.1a71.93 71.93 0 0 0-71.8 0l-.3.1-.3-.1a71.93 71.93 0 0 0-71.8 0l-.3.1-.3-.1a71.93 71.93 0 0 0-71.8 0l-.3.1-.3-.1A71.77 71.77 0 0 0 0 103.9v-1a72.87 72.87 0 0 1 36.2 9.6 73.05 73.05 0 0 1 72.4 0 73.05 73.05 0 0 1 72.4 0 73.05 73.05 0 0 1 72.4 0 73.05 73.05 0 0 1 72.4 0 73.05 73.05 0 0 1 72.4 0 73.05 73.05 0 0 1 72.4 0 73.05 73.05 0 0 1 72.4 0 73.05 73.05 0 0 1 72.4 0 73.05 73.05 0 0 1 72.4 0 73.05 73.05 0 0 1 72.4 0 72.84 72.84 0 0 1 70.1-1.2 72.84 72.84 0 0 1 70.1 1.2 73.05 73.05 0 0 1 72.4 0 73.05 73.05 0 0 1 72.4 0 73.05 73.05 0 0 1 72.4 0 73.05 73.05 0 0 1 72.4 0 72.87 72.87 0 0 1 36.2-9.6v1a71.5 71.5 0 0 0-35.9 9.6z"/></pattern><rect x="0" y="0" width="100%" height="10" fill="url(#pattern)" /></svg>