<svg xmlns="http://www.w3.org/2000/svg" id="Layer_1" data-name="Layer 1" viewBox="0 0 272.9 44.7"><defs><style>.cls-1 { fill: #2b9747; }</style></defs><title>logo</title><path d="M75.7 16.6h2.4l4.3 11L93.7 0H0v44.5h75.4l5.8-14.1zM20.8 30.7a4.87 4.87 0 0 1-.7.3l-.9.3c-.3.1-.7.1-1.1.2s-.8.1-1.1.1a8.63 8.63 0 0 1-2.8-.4 6.78 6.78 0 0 1-2.3-1.4 5.13 5.13 0 0 1-1.5-2.3 8.45 8.45 0 0 1-.6-3.3 10.32 10.32 0 0 1 .3-2.6 9.26 9.26 0 0 1 .8-2 6.09 6.09 0 0 1 1.2-1.5 13 13 0 0 1 1.5-1 10.41 10.41 0 0 1 1.6-.6 10 10 0 0 1 1.6-.2 12.31 12.31 0 0 1 2 .2 8.51 8.51 0 0 1 1.7.6v2l-1.8-.6a8.81 8.81 0 0 0-1.7-.2 5.66 5.66 0 0 0-1.8.3 3.91 3.91 0 0 0-1.6 1 4 4 0 0 0-1.1 1.8 7 7 0 0 0-.4 2.7 7.8 7.8 0 0 0 .3 2.2 4.61 4.61 0 0 0 .9 1.7 3.09 3.09 0 0 0 1.6 1.1 4.81 4.81 0 0 0 2.2.4 11 11 0 0 0 1.8-.2 12.09 12.09 0 0 0 1.8-.5v1.9h.1zm14.1-5.2a6.6 6.6 0 0 1-.1 1.4 5.27 5.27 0 0 1-.3 1.2 3.92 3.92 0 0 1-.8 1.4 4.26 4.26 0 0 1-1.2 1.1 7.74 7.74 0 0 1-1.6.7 6.65 6.65 0 0 1-2.1.3 11.24 11.24 0 0 1-2-.2 7.74 7.74 0 0 1-1.6-.7 6.28 6.28 0 0 1-1.2-1.1 6.38 6.38 0 0 1-.8-1.4l-.3-1.2a6.15 6.15 0 0 1-.1-1.4v-9h2.4v8.9a5.62 5.62 0 0 0 .3 2 2.89 2.89 0 0 0 1.2 1.5 3.28 3.28 0 0 0 2.1.5 3.8 3.8 0 0 0 2.2-.6 4 4 0 0 0 1.2-1.6 5 5 0 0 0 .3-1.9v-8.8h2.4v8.9zm10.9 5.7a2 2 0 0 1-.9.2 6.62 6.62 0 0 1-1.5.1 6 6 0 0 1-2-.3 4.68 4.68 0 0 1-1.4-.8 2.22 2.22 0 0 1-.8-1.3 4.67 4.67 0 0 1-.3-1.7v-8.8h-2.8v-2h2.8v-4h2.4v4h4.4v2h-4.4v8.5a2.77 2.77 0 0 0 .1.9 1.16 1.16 0 0 0 .5.7 2.18 2.18 0 0 0 .8.5 3.73 3.73 0 0 0 1.2.2 3.4 3.4 0 0 0 1-.1c.4-.1.7-.1 1-.2v2.1h-.1zm28.4 0h-2.4v-9.4a7 7 0 0 0-.2-1.6 2.44 2.44 0 0 0-1.5-1.7 5 5 0 0 0-1.2-.2 3.89 3.89 0 0 0-2.3.7 8.55 8.55 0 0 0-1.9 1.9v10.4h-2.4v-9.4a7 7 0 0 0-.2-1.6 2.44 2.44 0 0 0-1.5-1.7 5 5 0 0 0-1.2-.2 3.89 3.89 0 0 0-2.3.7 8.55 8.55 0 0 0-1.9 1.9v10.4h-2.4V16.6h1.8l.5 2a7.64 7.64 0 0 1 .9-.9c.3-.3.7-.5 1-.8a5 5 0 0 1 1.3-.5 7.72 7.72 0 0 1 1.5-.2 4.55 4.55 0 0 1 2.7.8 5.1 5.1 0 0 1 1.7 2.1h.1a7.29 7.29 0 0 1 2.2-2.1 5.47 5.47 0 0 1 2.9-.8 8.75 8.75 0 0 1 1.6.2 3.47 3.47 0 0 1 1.6.8 4 4 0 0 1 1.2 1.6 6.33 6.33 0 0 1 .5 2.6v9.8h-.1zm27.7-14.8q7.2 0 11.1 8.4a15.55 15.55 0 0 1 1 5.7v.3l-.5.5H91.2c0 3.5 1.5 6.8 4.6 9.8a10.17 10.17 0 0 0 6.1 2.2c3.9 0 7-2.2 9.5-6.6l.5-.1.5.5v.1a12.53 12.53 0 0 1-5.4 6.2 11.81 11.81 0 0 1-5.3 1.3c-4.5 0-8-2.5-10.6-7.6a15.92 15.92 0 0 1-1.4-6.6 14.09 14.09 0 0 1 7.6-13 11.27 11.27 0 0 1 4.6-1.1zM91.2 29.7h21.4c0-4.1-1.8-7.6-5.5-10.4a11.22 11.22 0 0 0-5.2-1.5c-4.7 0-8.1 2.9-10.2 8.8zM120.9 0h.5l.4.4-3.6 29.3h5.1L121.8 44l-.5.5a.8.8 0 0 1-.9-.9l1.5-12.5h-4.8L120.5.8a.63.63 0 0 1 .4-.8zm19.5 16.4q7.2 0 11.1 8.4a15.55 15.55 0 0 1 1 5.7v.3l-.5.5h-22.3c0 3.5 1.5 6.8 4.6 9.8a10.17 10.17 0 0 0 6.1 2.2c3.9 0 7-2.2 9.5-6.6l.5-.1.5.5v.1a12.53 12.53 0 0 1-5.4 6.2 11.81 11.81 0 0 1-5.3 1.3c-4.5 0-8-2.5-10.6-7.6a15.92 15.92 0 0 1-1.4-6.6 14.09 14.09 0 0 1 7.6-13 11.27 11.27 0 0 1 4.6-1.1zm-10.7 13.3h21.4c0-4.1-1.8-7.6-5.5-10.4a11.22 11.22 0 0 0-5.2-1.5c-4.7 0-8.1 2.9-10.2 8.8zm42.7-13.3a13.44 13.44 0 0 1 9.7 4.4v.5a.85.85 0 0 1-.9.5 11.89 11.89 0 0 0-8.9-4c-4.8 0-8.5 2.6-11.1 7.7a14.45 14.45 0 0 0-.9 4.8v.4c0 5.3 2.7 9.3 8.1 11.8a16.85 16.85 0 0 0 4 .6 12.43 12.43 0 0 0 8.8-3.9h.5l.4.4v.5a13 13 0 0 1-9.7 4.4c-5.7 0-9.9-3-12.8-9.1a18 18 0 0 1-.8-5v-.1c0-5.3 2.5-9.4 7.6-12.5a14.42 14.42 0 0 1 6-1.4zM193.7 0h.5l.5.5v15.8h3.9a.85.85 0 0 1 .9.5v.4l-.5.5h-4.2v13.8c0 5.3 2.9 9 8.6 11.1a16.86 16.86 0 0 0 3.9.6l.3.4v.4a.9.9 0 0 1-.6.5c-5.3 0-9.4-2.5-12.2-7.5a11.33 11.33 0 0 1-1.3-5.4V17.7h-4.4l-.4-.4v-.5a.94.94 0 0 1 .9-.5h3.9V.7c-.1-.4 0-.7.2-.7zm21 16.4a.78.78 0 0 1 .6.5v6.2h.1a11.15 11.15 0 0 1 10.2-6.7c3.4.4 5.2 1 5.2 1.8a1.21 1.21 0 0 1-.8.8 10.82 10.82 0 0 0-4.5-1.2c-4.2 0-7.4 2.5-9.5 7.5a14.63 14.63 0 0 0-.6 4.4v14.4a.89.89 0 0 1-.8.5.8.8 0 0 1-.6-.9V17.3a.67.67 0 0 1 .7-.9zM240 9.3h.4l.5.5v33.9a.77.77 0 0 1-.8.9.78.78 0 0 1-.6-.5V9.8zm23.2 7.1a13.44 13.44 0 0 1 9.7 4.4v.5a.85.85 0 0 1-.9.5 11.89 11.89 0 0 0-8.9-4c-4.8 0-8.5 2.6-11.1 7.7a14.45 14.45 0 0 0-.9 4.8v.4c0 5.3 2.7 9.3 8.1 11.8a16.85 16.85 0 0 0 4 .6 12.43 12.43 0 0 0 8.8-3.9h.5l.4.4v.5a13 13 0 0 1-9.7 4.4c-5.7 0-9.9-3-12.8-9.1a18 18 0 0 1-.8-5v-.1c0-5.3 2.5-9.4 7.6-12.5a14.42 14.42 0 0 1 6-1.4z" class="cls-1"/><circle cx="240.2" cy="3" r="1.5" class="cls-1"/></svg>