<svg id="Layer_1" data-name="Layer 1" xmlns="http://www.w3.org/2000/svg" viewBox="0 0 89.2 89.1"><defs><style>.cls-1 { opacity: 0.5; } .cls-2 { fill: #e6795a; }</style></defs><title>sunBackground</title><g class="cls-1"><path class="cls-2" d="M44.6 77.1a32.5 32.5 0 1 1 32.5-32.5 32.56 32.56 0 0 1-32.5 32.5zm0-63.7a31.2 31.2 0 1 0 31.2 31.2 31.24 31.24 0 0 0-31.2-31.2z"/><path class="cls-2" d="M44.6 89.1l-9.1-9 1-.9 8.1 8.1 8.2-8.1.9.9-9.1 9zM52.8 10l-8.2-8.2-8.1 8.2-.9-.9 9-9.1 9.1 9.1-.9.9zM9.1 53.6l-9.1-9 9.1-9.1.9.9-8.1 8.2 8.1 8.1-.9.9zM80.1 53.6l-.9-.9 8.2-8.1-8.2-8.2.9-.9 9.1 9.1-9.1 9zM10.9 23.7H9.6V9.5h14.2v1.3H10.9v12.9zM79.7 79.6H65.4v-1.3h13V65.4h1.3v14.2zM79.7 23.7h-1.3V10.8h-13V9.5h14.3v14.2zM23.8 79.6H9.6V65.4h1.3v12.9h12.9v1.3z"/></g></svg>